M48
;GenerationSoftware,Autodesk,EAGLE,9.6.2*%
;CreationDate,2025-05-13T03:38:36Z*%
FMAT,2
ICI,OFF
METRIC,TZ,000.000
T8C0.700
T7C0.813
T6C1.016
T5C1.300
T4C1.500
T3C2.000
T2C2.200
T1C2.500
%
G90
M71
T1
X63373Y100076
X8000Y138792
X8000Y130592
X12200Y135492
X8000Y112300
X8000Y104100
X12200Y109000
T2
X48600Y92600
X48600Y87800
X48600Y83000
X53300Y83000
X53300Y87800
X53300Y92600
X58000Y92600
X58000Y87800
X58000Y83000
T3
X61000Y71000
X61000Y58000
X61000Y45000
X61000Y32000
X61000Y19000
X61000Y6000
T4
X3800Y135492
X3800Y109000
T5
X13000Y62000
X13000Y66000
X13000Y70000
X3208Y61517
X3208Y70522
X62850Y125000
X42850Y125000
X27000Y119150
X27000Y139150
X13000Y32000
X13000Y36000
X3208Y40522
X3208Y31517
X13000Y40000
T6
X58000Y100000
X8095Y80873
X10635Y80873
X13175Y80873
X10540Y122015
X8000Y122015
X5460Y122015
X5000Y89968
X5000Y92508
X5000Y95048
X55000Y49730
X55000Y52270
X56460Y138619
X59000Y138619
X61540Y138619
X41000Y137822
X41000Y140718
X45000Y137822
X45000Y140718
X14349Y95175
X14349Y92635
X14349Y90095
X55000Y22270
X55000Y19730
T7
X53080Y99000
X24920Y83000
X35080Y83000
X24920Y80000
X35080Y80000
X38762Y108142
X38762Y118302
X64096Y104588
X53936Y104588
X42920Y99000
X64000Y118080
X64000Y107920
X40508Y94666
X31810Y94920
X40508Y104826
X31810Y97460
X31810Y100000
X31810Y102540
X34651Y118302
X34651Y108142
X35080Y86000
X24920Y86000
X24190Y97460
X24190Y105080
X24190Y107620
X24190Y94920
X24190Y102540
X24190Y100000
X24190Y92380
X19730Y81000
X21000Y79095
X22270Y81000
X31810Y92380
X51048Y110810
X51048Y108270
X43428Y103190
X43428Y105730
X51048Y105730
X31810Y105080
X31810Y107620
X51048Y103190
X43428Y108270
X43428Y110810
X56619Y113302
X56619Y108222
X29794Y113365
X24714Y113365
T8
X36381Y97742
X36381Y95242
X37750Y90000
X40250Y90000
X17750Y117000
X20250Y117000
M30