G04 EAGLE Gerber RS-274X export*
G75*
%MOMM*%
%FSLAX34Y34*%
%LPD*%
%INBottom Copper*%
%IPPOS*%
%AMOC8*
5,1,8,0,0,1.08239X$1,22.5*%
G01*
%ADD10P,1.429621X8X22.500000*%
%ADD11C,1.950000*%
%ADD12C,1.320800*%
%ADD13P,1.429621X8X112.500000*%
%ADD14C,1.524000*%
%ADD15C,1.879600*%
%ADD16C,3.516000*%
%ADD17C,2.250000*%
%ADD18P,1.814519X8X22.500000*%
%ADD19P,1.814519X8X112.500000*%
%ADD20P,1.814519X8X292.500000*%
%ADD21P,1.814519X8X202.500000*%
%ADD22R,1.219200X1.219200*%
%ADD23C,1.371600*%
%ADD24C,2.540000*%
%ADD25C,2.540000*%
%ADD26C,3.600000*%
%ADD27R,1.879600X1.879600*%
%ADD28C,4.500000*%
%ADD29C,0.152400*%

G36*
X18627Y620830D02*
X18627Y620830D01*
X18743Y620847D01*
X18749Y620849D01*
X18755Y620850D01*
X18858Y620905D01*
X18963Y620958D01*
X18967Y620963D01*
X18973Y620966D01*
X19052Y621050D01*
X19135Y621134D01*
X19138Y621140D01*
X19142Y621144D01*
X19150Y621161D01*
X19216Y621281D01*
X20024Y623232D01*
X24025Y627233D01*
X29254Y629399D01*
X34912Y629399D01*
X40141Y627233D01*
X44142Y623232D01*
X44950Y621281D01*
X45012Y621181D01*
X45072Y621081D01*
X45077Y621077D01*
X45080Y621072D01*
X45170Y620997D01*
X45259Y620921D01*
X45265Y620919D01*
X45269Y620915D01*
X45378Y620873D01*
X45487Y620829D01*
X45494Y620828D01*
X45499Y620827D01*
X45517Y620826D01*
X45654Y620811D01*
X102314Y620811D01*
X102334Y620814D01*
X102353Y620812D01*
X102455Y620834D01*
X102557Y620850D01*
X102574Y620860D01*
X102594Y620864D01*
X102683Y620917D01*
X102774Y620966D01*
X102788Y620980D01*
X102805Y620990D01*
X102872Y621069D01*
X102944Y621144D01*
X102952Y621162D01*
X102965Y621177D01*
X103004Y621273D01*
X103047Y621367D01*
X103049Y621387D01*
X103057Y621405D01*
X103075Y621572D01*
X103075Y622829D01*
X105241Y628058D01*
X109242Y632059D01*
X114471Y634225D01*
X140676Y634225D01*
X140766Y634239D01*
X140857Y634247D01*
X140886Y634259D01*
X140918Y634264D01*
X140999Y634307D01*
X141083Y634343D01*
X141115Y634369D01*
X141136Y634380D01*
X141158Y634403D01*
X141214Y634448D01*
X283180Y776414D01*
X283222Y776472D01*
X283271Y776524D01*
X283293Y776571D01*
X283323Y776613D01*
X283344Y776682D01*
X283375Y776747D01*
X283380Y776799D01*
X283396Y776849D01*
X283394Y776920D01*
X283402Y776991D01*
X283391Y777042D01*
X283389Y777094D01*
X283365Y777162D01*
X283350Y777232D01*
X283323Y777276D01*
X283305Y777325D01*
X283260Y777381D01*
X283223Y777443D01*
X283184Y777477D01*
X283151Y777517D01*
X283091Y777556D01*
X283036Y777603D01*
X282988Y777622D01*
X282944Y777650D01*
X282875Y777668D01*
X282808Y777695D01*
X282737Y777703D01*
X282706Y777711D01*
X282682Y777709D01*
X282642Y777713D01*
X239053Y777713D01*
X220413Y796353D01*
X220413Y801110D01*
X220411Y801125D01*
X220412Y801139D01*
X220411Y801143D01*
X220412Y801149D01*
X220390Y801251D01*
X220374Y801353D01*
X220364Y801370D01*
X220360Y801390D01*
X220307Y801479D01*
X220258Y801570D01*
X220244Y801584D01*
X220234Y801601D01*
X220155Y801668D01*
X220080Y801740D01*
X220062Y801748D01*
X220047Y801761D01*
X219951Y801800D01*
X219857Y801843D01*
X219837Y801845D01*
X219819Y801853D01*
X219652Y801871D01*
X219333Y801871D01*
X214571Y806633D01*
X214571Y813367D01*
X219333Y818129D01*
X221240Y818129D01*
X221310Y818140D01*
X221382Y818142D01*
X221431Y818160D01*
X221482Y818168D01*
X221546Y818202D01*
X221613Y818227D01*
X221654Y818259D01*
X221700Y818284D01*
X221749Y818336D01*
X221805Y818380D01*
X221833Y818424D01*
X221869Y818462D01*
X221899Y818527D01*
X221938Y818587D01*
X221951Y818638D01*
X221973Y818685D01*
X221981Y818756D01*
X221998Y818826D01*
X221994Y818878D01*
X222000Y818929D01*
X221985Y819000D01*
X221979Y819071D01*
X221959Y819119D01*
X221948Y819170D01*
X221911Y819231D01*
X221883Y819297D01*
X221838Y819353D01*
X221821Y819381D01*
X221804Y819396D01*
X221778Y819428D01*
X149923Y891283D01*
X149829Y891351D01*
X149734Y891421D01*
X149728Y891423D01*
X149723Y891427D01*
X149612Y891461D01*
X149500Y891497D01*
X149494Y891497D01*
X149488Y891499D01*
X149371Y891496D01*
X149254Y891495D01*
X149247Y891493D01*
X149242Y891493D01*
X149225Y891486D01*
X149093Y891448D01*
X145663Y890027D01*
X141317Y890027D01*
X137303Y891690D01*
X134230Y894763D01*
X132567Y898777D01*
X132567Y903123D01*
X134230Y907137D01*
X137303Y910210D01*
X139005Y910915D01*
X139088Y910966D01*
X139173Y911012D01*
X139191Y911030D01*
X139214Y911044D01*
X139276Y911120D01*
X139343Y911190D01*
X139354Y911214D01*
X139370Y911234D01*
X139405Y911325D01*
X139446Y911413D01*
X139449Y911439D01*
X139459Y911463D01*
X139463Y911561D01*
X139473Y911657D01*
X139468Y911683D01*
X139469Y911709D01*
X139442Y911803D01*
X139421Y911898D01*
X139408Y911920D01*
X139400Y911945D01*
X139345Y912025D01*
X139295Y912109D01*
X139275Y912126D01*
X139260Y912147D01*
X139182Y912206D01*
X139108Y912269D01*
X139084Y912279D01*
X139063Y912294D01*
X138970Y912324D01*
X138880Y912361D01*
X138847Y912364D01*
X138829Y912370D01*
X138796Y912370D01*
X138713Y912379D01*
X66249Y912379D01*
X66158Y912365D01*
X66068Y912357D01*
X66038Y912345D01*
X66006Y912340D01*
X65925Y912297D01*
X65841Y912261D01*
X65809Y912235D01*
X65788Y912224D01*
X65766Y912201D01*
X65710Y912156D01*
X59667Y906113D01*
X59599Y906019D01*
X59529Y905924D01*
X59527Y905918D01*
X59523Y905913D01*
X59489Y905802D01*
X59453Y905690D01*
X59453Y905684D01*
X59451Y905678D01*
X59454Y905561D01*
X59455Y905444D01*
X59457Y905437D01*
X59457Y905432D01*
X59464Y905415D01*
X59502Y905283D01*
X60923Y901853D01*
X60923Y897507D01*
X59260Y893493D01*
X56187Y890420D01*
X52173Y888757D01*
X47827Y888757D01*
X43813Y890420D01*
X40740Y893493D01*
X39077Y897507D01*
X39077Y901853D01*
X40740Y905867D01*
X43813Y908940D01*
X47827Y910603D01*
X52173Y910603D01*
X55603Y909182D01*
X55717Y909155D01*
X55830Y909127D01*
X55837Y909127D01*
X55843Y909126D01*
X55959Y909137D01*
X56076Y909146D01*
X56081Y909148D01*
X56088Y909149D01*
X56195Y909197D01*
X56302Y909242D01*
X56308Y909247D01*
X56312Y909249D01*
X56326Y909261D01*
X56433Y909347D01*
X64039Y916953D01*
X135602Y916953D01*
X135673Y916964D01*
X135745Y916966D01*
X135794Y916984D01*
X135845Y916992D01*
X135908Y917026D01*
X135976Y917051D01*
X136016Y917083D01*
X136063Y917108D01*
X136112Y917160D01*
X136168Y917204D01*
X136196Y917248D01*
X136232Y917286D01*
X136262Y917351D01*
X136301Y917411D01*
X136314Y917462D01*
X136336Y917509D01*
X136343Y917580D01*
X136361Y917650D01*
X136357Y917702D01*
X136363Y917753D01*
X136347Y917824D01*
X136342Y917895D01*
X136321Y917943D01*
X136310Y917994D01*
X136274Y918055D01*
X136245Y918121D01*
X136201Y918177D01*
X136184Y918205D01*
X136166Y918220D01*
X136141Y918252D01*
X134230Y920163D01*
X132567Y924177D01*
X132567Y928523D01*
X134230Y932537D01*
X137303Y935610D01*
X141317Y937273D01*
X145663Y937273D01*
X149677Y935610D01*
X152750Y932537D01*
X154413Y928523D01*
X154413Y924177D01*
X152750Y920163D01*
X150839Y918252D01*
X150797Y918194D01*
X150748Y918142D01*
X150726Y918095D01*
X150696Y918053D01*
X150675Y917984D01*
X150644Y917919D01*
X150639Y917867D01*
X150623Y917817D01*
X150625Y917746D01*
X150617Y917675D01*
X150628Y917624D01*
X150630Y917572D01*
X150654Y917504D01*
X150670Y917434D01*
X150696Y917389D01*
X150714Y917341D01*
X150759Y917285D01*
X150796Y917223D01*
X150835Y917189D01*
X150868Y917149D01*
X150928Y917110D01*
X150983Y917063D01*
X151031Y917044D01*
X151075Y917016D01*
X151144Y916998D01*
X151211Y916971D01*
X151282Y916963D01*
X151313Y916955D01*
X151337Y916957D01*
X151378Y916953D01*
X227449Y916953D01*
X227566Y916972D01*
X227686Y916991D01*
X227688Y916992D01*
X227691Y916992D01*
X227797Y917048D01*
X227904Y917104D01*
X227906Y917106D01*
X227909Y917108D01*
X227991Y917194D01*
X228075Y917281D01*
X228076Y917284D01*
X228078Y917286D01*
X228128Y917394D01*
X228180Y917503D01*
X228181Y917506D01*
X228182Y917509D01*
X228195Y917627D01*
X228209Y917747D01*
X228209Y917750D01*
X228209Y917753D01*
X228184Y917870D01*
X228159Y917988D01*
X228157Y917991D01*
X228157Y917994D01*
X228151Y918003D01*
X228082Y918137D01*
X227192Y919468D01*
X226503Y921133D01*
X226275Y922277D01*
X241138Y922277D01*
X241158Y922280D01*
X241177Y922278D01*
X241279Y922300D01*
X241381Y922317D01*
X241398Y922326D01*
X241418Y922330D01*
X241507Y922383D01*
X241598Y922432D01*
X241612Y922446D01*
X241629Y922456D01*
X241696Y922535D01*
X241767Y922610D01*
X241776Y922628D01*
X241789Y922643D01*
X241827Y922739D01*
X241871Y922833D01*
X241873Y922853D01*
X241881Y922871D01*
X241899Y923038D01*
X241899Y923801D01*
X242662Y923801D01*
X242682Y923804D01*
X242701Y923802D01*
X242803Y923824D01*
X242905Y923841D01*
X242922Y923850D01*
X242942Y923854D01*
X243031Y923907D01*
X243122Y923956D01*
X243136Y923970D01*
X243153Y923980D01*
X243220Y924059D01*
X243291Y924134D01*
X243300Y924152D01*
X243313Y924167D01*
X243352Y924263D01*
X243395Y924357D01*
X243397Y924377D01*
X243405Y924395D01*
X243423Y924562D01*
X243423Y932945D01*
X249405Y932945D01*
X251171Y932593D01*
X252836Y931904D01*
X254334Y930903D01*
X255607Y929630D01*
X256608Y928132D01*
X257297Y926467D01*
X257552Y925185D01*
X257594Y925073D01*
X257636Y924960D01*
X257638Y924957D01*
X257639Y924954D01*
X257715Y924861D01*
X257789Y924768D01*
X257792Y924766D01*
X257794Y924764D01*
X257894Y924700D01*
X257996Y924635D01*
X257999Y924634D01*
X258002Y924632D01*
X258118Y924604D01*
X258235Y924575D01*
X258238Y924575D01*
X258241Y924574D01*
X258361Y924584D01*
X258480Y924594D01*
X258483Y924595D01*
X258486Y924595D01*
X258598Y924644D01*
X258706Y924690D01*
X258709Y924692D01*
X258712Y924693D01*
X258720Y924701D01*
X258837Y924795D01*
X260129Y926087D01*
X303136Y926087D01*
X303251Y926106D01*
X303367Y926123D01*
X303373Y926125D01*
X303379Y926126D01*
X303481Y926181D01*
X303586Y926234D01*
X303591Y926239D01*
X303596Y926242D01*
X303676Y926326D01*
X303759Y926410D01*
X303762Y926416D01*
X303766Y926420D01*
X303773Y926437D01*
X303839Y926557D01*
X304605Y928405D01*
X306891Y930691D01*
X309879Y931929D01*
X326321Y931929D01*
X329309Y930691D01*
X331595Y928405D01*
X332833Y925417D01*
X332833Y922183D01*
X331595Y919195D01*
X329309Y916909D01*
X326321Y915671D01*
X309879Y915671D01*
X306891Y916909D01*
X304605Y919195D01*
X303839Y921043D01*
X303777Y921143D01*
X303718Y921243D01*
X303713Y921247D01*
X303710Y921252D01*
X303619Y921327D01*
X303531Y921403D01*
X303525Y921405D01*
X303520Y921409D01*
X303412Y921451D01*
X303303Y921495D01*
X303295Y921496D01*
X303291Y921497D01*
X303272Y921498D01*
X303136Y921513D01*
X262339Y921513D01*
X262249Y921499D01*
X262158Y921491D01*
X262128Y921479D01*
X262096Y921474D01*
X262015Y921431D01*
X261932Y921395D01*
X261899Y921369D01*
X261879Y921358D01*
X261857Y921335D01*
X261801Y921290D01*
X252890Y912379D01*
X148267Y912379D01*
X148171Y912364D01*
X148074Y912354D01*
X148050Y912344D01*
X148024Y912340D01*
X147938Y912294D01*
X147849Y912254D01*
X147830Y912237D01*
X147807Y912224D01*
X147740Y912154D01*
X147668Y912088D01*
X147655Y912065D01*
X147637Y912046D01*
X147596Y911958D01*
X147549Y911872D01*
X147545Y911847D01*
X147534Y911823D01*
X147523Y911726D01*
X147506Y911630D01*
X147509Y911604D01*
X147507Y911579D01*
X147527Y911483D01*
X147541Y911387D01*
X147553Y911364D01*
X147559Y911338D01*
X147609Y911255D01*
X147653Y911168D01*
X147672Y911149D01*
X147685Y911127D01*
X147759Y911064D01*
X147829Y910996D01*
X147857Y910980D01*
X147872Y910967D01*
X147903Y910955D01*
X147975Y910915D01*
X149677Y910210D01*
X152750Y907137D01*
X154413Y903123D01*
X154413Y898777D01*
X152992Y895347D01*
X152965Y895233D01*
X152937Y895120D01*
X152937Y895113D01*
X152936Y895107D01*
X152947Y894991D01*
X152956Y894874D01*
X152958Y894869D01*
X152959Y894862D01*
X153007Y894755D01*
X153052Y894648D01*
X153057Y894642D01*
X153059Y894638D01*
X153071Y894624D01*
X153157Y894517D01*
X226274Y821400D01*
X226348Y821347D01*
X226418Y821287D01*
X226448Y821275D01*
X226474Y821256D01*
X226561Y821229D01*
X226646Y821195D01*
X226687Y821191D01*
X226709Y821184D01*
X226741Y821185D01*
X226813Y821177D01*
X242175Y821177D01*
X242246Y821188D01*
X242318Y821190D01*
X242367Y821208D01*
X242418Y821216D01*
X242481Y821250D01*
X242549Y821275D01*
X242589Y821307D01*
X242635Y821332D01*
X242685Y821384D01*
X242741Y821428D01*
X242769Y821472D01*
X242805Y821510D01*
X242835Y821575D01*
X242874Y821635D01*
X242886Y821686D01*
X242908Y821733D01*
X242916Y821804D01*
X242934Y821874D01*
X242930Y821926D01*
X242935Y821977D01*
X242920Y822048D01*
X242915Y822119D01*
X242894Y822167D01*
X242883Y822218D01*
X242846Y822279D01*
X242818Y822345D01*
X242774Y822401D01*
X242757Y822429D01*
X242739Y822444D01*
X242714Y822476D01*
X239293Y825896D01*
X239293Y834104D01*
X245096Y839907D01*
X253304Y839907D01*
X259107Y834104D01*
X259107Y825896D01*
X253304Y820093D01*
X249265Y820093D01*
X249195Y820082D01*
X249123Y820080D01*
X249074Y820062D01*
X249023Y820054D01*
X248959Y820020D01*
X248892Y819995D01*
X248851Y819963D01*
X248805Y819938D01*
X248756Y819886D01*
X248700Y819842D01*
X248672Y819798D01*
X248636Y819760D01*
X248606Y819695D01*
X248567Y819635D01*
X248554Y819584D01*
X248532Y819537D01*
X248524Y819466D01*
X248507Y819396D01*
X248511Y819344D01*
X248505Y819293D01*
X248520Y819222D01*
X248526Y819151D01*
X248546Y819103D01*
X248557Y819052D01*
X248594Y818991D01*
X248622Y818925D01*
X248667Y818869D01*
X248684Y818841D01*
X248701Y818826D01*
X248727Y818794D01*
X265011Y802510D01*
X265085Y802457D01*
X265155Y802397D01*
X265185Y802385D01*
X265211Y802366D01*
X265298Y802339D01*
X265383Y802305D01*
X265424Y802301D01*
X265446Y802294D01*
X265478Y802295D01*
X265549Y802287D01*
X340132Y802287D01*
X340152Y802290D01*
X340171Y802288D01*
X340273Y802310D01*
X340375Y802326D01*
X340392Y802336D01*
X340412Y802340D01*
X340501Y802393D01*
X340592Y802442D01*
X340606Y802456D01*
X340623Y802466D01*
X340690Y802545D01*
X340762Y802620D01*
X340770Y802638D01*
X340783Y802653D01*
X340822Y802749D01*
X340865Y802843D01*
X340867Y802863D01*
X340875Y802881D01*
X340893Y803048D01*
X340893Y804104D01*
X346696Y809907D01*
X354904Y809907D01*
X360707Y804104D01*
X360707Y795896D01*
X354904Y790093D01*
X346696Y790093D01*
X340893Y795896D01*
X340893Y796952D01*
X340890Y796972D01*
X340892Y796991D01*
X340870Y797093D01*
X340854Y797195D01*
X340844Y797212D01*
X340840Y797232D01*
X340787Y797321D01*
X340738Y797412D01*
X340724Y797426D01*
X340714Y797443D01*
X340635Y797510D01*
X340560Y797582D01*
X340542Y797590D01*
X340527Y797603D01*
X340431Y797642D01*
X340337Y797685D01*
X340317Y797687D01*
X340299Y797695D01*
X340132Y797713D01*
X263340Y797713D01*
X260406Y800647D01*
X260348Y800689D01*
X260296Y800738D01*
X260249Y800760D01*
X260207Y800790D01*
X260138Y800811D01*
X260073Y800842D01*
X260021Y800847D01*
X259971Y800863D01*
X259900Y800861D01*
X259829Y800869D01*
X259778Y800858D01*
X259726Y800856D01*
X259658Y800832D01*
X259588Y800816D01*
X259543Y800790D01*
X259495Y800772D01*
X259439Y800727D01*
X259377Y800690D01*
X259343Y800651D01*
X259303Y800618D01*
X259264Y800558D01*
X259217Y800503D01*
X259198Y800455D01*
X259170Y800411D01*
X259152Y800342D01*
X259125Y800275D01*
X259117Y800204D01*
X259109Y800173D01*
X259111Y800149D01*
X259107Y800108D01*
X259107Y795896D01*
X253304Y790093D01*
X245096Y790093D01*
X239293Y795896D01*
X239293Y804104D01*
X245096Y809907D01*
X249308Y809907D01*
X249379Y809918D01*
X249451Y809920D01*
X249500Y809938D01*
X249551Y809946D01*
X249615Y809980D01*
X249682Y810005D01*
X249723Y810037D01*
X249769Y810062D01*
X249818Y810114D01*
X249874Y810158D01*
X249902Y810202D01*
X249938Y810240D01*
X249968Y810305D01*
X250007Y810365D01*
X250020Y810416D01*
X250042Y810463D01*
X250049Y810534D01*
X250067Y810604D01*
X250063Y810656D01*
X250069Y810707D01*
X250053Y810778D01*
X250048Y810849D01*
X250027Y810897D01*
X250016Y810948D01*
X249980Y811009D01*
X249952Y811075D01*
X249907Y811131D01*
X249890Y811159D01*
X249872Y811174D01*
X249847Y811206D01*
X244673Y816380D01*
X244599Y816433D01*
X244529Y816493D01*
X244499Y816505D01*
X244473Y816524D01*
X244386Y816551D01*
X244301Y816585D01*
X244260Y816589D01*
X244238Y816596D01*
X244206Y816595D01*
X244134Y816603D01*
X229430Y816603D01*
X229360Y816592D01*
X229288Y816590D01*
X229239Y816572D01*
X229188Y816564D01*
X229124Y816530D01*
X229057Y816505D01*
X229016Y816473D01*
X228970Y816448D01*
X228921Y816396D01*
X228865Y816352D01*
X228837Y816308D01*
X228801Y816270D01*
X228771Y816205D01*
X228732Y816145D01*
X228719Y816094D01*
X228697Y816047D01*
X228689Y815976D01*
X228672Y815906D01*
X228676Y815854D01*
X228670Y815803D01*
X228685Y815732D01*
X228691Y815661D01*
X228711Y815613D01*
X228722Y815562D01*
X228759Y815501D01*
X228787Y815435D01*
X228832Y815379D01*
X228849Y815351D01*
X228866Y815336D01*
X228892Y815304D01*
X230829Y813367D01*
X230829Y806633D01*
X226067Y801871D01*
X225748Y801871D01*
X225728Y801868D01*
X225709Y801870D01*
X225607Y801848D01*
X225505Y801832D01*
X225488Y801822D01*
X225468Y801818D01*
X225379Y801765D01*
X225288Y801716D01*
X225274Y801702D01*
X225257Y801692D01*
X225190Y801613D01*
X225118Y801538D01*
X225110Y801520D01*
X225097Y801505D01*
X225058Y801409D01*
X225015Y801315D01*
X225013Y801295D01*
X225005Y801277D01*
X224987Y801110D01*
X224987Y798563D01*
X225001Y798472D01*
X225009Y798382D01*
X225021Y798352D01*
X225026Y798320D01*
X225069Y798239D01*
X225105Y798155D01*
X225131Y798123D01*
X225142Y798102D01*
X225165Y798080D01*
X225210Y798024D01*
X240724Y782510D01*
X240798Y782457D01*
X240868Y782397D01*
X240898Y782385D01*
X240924Y782366D01*
X241011Y782339D01*
X241096Y782305D01*
X241137Y782301D01*
X241159Y782294D01*
X241191Y782295D01*
X241263Y782287D01*
X366952Y782287D01*
X366972Y782290D01*
X366991Y782288D01*
X367093Y782310D01*
X367195Y782326D01*
X367212Y782336D01*
X367232Y782340D01*
X367321Y782393D01*
X367412Y782442D01*
X367426Y782456D01*
X367443Y782466D01*
X367510Y782545D01*
X367582Y782620D01*
X367590Y782638D01*
X367603Y782653D01*
X367642Y782749D01*
X367685Y782843D01*
X367687Y782863D01*
X367695Y782881D01*
X367713Y783048D01*
X367713Y809537D01*
X367699Y809628D01*
X367691Y809718D01*
X367679Y809748D01*
X367674Y809780D01*
X367631Y809861D01*
X367595Y809945D01*
X367569Y809977D01*
X367558Y809998D01*
X367535Y810020D01*
X367490Y810076D01*
X356726Y820840D01*
X356710Y820851D01*
X356698Y820867D01*
X356611Y820923D01*
X356527Y820983D01*
X356508Y820989D01*
X356491Y821000D01*
X356390Y821025D01*
X356292Y821056D01*
X356272Y821055D01*
X356252Y821060D01*
X356149Y821052D01*
X356046Y821049D01*
X356027Y821042D01*
X356007Y821041D01*
X355912Y821000D01*
X355815Y820965D01*
X355799Y820952D01*
X355781Y820944D01*
X355650Y820840D01*
X354904Y820093D01*
X346696Y820093D01*
X340893Y825896D01*
X340893Y834104D01*
X346696Y839907D01*
X354904Y839907D01*
X360707Y834104D01*
X360707Y825896D01*
X359960Y825150D01*
X359949Y825134D01*
X359933Y825122D01*
X359877Y825034D01*
X359817Y824950D01*
X359811Y824931D01*
X359800Y824915D01*
X359775Y824814D01*
X359744Y824715D01*
X359745Y824695D01*
X359740Y824676D01*
X359748Y824573D01*
X359751Y824469D01*
X359758Y824451D01*
X359759Y824431D01*
X359800Y824336D01*
X359835Y824238D01*
X359848Y824223D01*
X359856Y824205D01*
X359960Y824074D01*
X369462Y814572D01*
X369520Y814530D01*
X369572Y814481D01*
X369619Y814459D01*
X369661Y814429D01*
X369730Y814408D01*
X369795Y814377D01*
X369847Y814372D01*
X369897Y814356D01*
X369968Y814358D01*
X370039Y814350D01*
X370090Y814361D01*
X370142Y814363D01*
X370210Y814387D01*
X370280Y814402D01*
X370325Y814429D01*
X370373Y814447D01*
X370429Y814492D01*
X370491Y814529D01*
X370525Y814568D01*
X370565Y814601D01*
X370604Y814661D01*
X370651Y814716D01*
X370670Y814764D01*
X370698Y814808D01*
X370716Y814877D01*
X370743Y814944D01*
X370751Y815015D01*
X370759Y815046D01*
X370757Y815070D01*
X370761Y815110D01*
X370761Y851576D01*
X370747Y851666D01*
X370739Y851757D01*
X370727Y851787D01*
X370722Y851819D01*
X370679Y851900D01*
X370643Y851984D01*
X370617Y852016D01*
X370606Y852036D01*
X370583Y852059D01*
X370538Y852115D01*
X362006Y860647D01*
X361948Y860689D01*
X361896Y860738D01*
X361849Y860760D01*
X361807Y860790D01*
X361738Y860811D01*
X361673Y860842D01*
X361621Y860847D01*
X361571Y860863D01*
X361500Y860861D01*
X361429Y860869D01*
X361378Y860858D01*
X361326Y860856D01*
X361258Y860832D01*
X361188Y860816D01*
X361143Y860790D01*
X361095Y860772D01*
X361039Y860727D01*
X360977Y860690D01*
X360943Y860651D01*
X360903Y860618D01*
X360864Y860558D01*
X360817Y860503D01*
X360798Y860455D01*
X360770Y860411D01*
X360752Y860342D01*
X360725Y860275D01*
X360717Y860204D01*
X360709Y860173D01*
X360711Y860149D01*
X360707Y860108D01*
X360707Y855896D01*
X354904Y850093D01*
X346696Y850093D01*
X340893Y855896D01*
X340893Y864104D01*
X346696Y869907D01*
X354904Y869907D01*
X356414Y868396D01*
X356472Y868355D01*
X356524Y868305D01*
X356571Y868283D01*
X356613Y868253D01*
X356682Y868232D01*
X356747Y868202D01*
X356799Y868196D01*
X356849Y868181D01*
X356920Y868182D01*
X356991Y868175D01*
X357042Y868186D01*
X357094Y868187D01*
X357162Y868212D01*
X357232Y868227D01*
X357277Y868254D01*
X357325Y868271D01*
X357381Y868316D01*
X357443Y868353D01*
X357477Y868393D01*
X357517Y868425D01*
X357556Y868485D01*
X357603Y868540D01*
X357622Y868588D01*
X357650Y868632D01*
X357668Y868701D01*
X357695Y868768D01*
X357703Y868839D01*
X357711Y868871D01*
X357709Y868894D01*
X357713Y868935D01*
X357713Y906038D01*
X357699Y906128D01*
X357691Y906219D01*
X357679Y906248D01*
X357674Y906280D01*
X357631Y906361D01*
X357595Y906445D01*
X357569Y906477D01*
X357558Y906498D01*
X357535Y906520D01*
X357490Y906576D01*
X323218Y940848D01*
X323144Y940901D01*
X323074Y940961D01*
X323044Y940973D01*
X323018Y940992D01*
X322931Y941019D01*
X322846Y941053D01*
X322805Y941057D01*
X322783Y941064D01*
X322751Y941063D01*
X322680Y941071D01*
X309879Y941071D01*
X306891Y942309D01*
X304605Y944595D01*
X303367Y947583D01*
X303367Y950817D01*
X304605Y953805D01*
X306891Y956091D01*
X309879Y957329D01*
X316456Y957329D01*
X316546Y957343D01*
X316637Y957351D01*
X316667Y957363D01*
X316699Y957368D01*
X316779Y957411D01*
X316863Y957447D01*
X316895Y957473D01*
X316916Y957484D01*
X316938Y957507D01*
X316994Y957552D01*
X323598Y964156D01*
X323640Y964214D01*
X323689Y964266D01*
X323711Y964313D01*
X323742Y964355D01*
X323763Y964424D01*
X323793Y964489D01*
X323799Y964541D01*
X323814Y964591D01*
X323812Y964662D01*
X323820Y964733D01*
X323809Y964784D01*
X323808Y964836D01*
X323783Y964904D01*
X323768Y964974D01*
X323741Y965018D01*
X323723Y965067D01*
X323678Y965123D01*
X323642Y965185D01*
X323602Y965219D01*
X323570Y965259D01*
X323509Y965298D01*
X323455Y965345D01*
X323406Y965364D01*
X323363Y965392D01*
X323293Y965410D01*
X323227Y965437D01*
X323155Y965445D01*
X323124Y965453D01*
X323101Y965451D01*
X323060Y965455D01*
X319623Y965455D01*
X319623Y973838D01*
X319620Y973858D01*
X319622Y973877D01*
X319600Y973979D01*
X319583Y974081D01*
X319574Y974098D01*
X319570Y974118D01*
X319517Y974207D01*
X319468Y974298D01*
X319454Y974312D01*
X319444Y974329D01*
X319365Y974396D01*
X319290Y974467D01*
X319272Y974476D01*
X319257Y974489D01*
X319161Y974527D01*
X319067Y974571D01*
X319047Y974573D01*
X319029Y974581D01*
X318862Y974599D01*
X318099Y974599D01*
X318099Y974601D01*
X318862Y974601D01*
X318882Y974604D01*
X318901Y974602D01*
X319003Y974624D01*
X319105Y974641D01*
X319122Y974650D01*
X319142Y974654D01*
X319231Y974707D01*
X319322Y974756D01*
X319336Y974770D01*
X319353Y974780D01*
X319420Y974859D01*
X319491Y974934D01*
X319500Y974952D01*
X319513Y974967D01*
X319552Y975063D01*
X319595Y975157D01*
X319597Y975177D01*
X319605Y975195D01*
X319623Y975362D01*
X319623Y983745D01*
X325605Y983745D01*
X327371Y983393D01*
X329036Y982704D01*
X330123Y981977D01*
X330232Y981928D01*
X330341Y981877D01*
X330344Y981877D01*
X330347Y981876D01*
X330467Y981863D01*
X330585Y981850D01*
X330589Y981851D01*
X330592Y981850D01*
X330708Y981877D01*
X330826Y981902D01*
X330829Y981904D01*
X330832Y981905D01*
X330934Y981967D01*
X331037Y982029D01*
X331039Y982031D01*
X331042Y982033D01*
X331119Y982124D01*
X331197Y982215D01*
X331198Y982218D01*
X331200Y982221D01*
X331244Y982331D01*
X331289Y982444D01*
X331289Y982447D01*
X331290Y982450D01*
X331291Y982460D01*
X331307Y982610D01*
X331307Y991990D01*
X331288Y992107D01*
X331269Y992227D01*
X331268Y992229D01*
X331268Y992232D01*
X331212Y992337D01*
X331156Y992445D01*
X331154Y992447D01*
X331152Y992450D01*
X331066Y992532D01*
X330979Y992616D01*
X330976Y992617D01*
X330974Y992619D01*
X330866Y992669D01*
X330757Y992721D01*
X330754Y992722D01*
X330751Y992723D01*
X330633Y992736D01*
X330513Y992750D01*
X330510Y992750D01*
X330507Y992750D01*
X330390Y992725D01*
X330272Y992700D01*
X330269Y992698D01*
X330266Y992698D01*
X330257Y992692D01*
X330123Y992623D01*
X329036Y991896D01*
X327371Y991207D01*
X325605Y990855D01*
X319623Y990855D01*
X319623Y999238D01*
X319620Y999258D01*
X319622Y999277D01*
X319600Y999379D01*
X319583Y999481D01*
X319574Y999498D01*
X319570Y999518D01*
X319517Y999607D01*
X319468Y999698D01*
X319454Y999712D01*
X319444Y999729D01*
X319365Y999796D01*
X319290Y999867D01*
X319272Y999876D01*
X319257Y999889D01*
X319161Y999927D01*
X319067Y999971D01*
X319047Y999973D01*
X319029Y999981D01*
X318862Y999999D01*
X318099Y999999D01*
X318099Y1000001D01*
X318862Y1000001D01*
X318882Y1000004D01*
X318901Y1000002D01*
X319003Y1000024D01*
X319105Y1000041D01*
X319122Y1000050D01*
X319142Y1000054D01*
X319231Y1000107D01*
X319322Y1000156D01*
X319336Y1000170D01*
X319353Y1000180D01*
X319420Y1000259D01*
X319491Y1000334D01*
X319500Y1000352D01*
X319513Y1000367D01*
X319552Y1000463D01*
X319595Y1000557D01*
X319597Y1000577D01*
X319605Y1000595D01*
X319623Y1000762D01*
X319623Y1009145D01*
X325605Y1009145D01*
X327371Y1008793D01*
X329036Y1008104D01*
X330534Y1007103D01*
X331663Y1005974D01*
X331679Y1005962D01*
X331692Y1005946D01*
X331779Y1005890D01*
X331863Y1005830D01*
X331882Y1005824D01*
X331899Y1005813D01*
X331999Y1005788D01*
X332098Y1005758D01*
X332118Y1005758D01*
X332137Y1005753D01*
X332240Y1005761D01*
X332344Y1005764D01*
X332363Y1005771D01*
X332382Y1005772D01*
X332478Y1005813D01*
X332575Y1005848D01*
X332590Y1005861D01*
X332609Y1005869D01*
X332740Y1005974D01*
X332870Y1006104D01*
X389053Y1062287D01*
X416541Y1062287D01*
X416631Y1062301D01*
X416722Y1062309D01*
X416752Y1062321D01*
X416784Y1062326D01*
X416865Y1062369D01*
X416948Y1062405D01*
X416981Y1062431D01*
X417001Y1062442D01*
X417023Y1062465D01*
X417079Y1062510D01*
X423046Y1068477D01*
X511884Y1068477D01*
X511974Y1068491D01*
X512065Y1068499D01*
X512095Y1068511D01*
X512127Y1068516D01*
X512207Y1068559D01*
X512291Y1068595D01*
X512323Y1068621D01*
X512344Y1068632D01*
X512366Y1068655D01*
X512422Y1068700D01*
X516994Y1073272D01*
X517036Y1073330D01*
X517085Y1073382D01*
X517107Y1073429D01*
X517138Y1073471D01*
X517159Y1073540D01*
X517189Y1073605D01*
X517195Y1073657D01*
X517210Y1073707D01*
X517208Y1073778D01*
X517216Y1073849D01*
X517205Y1073900D01*
X517204Y1073952D01*
X517179Y1074020D01*
X517164Y1074090D01*
X517137Y1074135D01*
X517119Y1074183D01*
X517074Y1074239D01*
X517038Y1074301D01*
X516998Y1074335D01*
X516966Y1074375D01*
X516905Y1074414D01*
X516851Y1074461D01*
X516802Y1074480D01*
X516759Y1074508D01*
X516689Y1074526D01*
X516623Y1074553D01*
X516551Y1074561D01*
X516520Y1074569D01*
X516497Y1074567D01*
X516456Y1074571D01*
X502259Y1074571D01*
X499271Y1075809D01*
X496985Y1078095D01*
X495747Y1081083D01*
X495747Y1084317D01*
X496985Y1087305D01*
X499271Y1089591D01*
X502259Y1090829D01*
X518701Y1090829D01*
X521689Y1089591D01*
X522388Y1088892D01*
X522446Y1088850D01*
X522498Y1088801D01*
X522545Y1088779D01*
X522587Y1088748D01*
X522656Y1088727D01*
X522721Y1088697D01*
X522773Y1088691D01*
X522823Y1088676D01*
X522894Y1088678D01*
X522965Y1088670D01*
X523016Y1088681D01*
X523068Y1088682D01*
X523136Y1088707D01*
X523206Y1088722D01*
X523251Y1088749D01*
X523299Y1088767D01*
X523355Y1088812D01*
X523417Y1088849D01*
X523451Y1088888D01*
X523491Y1088921D01*
X523530Y1088981D01*
X523577Y1089035D01*
X523596Y1089084D01*
X523624Y1089128D01*
X523642Y1089197D01*
X523669Y1089264D01*
X523677Y1089335D01*
X523685Y1089366D01*
X523683Y1089389D01*
X523687Y1089430D01*
X523687Y1093751D01*
X525250Y1095314D01*
X558287Y1128351D01*
X558299Y1128367D01*
X558314Y1128379D01*
X558370Y1128467D01*
X558430Y1128551D01*
X558436Y1128570D01*
X558447Y1128586D01*
X558472Y1128687D01*
X558503Y1128786D01*
X558502Y1128806D01*
X558507Y1128825D01*
X558499Y1128928D01*
X558496Y1129032D01*
X558490Y1129050D01*
X558488Y1129070D01*
X558448Y1129165D01*
X558412Y1129263D01*
X558399Y1129278D01*
X558392Y1129296D01*
X558287Y1129427D01*
X558061Y1129653D01*
X558061Y1136387D01*
X558287Y1136613D01*
X558299Y1136629D01*
X558314Y1136641D01*
X558370Y1136728D01*
X558430Y1136812D01*
X558436Y1136831D01*
X558447Y1136848D01*
X558472Y1136949D01*
X558503Y1137047D01*
X558502Y1137067D01*
X558507Y1137087D01*
X558499Y1137190D01*
X558496Y1137293D01*
X558490Y1137312D01*
X558488Y1137332D01*
X558448Y1137427D01*
X558412Y1137524D01*
X558399Y1137540D01*
X558392Y1137558D01*
X558287Y1137689D01*
X449276Y1246700D01*
X447713Y1248263D01*
X447713Y1366838D01*
X447694Y1366953D01*
X447677Y1367069D01*
X447675Y1367074D01*
X447674Y1367081D01*
X447619Y1367183D01*
X447566Y1367288D01*
X447561Y1367292D01*
X447558Y1367298D01*
X447474Y1367378D01*
X447390Y1367460D01*
X447384Y1367464D01*
X447380Y1367467D01*
X447363Y1367475D01*
X447243Y1367541D01*
X443813Y1368962D01*
X440740Y1372035D01*
X439077Y1376049D01*
X439077Y1380395D01*
X440740Y1384409D01*
X443813Y1387482D01*
X447827Y1389145D01*
X452173Y1389145D01*
X456187Y1387482D01*
X459260Y1384409D01*
X460923Y1380395D01*
X460923Y1376049D01*
X459260Y1372035D01*
X456187Y1368962D01*
X452757Y1367541D01*
X452657Y1367480D01*
X452557Y1367420D01*
X452553Y1367415D01*
X452548Y1367412D01*
X452473Y1367322D01*
X452397Y1367233D01*
X452395Y1367227D01*
X452391Y1367222D01*
X452349Y1367114D01*
X452305Y1367005D01*
X452304Y1366997D01*
X452303Y1366992D01*
X452302Y1366974D01*
X452287Y1366838D01*
X452287Y1250472D01*
X452301Y1250382D01*
X452309Y1250291D01*
X452321Y1250262D01*
X452326Y1250230D01*
X452369Y1250149D01*
X452405Y1250065D01*
X452431Y1250033D01*
X452442Y1250012D01*
X452465Y1249990D01*
X452510Y1249934D01*
X561521Y1140923D01*
X561537Y1140911D01*
X561549Y1140896D01*
X561637Y1140840D01*
X561721Y1140780D01*
X561740Y1140774D01*
X561756Y1140763D01*
X561857Y1140738D01*
X561956Y1140707D01*
X561976Y1140708D01*
X561995Y1140703D01*
X562098Y1140711D01*
X562202Y1140714D01*
X562220Y1140720D01*
X562240Y1140722D01*
X562335Y1140762D01*
X562433Y1140798D01*
X562448Y1140811D01*
X562466Y1140818D01*
X562597Y1140923D01*
X562823Y1141149D01*
X569557Y1141149D01*
X574319Y1136387D01*
X574319Y1129653D01*
X569557Y1124891D01*
X562823Y1124891D01*
X562597Y1125117D01*
X562581Y1125129D01*
X562569Y1125144D01*
X562482Y1125200D01*
X562398Y1125260D01*
X562379Y1125266D01*
X562362Y1125277D01*
X562261Y1125302D01*
X562163Y1125333D01*
X562143Y1125332D01*
X562123Y1125337D01*
X562020Y1125329D01*
X561917Y1125326D01*
X561898Y1125320D01*
X561878Y1125318D01*
X561783Y1125278D01*
X561686Y1125242D01*
X561670Y1125229D01*
X561652Y1125222D01*
X561521Y1125117D01*
X528484Y1092080D01*
X528431Y1092006D01*
X528371Y1091936D01*
X528359Y1091906D01*
X528340Y1091880D01*
X528313Y1091793D01*
X528279Y1091708D01*
X528275Y1091667D01*
X528268Y1091645D01*
X528269Y1091613D01*
X528261Y1091542D01*
X528261Y1078070D01*
X516919Y1066728D01*
X516877Y1066670D01*
X516827Y1066618D01*
X516805Y1066571D01*
X516775Y1066529D01*
X516754Y1066460D01*
X516724Y1066395D01*
X516718Y1066343D01*
X516703Y1066293D01*
X516705Y1066222D01*
X516697Y1066151D01*
X516708Y1066100D01*
X516709Y1066048D01*
X516734Y1065980D01*
X516749Y1065910D01*
X516776Y1065865D01*
X516793Y1065817D01*
X516838Y1065761D01*
X516875Y1065699D01*
X516915Y1065665D01*
X516947Y1065625D01*
X517007Y1065586D01*
X517062Y1065539D01*
X517110Y1065520D01*
X517154Y1065492D01*
X517224Y1065474D01*
X517290Y1065447D01*
X517361Y1065439D01*
X517393Y1065431D01*
X517416Y1065433D01*
X517457Y1065429D01*
X518701Y1065429D01*
X521689Y1064191D01*
X523975Y1061905D01*
X524741Y1060057D01*
X524803Y1059957D01*
X524862Y1059857D01*
X524867Y1059853D01*
X524870Y1059848D01*
X524961Y1059773D01*
X525049Y1059697D01*
X525055Y1059695D01*
X525060Y1059691D01*
X525168Y1059649D01*
X525277Y1059605D01*
X525285Y1059604D01*
X525289Y1059603D01*
X525308Y1059602D01*
X525444Y1059587D01*
X630487Y1059587D01*
X632050Y1058024D01*
X635034Y1055040D01*
X635050Y1055029D01*
X635062Y1055013D01*
X635149Y1054957D01*
X635233Y1054897D01*
X635252Y1054891D01*
X635269Y1054880D01*
X635370Y1054855D01*
X635468Y1054824D01*
X635488Y1054825D01*
X635508Y1054820D01*
X635611Y1054828D01*
X635714Y1054831D01*
X635733Y1054838D01*
X635753Y1054839D01*
X635848Y1054880D01*
X635945Y1054915D01*
X635961Y1054928D01*
X635979Y1054936D01*
X636110Y1055040D01*
X636856Y1055787D01*
X645064Y1055787D01*
X648540Y1052310D01*
X648598Y1052269D01*
X648650Y1052219D01*
X648697Y1052197D01*
X648739Y1052167D01*
X648808Y1052146D01*
X648873Y1052116D01*
X648925Y1052110D01*
X648975Y1052095D01*
X649046Y1052096D01*
X649117Y1052089D01*
X649168Y1052100D01*
X649220Y1052101D01*
X649288Y1052126D01*
X649358Y1052141D01*
X649403Y1052168D01*
X649451Y1052185D01*
X649507Y1052230D01*
X649569Y1052267D01*
X649603Y1052307D01*
X649643Y1052339D01*
X649682Y1052399D01*
X649729Y1052454D01*
X649748Y1052502D01*
X649776Y1052546D01*
X649794Y1052615D01*
X649821Y1052682D01*
X649829Y1052753D01*
X649837Y1052785D01*
X649835Y1052808D01*
X649839Y1052849D01*
X649839Y1073191D01*
X649828Y1073262D01*
X649826Y1073334D01*
X649808Y1073383D01*
X649800Y1073434D01*
X649766Y1073497D01*
X649741Y1073565D01*
X649709Y1073605D01*
X649684Y1073651D01*
X649632Y1073701D01*
X649588Y1073757D01*
X649544Y1073785D01*
X649506Y1073821D01*
X649441Y1073851D01*
X649381Y1073890D01*
X649330Y1073902D01*
X649283Y1073924D01*
X649212Y1073932D01*
X649142Y1073950D01*
X649090Y1073946D01*
X649039Y1073951D01*
X648968Y1073936D01*
X648897Y1073931D01*
X648849Y1073910D01*
X648798Y1073899D01*
X648737Y1073862D01*
X648671Y1073834D01*
X648615Y1073790D01*
X648587Y1073773D01*
X648572Y1073755D01*
X648540Y1073730D01*
X644104Y1069293D01*
X635896Y1069293D01*
X630093Y1075096D01*
X630093Y1083304D01*
X635896Y1089107D01*
X644104Y1089107D01*
X648540Y1084670D01*
X648598Y1084629D01*
X648650Y1084579D01*
X648697Y1084557D01*
X648739Y1084527D01*
X648808Y1084506D01*
X648873Y1084476D01*
X648925Y1084470D01*
X648975Y1084455D01*
X649046Y1084456D01*
X649117Y1084449D01*
X649168Y1084460D01*
X649220Y1084461D01*
X649288Y1084486D01*
X649358Y1084501D01*
X649403Y1084528D01*
X649451Y1084545D01*
X649507Y1084590D01*
X649569Y1084627D01*
X649603Y1084667D01*
X649643Y1084699D01*
X649682Y1084759D01*
X649729Y1084814D01*
X649748Y1084862D01*
X649776Y1084906D01*
X649794Y1084975D01*
X649821Y1085042D01*
X649829Y1085113D01*
X649837Y1085145D01*
X649835Y1085168D01*
X649839Y1085209D01*
X649839Y1174791D01*
X649828Y1174862D01*
X649826Y1174934D01*
X649808Y1174983D01*
X649800Y1175034D01*
X649766Y1175097D01*
X649741Y1175165D01*
X649709Y1175205D01*
X649684Y1175251D01*
X649632Y1175301D01*
X649588Y1175357D01*
X649544Y1175385D01*
X649506Y1175421D01*
X649441Y1175451D01*
X649381Y1175490D01*
X649330Y1175502D01*
X649283Y1175524D01*
X649212Y1175532D01*
X649142Y1175550D01*
X649090Y1175546D01*
X649039Y1175551D01*
X648968Y1175536D01*
X648897Y1175531D01*
X648849Y1175510D01*
X648798Y1175499D01*
X648737Y1175462D01*
X648671Y1175434D01*
X648615Y1175390D01*
X648587Y1175373D01*
X648572Y1175355D01*
X648540Y1175330D01*
X644104Y1170893D01*
X635896Y1170893D01*
X630093Y1176696D01*
X630093Y1184904D01*
X635896Y1190707D01*
X644104Y1190707D01*
X648540Y1186270D01*
X648598Y1186229D01*
X648650Y1186179D01*
X648697Y1186157D01*
X648739Y1186127D01*
X648808Y1186106D01*
X648873Y1186076D01*
X648925Y1186070D01*
X648975Y1186055D01*
X649046Y1186056D01*
X649117Y1186049D01*
X649168Y1186060D01*
X649220Y1186061D01*
X649288Y1186086D01*
X649358Y1186101D01*
X649403Y1186128D01*
X649451Y1186145D01*
X649507Y1186190D01*
X649569Y1186227D01*
X649603Y1186267D01*
X649643Y1186299D01*
X649682Y1186359D01*
X649729Y1186414D01*
X649748Y1186462D01*
X649776Y1186506D01*
X649794Y1186575D01*
X649821Y1186642D01*
X649829Y1186713D01*
X649837Y1186745D01*
X649835Y1186768D01*
X649839Y1186809D01*
X649839Y1419078D01*
X649836Y1419098D01*
X649838Y1419117D01*
X649816Y1419219D01*
X649800Y1419321D01*
X649790Y1419338D01*
X649786Y1419358D01*
X649733Y1419447D01*
X649684Y1419538D01*
X649670Y1419552D01*
X649660Y1419569D01*
X649581Y1419636D01*
X649506Y1419708D01*
X649488Y1419716D01*
X649473Y1419729D01*
X649377Y1419768D01*
X649283Y1419811D01*
X649263Y1419813D01*
X649245Y1419821D01*
X649078Y1419839D01*
X454473Y1419839D01*
X454470Y1419839D01*
X454466Y1419839D01*
X454347Y1419819D01*
X454231Y1419800D01*
X454227Y1419798D01*
X454223Y1419797D01*
X454118Y1419740D01*
X454013Y1419684D01*
X454011Y1419682D01*
X454007Y1419680D01*
X453926Y1419592D01*
X453844Y1419506D01*
X453842Y1419502D01*
X453840Y1419499D01*
X453791Y1419392D01*
X453740Y1419283D01*
X453740Y1419279D01*
X453738Y1419275D01*
X453726Y1419156D01*
X453713Y1419039D01*
X453714Y1419035D01*
X453714Y1419031D01*
X453740Y1418914D01*
X453766Y1418798D01*
X453768Y1418795D01*
X453768Y1418791D01*
X453831Y1418689D01*
X453892Y1418587D01*
X453895Y1418584D01*
X453897Y1418581D01*
X453988Y1418505D01*
X454079Y1418427D01*
X454082Y1418426D01*
X454085Y1418423D01*
X454238Y1418354D01*
X454583Y1418242D01*
X456257Y1417389D01*
X457778Y1416284D01*
X459106Y1414956D01*
X460211Y1413435D01*
X461064Y1411761D01*
X461645Y1409974D01*
X461846Y1408701D01*
X450762Y1408701D01*
X450742Y1408698D01*
X450723Y1408700D01*
X450621Y1408678D01*
X450519Y1408661D01*
X450502Y1408652D01*
X450482Y1408648D01*
X450393Y1408595D01*
X450302Y1408546D01*
X450288Y1408532D01*
X450271Y1408522D01*
X450204Y1408443D01*
X450133Y1408368D01*
X450124Y1408350D01*
X450111Y1408335D01*
X450073Y1408239D01*
X450029Y1408145D01*
X450027Y1408125D01*
X450019Y1408107D01*
X450001Y1407940D01*
X450001Y1407177D01*
X449999Y1407177D01*
X449999Y1407940D01*
X449996Y1407960D01*
X449998Y1407979D01*
X449976Y1408081D01*
X449959Y1408183D01*
X449950Y1408200D01*
X449946Y1408220D01*
X449893Y1408309D01*
X449844Y1408400D01*
X449830Y1408414D01*
X449820Y1408431D01*
X449741Y1408498D01*
X449666Y1408569D01*
X449648Y1408578D01*
X449633Y1408591D01*
X449537Y1408630D01*
X449443Y1408673D01*
X449423Y1408675D01*
X449405Y1408683D01*
X449238Y1408701D01*
X438154Y1408701D01*
X438355Y1409974D01*
X438936Y1411761D01*
X439789Y1413435D01*
X440894Y1414956D01*
X442222Y1416284D01*
X443743Y1417389D01*
X445417Y1418242D01*
X445762Y1418354D01*
X445765Y1418356D01*
X445769Y1418357D01*
X445874Y1418412D01*
X445980Y1418467D01*
X445983Y1418470D01*
X445987Y1418472D01*
X446068Y1418557D01*
X446152Y1418643D01*
X446153Y1418647D01*
X446156Y1418650D01*
X446205Y1418756D01*
X446257Y1418865D01*
X446258Y1418869D01*
X446260Y1418873D01*
X446273Y1418991D01*
X446287Y1419110D01*
X446286Y1419114D01*
X446287Y1419117D01*
X446261Y1419234D01*
X446237Y1419350D01*
X446235Y1419354D01*
X446234Y1419358D01*
X446173Y1419460D01*
X446113Y1419563D01*
X446110Y1419566D01*
X446108Y1419569D01*
X446018Y1419647D01*
X445928Y1419725D01*
X445924Y1419726D01*
X445921Y1419729D01*
X445811Y1419773D01*
X445701Y1419819D01*
X445697Y1419819D01*
X445693Y1419821D01*
X445527Y1419839D01*
X414473Y1419839D01*
X414470Y1419839D01*
X414466Y1419839D01*
X414347Y1419819D01*
X414231Y1419800D01*
X414227Y1419798D01*
X414223Y1419797D01*
X414118Y1419740D01*
X414013Y1419684D01*
X414011Y1419682D01*
X414007Y1419680D01*
X413926Y1419592D01*
X413844Y1419506D01*
X413842Y1419502D01*
X413840Y1419499D01*
X413791Y1419392D01*
X413740Y1419283D01*
X413740Y1419279D01*
X413738Y1419275D01*
X413726Y1419156D01*
X413713Y1419039D01*
X413714Y1419035D01*
X413714Y1419031D01*
X413740Y1418914D01*
X413766Y1418798D01*
X413768Y1418795D01*
X413768Y1418791D01*
X413831Y1418689D01*
X413892Y1418587D01*
X413895Y1418584D01*
X413897Y1418581D01*
X413988Y1418505D01*
X414079Y1418427D01*
X414082Y1418426D01*
X414085Y1418423D01*
X414238Y1418354D01*
X414583Y1418242D01*
X416257Y1417389D01*
X417778Y1416284D01*
X419106Y1414956D01*
X420211Y1413435D01*
X421064Y1411761D01*
X421645Y1409974D01*
X421846Y1408701D01*
X410762Y1408701D01*
X410742Y1408698D01*
X410723Y1408700D01*
X410621Y1408678D01*
X410519Y1408661D01*
X410502Y1408652D01*
X410482Y1408648D01*
X410393Y1408595D01*
X410302Y1408546D01*
X410288Y1408532D01*
X410271Y1408522D01*
X410204Y1408443D01*
X410133Y1408368D01*
X410124Y1408350D01*
X410111Y1408335D01*
X410073Y1408239D01*
X410029Y1408145D01*
X410027Y1408125D01*
X410019Y1408107D01*
X410001Y1407940D01*
X410001Y1407177D01*
X409999Y1407177D01*
X409999Y1407940D01*
X409996Y1407960D01*
X409998Y1407979D01*
X409976Y1408081D01*
X409959Y1408183D01*
X409950Y1408200D01*
X409946Y1408220D01*
X409893Y1408309D01*
X409844Y1408400D01*
X409830Y1408414D01*
X409820Y1408431D01*
X409741Y1408498D01*
X409666Y1408569D01*
X409648Y1408578D01*
X409633Y1408591D01*
X409537Y1408630D01*
X409443Y1408673D01*
X409423Y1408675D01*
X409405Y1408683D01*
X409238Y1408701D01*
X398154Y1408701D01*
X398355Y1409974D01*
X398936Y1411761D01*
X399789Y1413435D01*
X400894Y1414956D01*
X402222Y1416284D01*
X403743Y1417389D01*
X405417Y1418242D01*
X405762Y1418354D01*
X405765Y1418356D01*
X405769Y1418357D01*
X405874Y1418412D01*
X405980Y1418467D01*
X405983Y1418470D01*
X405987Y1418472D01*
X406068Y1418557D01*
X406152Y1418643D01*
X406153Y1418647D01*
X406156Y1418650D01*
X406205Y1418756D01*
X406257Y1418865D01*
X406258Y1418869D01*
X406260Y1418873D01*
X406273Y1418991D01*
X406287Y1419110D01*
X406286Y1419114D01*
X406287Y1419117D01*
X406261Y1419234D01*
X406237Y1419350D01*
X406235Y1419354D01*
X406234Y1419358D01*
X406173Y1419460D01*
X406113Y1419563D01*
X406110Y1419566D01*
X406108Y1419569D01*
X406018Y1419647D01*
X405928Y1419725D01*
X405924Y1419726D01*
X405921Y1419729D01*
X405811Y1419773D01*
X405701Y1419819D01*
X405697Y1419819D01*
X405693Y1419821D01*
X405527Y1419839D01*
X10922Y1419839D01*
X10902Y1419836D01*
X10883Y1419838D01*
X10781Y1419816D01*
X10679Y1419800D01*
X10662Y1419790D01*
X10642Y1419786D01*
X10553Y1419733D01*
X10462Y1419684D01*
X10448Y1419670D01*
X10431Y1419660D01*
X10364Y1419581D01*
X10292Y1419506D01*
X10284Y1419488D01*
X10271Y1419473D01*
X10232Y1419377D01*
X10189Y1419283D01*
X10187Y1419263D01*
X10179Y1419245D01*
X10161Y1419078D01*
X10161Y621572D01*
X10164Y621552D01*
X10162Y621533D01*
X10184Y621431D01*
X10200Y621329D01*
X10210Y621312D01*
X10214Y621292D01*
X10267Y621203D01*
X10316Y621112D01*
X10330Y621098D01*
X10340Y621081D01*
X10419Y621014D01*
X10494Y620942D01*
X10512Y620934D01*
X10527Y620921D01*
X10623Y620882D01*
X10717Y620839D01*
X10737Y620837D01*
X10755Y620829D01*
X10922Y620811D01*
X18512Y620811D01*
X18627Y620830D01*
G37*
G36*
X649098Y10164D02*
X649098Y10164D01*
X649117Y10162D01*
X649219Y10184D01*
X649321Y10200D01*
X649338Y10210D01*
X649358Y10214D01*
X649447Y10267D01*
X649538Y10316D01*
X649552Y10330D01*
X649569Y10340D01*
X649636Y10419D01*
X649708Y10494D01*
X649716Y10512D01*
X649729Y10527D01*
X649768Y10623D01*
X649811Y10717D01*
X649813Y10737D01*
X649821Y10755D01*
X649839Y10922D01*
X649839Y982984D01*
X649828Y983055D01*
X649826Y983127D01*
X649808Y983176D01*
X649800Y983227D01*
X649766Y983290D01*
X649741Y983358D01*
X649709Y983398D01*
X649684Y983444D01*
X649632Y983494D01*
X649588Y983550D01*
X649544Y983578D01*
X649506Y983614D01*
X649441Y983644D01*
X649381Y983683D01*
X649330Y983696D01*
X649283Y983717D01*
X649212Y983725D01*
X649142Y983743D01*
X649090Y983739D01*
X649039Y983745D01*
X648968Y983729D01*
X648897Y983724D01*
X648849Y983703D01*
X648798Y983692D01*
X648737Y983656D01*
X648671Y983627D01*
X648615Y983583D01*
X648587Y983566D01*
X648572Y983548D01*
X648540Y983523D01*
X646566Y981549D01*
X638237Y978099D01*
X629223Y978099D01*
X620894Y981549D01*
X614519Y987924D01*
X611069Y996253D01*
X611069Y1005267D01*
X614519Y1013596D01*
X620894Y1019971D01*
X629223Y1023421D01*
X638237Y1023421D01*
X646566Y1019971D01*
X648540Y1017997D01*
X648598Y1017956D01*
X648650Y1017906D01*
X648697Y1017884D01*
X648739Y1017854D01*
X648808Y1017833D01*
X648873Y1017803D01*
X648925Y1017797D01*
X648975Y1017781D01*
X649046Y1017783D01*
X649117Y1017775D01*
X649168Y1017786D01*
X649220Y1017788D01*
X649288Y1017812D01*
X649358Y1017828D01*
X649403Y1017854D01*
X649451Y1017872D01*
X649507Y1017917D01*
X649569Y1017954D01*
X649603Y1017993D01*
X649643Y1018026D01*
X649682Y1018086D01*
X649729Y1018141D01*
X649748Y1018189D01*
X649776Y1018233D01*
X649794Y1018302D01*
X649821Y1018369D01*
X649829Y1018440D01*
X649837Y1018471D01*
X649835Y1018495D01*
X649839Y1018536D01*
X649839Y1038911D01*
X649828Y1038982D01*
X649826Y1039054D01*
X649808Y1039103D01*
X649800Y1039154D01*
X649766Y1039217D01*
X649741Y1039285D01*
X649709Y1039325D01*
X649684Y1039371D01*
X649632Y1039421D01*
X649588Y1039477D01*
X649544Y1039505D01*
X649506Y1039541D01*
X649441Y1039571D01*
X649381Y1039610D01*
X649330Y1039622D01*
X649283Y1039644D01*
X649212Y1039652D01*
X649142Y1039670D01*
X649090Y1039666D01*
X649039Y1039671D01*
X648968Y1039656D01*
X648897Y1039651D01*
X648849Y1039630D01*
X648798Y1039619D01*
X648737Y1039582D01*
X648671Y1039554D01*
X648615Y1039510D01*
X648587Y1039493D01*
X648572Y1039475D01*
X648540Y1039450D01*
X645064Y1035973D01*
X636856Y1035973D01*
X631053Y1041776D01*
X631053Y1049984D01*
X631800Y1050730D01*
X631811Y1050746D01*
X631827Y1050759D01*
X631883Y1050846D01*
X631943Y1050930D01*
X631949Y1050949D01*
X631960Y1050965D01*
X631985Y1051066D01*
X632016Y1051165D01*
X632015Y1051185D01*
X632020Y1051204D01*
X632012Y1051307D01*
X632009Y1051411D01*
X632002Y1051429D01*
X632001Y1051449D01*
X631960Y1051544D01*
X631925Y1051642D01*
X631912Y1051657D01*
X631904Y1051676D01*
X631800Y1051806D01*
X628816Y1054790D01*
X628742Y1054843D01*
X628672Y1054903D01*
X628642Y1054915D01*
X628616Y1054934D01*
X628529Y1054961D01*
X628444Y1054995D01*
X628403Y1054999D01*
X628381Y1055006D01*
X628349Y1055005D01*
X628277Y1055013D01*
X546075Y1055013D01*
X546004Y1055002D01*
X545932Y1055000D01*
X545883Y1054982D01*
X545832Y1054974D01*
X545769Y1054940D01*
X545701Y1054915D01*
X545661Y1054883D01*
X545615Y1054858D01*
X545565Y1054806D01*
X545509Y1054762D01*
X545481Y1054718D01*
X545445Y1054680D01*
X545415Y1054615D01*
X545376Y1054555D01*
X545364Y1054504D01*
X545342Y1054457D01*
X545334Y1054386D01*
X545316Y1054316D01*
X545320Y1054264D01*
X545315Y1054213D01*
X545330Y1054142D01*
X545335Y1054071D01*
X545356Y1054023D01*
X545367Y1053972D01*
X545404Y1053911D01*
X545432Y1053845D01*
X545476Y1053789D01*
X545493Y1053761D01*
X545511Y1053746D01*
X545536Y1053714D01*
X549267Y1049984D01*
X549267Y1041776D01*
X543464Y1035973D01*
X542023Y1035973D01*
X541932Y1035959D01*
X541842Y1035951D01*
X541812Y1035939D01*
X541780Y1035934D01*
X541699Y1035891D01*
X541615Y1035855D01*
X541583Y1035829D01*
X541562Y1035818D01*
X541540Y1035795D01*
X541484Y1035750D01*
X410344Y904610D01*
X410291Y904536D01*
X410231Y904466D01*
X410219Y904436D01*
X410200Y904410D01*
X410173Y904323D01*
X410139Y904238D01*
X410135Y904197D01*
X410128Y904175D01*
X410129Y904143D01*
X410121Y904072D01*
X410121Y893272D01*
X409228Y892379D01*
X395772Y892379D01*
X394879Y893272D01*
X394879Y906728D01*
X395772Y907621D01*
X406572Y907621D01*
X406662Y907635D01*
X406753Y907643D01*
X406782Y907655D01*
X406814Y907660D01*
X406895Y907703D01*
X406979Y907739D01*
X407011Y907765D01*
X407032Y907776D01*
X407054Y907799D01*
X407110Y907844D01*
X534710Y1035444D01*
X534721Y1035460D01*
X534737Y1035472D01*
X534793Y1035560D01*
X534853Y1035643D01*
X534859Y1035662D01*
X534870Y1035679D01*
X534895Y1035780D01*
X534926Y1035878D01*
X534925Y1035898D01*
X534930Y1035918D01*
X534922Y1036021D01*
X534919Y1036124D01*
X534912Y1036143D01*
X534911Y1036163D01*
X534870Y1036258D01*
X534835Y1036355D01*
X534822Y1036371D01*
X534814Y1036389D01*
X534710Y1036520D01*
X529453Y1041776D01*
X529453Y1049984D01*
X533184Y1053714D01*
X533225Y1053772D01*
X533275Y1053824D01*
X533297Y1053871D01*
X533327Y1053913D01*
X533348Y1053982D01*
X533378Y1054047D01*
X533384Y1054099D01*
X533399Y1054149D01*
X533398Y1054220D01*
X533405Y1054291D01*
X533394Y1054342D01*
X533393Y1054394D01*
X533368Y1054462D01*
X533353Y1054532D01*
X533326Y1054577D01*
X533309Y1054625D01*
X533264Y1054681D01*
X533227Y1054743D01*
X533187Y1054777D01*
X533155Y1054817D01*
X533095Y1054856D01*
X533040Y1054903D01*
X532992Y1054922D01*
X532948Y1054950D01*
X532879Y1054968D01*
X532812Y1054995D01*
X532741Y1055003D01*
X532709Y1055011D01*
X532686Y1055009D01*
X532645Y1055013D01*
X525444Y1055013D01*
X525329Y1054994D01*
X525213Y1054977D01*
X525207Y1054975D01*
X525201Y1054974D01*
X525099Y1054919D01*
X524994Y1054866D01*
X524989Y1054861D01*
X524984Y1054858D01*
X524904Y1054774D01*
X524821Y1054690D01*
X524818Y1054684D01*
X524814Y1054680D01*
X524807Y1054663D01*
X524741Y1054543D01*
X523975Y1052695D01*
X521689Y1050409D01*
X518701Y1049171D01*
X502259Y1049171D01*
X499271Y1050409D01*
X496985Y1052695D01*
X495747Y1055683D01*
X495747Y1058917D01*
X496985Y1061905D01*
X497684Y1062604D01*
X497726Y1062662D01*
X497775Y1062714D01*
X497797Y1062761D01*
X497828Y1062803D01*
X497849Y1062872D01*
X497879Y1062937D01*
X497885Y1062989D01*
X497900Y1063039D01*
X497898Y1063110D01*
X497906Y1063181D01*
X497895Y1063232D01*
X497894Y1063284D01*
X497869Y1063352D01*
X497854Y1063422D01*
X497827Y1063467D01*
X497809Y1063515D01*
X497764Y1063571D01*
X497727Y1063633D01*
X497688Y1063667D01*
X497655Y1063707D01*
X497595Y1063746D01*
X497541Y1063793D01*
X497492Y1063812D01*
X497448Y1063840D01*
X497379Y1063858D01*
X497312Y1063885D01*
X497241Y1063893D01*
X497210Y1063901D01*
X497187Y1063899D01*
X497146Y1063903D01*
X447614Y1063903D01*
X447544Y1063892D01*
X447472Y1063890D01*
X447423Y1063872D01*
X447372Y1063864D01*
X447308Y1063830D01*
X447241Y1063805D01*
X447200Y1063773D01*
X447154Y1063748D01*
X447105Y1063696D01*
X447049Y1063652D01*
X447021Y1063608D01*
X446985Y1063570D01*
X446955Y1063505D01*
X446916Y1063445D01*
X446903Y1063394D01*
X446881Y1063347D01*
X446873Y1063276D01*
X446856Y1063206D01*
X446860Y1063154D01*
X446854Y1063103D01*
X446869Y1063032D01*
X446875Y1062961D01*
X446895Y1062913D01*
X446906Y1062862D01*
X446943Y1062801D01*
X446971Y1062735D01*
X447016Y1062679D01*
X447033Y1062651D01*
X447050Y1062636D01*
X447076Y1062604D01*
X447775Y1061905D01*
X449013Y1058917D01*
X449013Y1055683D01*
X447775Y1052695D01*
X445489Y1050409D01*
X442501Y1049171D01*
X426059Y1049171D01*
X423071Y1050409D01*
X420785Y1052695D01*
X419547Y1055683D01*
X419547Y1056952D01*
X419544Y1056972D01*
X419546Y1056991D01*
X419524Y1057093D01*
X419508Y1057195D01*
X419498Y1057212D01*
X419494Y1057232D01*
X419441Y1057321D01*
X419392Y1057412D01*
X419378Y1057426D01*
X419368Y1057443D01*
X419289Y1057510D01*
X419214Y1057582D01*
X419196Y1057590D01*
X419181Y1057603D01*
X419085Y1057642D01*
X418991Y1057685D01*
X418971Y1057687D01*
X418953Y1057695D01*
X418786Y1057713D01*
X411475Y1057713D01*
X411404Y1057702D01*
X411332Y1057700D01*
X411283Y1057682D01*
X411232Y1057674D01*
X411169Y1057640D01*
X411101Y1057615D01*
X411061Y1057583D01*
X411015Y1057558D01*
X410965Y1057506D01*
X410909Y1057462D01*
X410881Y1057418D01*
X410845Y1057380D01*
X410815Y1057315D01*
X410776Y1057255D01*
X410764Y1057204D01*
X410742Y1057157D01*
X410734Y1057086D01*
X410716Y1057016D01*
X410720Y1056964D01*
X410715Y1056913D01*
X410730Y1056842D01*
X410735Y1056771D01*
X410756Y1056723D01*
X410767Y1056672D01*
X410804Y1056611D01*
X410832Y1056545D01*
X410876Y1056489D01*
X410893Y1056461D01*
X410911Y1056446D01*
X410936Y1056414D01*
X414987Y1052364D01*
X414987Y1044156D01*
X409184Y1038353D01*
X400976Y1038353D01*
X395173Y1044156D01*
X395173Y1052364D01*
X399224Y1056414D01*
X399265Y1056472D01*
X399315Y1056524D01*
X399337Y1056571D01*
X399367Y1056613D01*
X399388Y1056682D01*
X399418Y1056747D01*
X399424Y1056799D01*
X399439Y1056849D01*
X399438Y1056920D01*
X399445Y1056991D01*
X399434Y1057042D01*
X399433Y1057094D01*
X399408Y1057162D01*
X399393Y1057232D01*
X399366Y1057277D01*
X399349Y1057325D01*
X399304Y1057381D01*
X399267Y1057443D01*
X399227Y1057477D01*
X399195Y1057517D01*
X399135Y1057556D01*
X399080Y1057603D01*
X399032Y1057622D01*
X398988Y1057650D01*
X398919Y1057668D01*
X398852Y1057695D01*
X398781Y1057703D01*
X398749Y1057711D01*
X398726Y1057709D01*
X398685Y1057713D01*
X391263Y1057713D01*
X391172Y1057699D01*
X391082Y1057691D01*
X391052Y1057679D01*
X391020Y1057674D01*
X390939Y1057631D01*
X390855Y1057595D01*
X390823Y1057569D01*
X390802Y1057558D01*
X390780Y1057535D01*
X390724Y1057490D01*
X336104Y1002870D01*
X336051Y1002796D01*
X335991Y1002726D01*
X335979Y1002696D01*
X335960Y1002670D01*
X335933Y1002583D01*
X335899Y1002498D01*
X335895Y1002457D01*
X335888Y1002435D01*
X335889Y1002403D01*
X335881Y1002331D01*
X335881Y969970D01*
X334318Y968408D01*
X324539Y958628D01*
X324497Y958570D01*
X324447Y958518D01*
X324425Y958471D01*
X324395Y958429D01*
X324374Y958360D01*
X324344Y958295D01*
X324338Y958243D01*
X324323Y958193D01*
X324325Y958122D01*
X324317Y958051D01*
X324328Y958000D01*
X324329Y957948D01*
X324354Y957880D01*
X324369Y957810D01*
X324396Y957765D01*
X324413Y957717D01*
X324458Y957661D01*
X324495Y957599D01*
X324535Y957565D01*
X324567Y957525D01*
X324627Y957486D01*
X324682Y957439D01*
X324730Y957420D01*
X324774Y957392D01*
X324844Y957374D01*
X324910Y957347D01*
X324981Y957339D01*
X325013Y957331D01*
X325036Y957333D01*
X325077Y957329D01*
X326321Y957329D01*
X329309Y956091D01*
X331595Y953805D01*
X332833Y950817D01*
X332833Y947583D01*
X331595Y944595D01*
X329305Y942305D01*
X329293Y942289D01*
X329278Y942277D01*
X329222Y942190D01*
X329162Y942106D01*
X329156Y942087D01*
X329145Y942070D01*
X329120Y941969D01*
X329089Y941871D01*
X329090Y941851D01*
X329085Y941831D01*
X329093Y941728D01*
X329096Y941625D01*
X329102Y941606D01*
X329104Y941586D01*
X329144Y941491D01*
X329180Y941394D01*
X329193Y941378D01*
X329200Y941360D01*
X329305Y941229D01*
X360724Y909810D01*
X362287Y908247D01*
X362287Y867149D01*
X362301Y867059D01*
X362309Y866968D01*
X362321Y866939D01*
X362326Y866907D01*
X362369Y866826D01*
X362405Y866742D01*
X362431Y866710D01*
X362442Y866689D01*
X362465Y866667D01*
X362510Y866611D01*
X375335Y853786D01*
X375335Y777790D01*
X372210Y774665D01*
X288215Y774665D01*
X288124Y774651D01*
X288034Y774643D01*
X288004Y774631D01*
X287972Y774626D01*
X287891Y774583D01*
X287807Y774547D01*
X287775Y774521D01*
X287754Y774510D01*
X287732Y774487D01*
X287676Y774442D01*
X147699Y634465D01*
X147672Y634428D01*
X147639Y634397D01*
X147601Y634329D01*
X147556Y634266D01*
X147542Y634222D01*
X147520Y634181D01*
X147506Y634105D01*
X147483Y634030D01*
X147484Y633985D01*
X147476Y633939D01*
X147488Y633862D01*
X147490Y633785D01*
X147505Y633741D01*
X147512Y633696D01*
X147547Y633627D01*
X147574Y633554D01*
X147603Y633518D01*
X147624Y633477D01*
X147679Y633422D01*
X147728Y633362D01*
X147766Y633337D01*
X147799Y633305D01*
X147919Y633239D01*
X147935Y633229D01*
X147940Y633227D01*
X147946Y633224D01*
X150758Y632059D01*
X154759Y628058D01*
X156925Y622829D01*
X156925Y621572D01*
X156928Y621552D01*
X156926Y621533D01*
X156948Y621431D01*
X156964Y621329D01*
X156974Y621312D01*
X156978Y621292D01*
X157031Y621203D01*
X157080Y621112D01*
X157094Y621098D01*
X157104Y621081D01*
X157183Y621014D01*
X157258Y620942D01*
X157276Y620934D01*
X157291Y620921D01*
X157387Y620882D01*
X157481Y620839D01*
X157501Y620837D01*
X157519Y620829D01*
X157686Y620811D01*
X202150Y620811D01*
X206124Y619165D01*
X209165Y616124D01*
X210811Y612150D01*
X210811Y607850D01*
X209165Y603876D01*
X206124Y600835D01*
X202150Y599189D01*
X10922Y599189D01*
X10902Y599186D01*
X10883Y599188D01*
X10781Y599166D01*
X10679Y599150D01*
X10662Y599140D01*
X10642Y599136D01*
X10553Y599083D01*
X10462Y599034D01*
X10448Y599020D01*
X10431Y599010D01*
X10364Y598931D01*
X10292Y598856D01*
X10284Y598838D01*
X10271Y598823D01*
X10232Y598727D01*
X10189Y598633D01*
X10187Y598613D01*
X10179Y598595D01*
X10161Y598428D01*
X10161Y521572D01*
X10164Y521552D01*
X10162Y521533D01*
X10184Y521431D01*
X10200Y521329D01*
X10210Y521312D01*
X10214Y521292D01*
X10267Y521203D01*
X10316Y521112D01*
X10330Y521098D01*
X10340Y521081D01*
X10419Y521014D01*
X10494Y520942D01*
X10512Y520934D01*
X10527Y520921D01*
X10623Y520882D01*
X10717Y520839D01*
X10737Y520837D01*
X10755Y520829D01*
X10922Y520811D01*
X88428Y520811D01*
X88448Y520814D01*
X88467Y520812D01*
X88569Y520834D01*
X88671Y520850D01*
X88688Y520860D01*
X88708Y520864D01*
X88797Y520917D01*
X88888Y520966D01*
X88902Y520980D01*
X88919Y520990D01*
X88986Y521069D01*
X89058Y521144D01*
X89066Y521162D01*
X89079Y521177D01*
X89118Y521273D01*
X89161Y521367D01*
X89163Y521387D01*
X89171Y521405D01*
X89189Y521572D01*
X89189Y522150D01*
X90835Y526124D01*
X93876Y529165D01*
X97850Y530811D01*
X98655Y530811D01*
X98700Y530818D01*
X98747Y530816D01*
X98879Y530847D01*
X98898Y530850D01*
X98902Y530853D01*
X98910Y530855D01*
X99056Y530907D01*
X99210Y530899D01*
X99255Y530904D01*
X99302Y530900D01*
X99435Y530924D01*
X99454Y530926D01*
X99459Y530928D01*
X99467Y530930D01*
X99623Y530976D01*
X99658Y530978D01*
X99714Y530972D01*
X99815Y530988D01*
X99846Y530990D01*
X99859Y530995D01*
X99862Y530995D01*
X100555Y530908D01*
X100566Y530909D01*
X100577Y530906D01*
X100745Y530908D01*
X123105Y533724D01*
X123122Y533729D01*
X123140Y533729D01*
X123301Y533776D01*
X123850Y534003D01*
X125274Y534003D01*
X125305Y534008D01*
X125369Y534009D01*
X126783Y534187D01*
X127355Y534030D01*
X127373Y534028D01*
X127390Y534022D01*
X127557Y534003D01*
X128150Y534003D01*
X129467Y533458D01*
X129497Y533451D01*
X129557Y533427D01*
X130931Y533051D01*
X131400Y532687D01*
X131415Y532678D01*
X131428Y532665D01*
X131575Y532585D01*
X132124Y532357D01*
X133131Y531350D01*
X133156Y531332D01*
X133203Y531287D01*
X133610Y530971D01*
X133648Y530950D01*
X133682Y530921D01*
X133756Y530891D01*
X133826Y530853D01*
X133869Y530846D01*
X133910Y530829D01*
X134054Y530813D01*
X134068Y530811D01*
X134072Y530811D01*
X134077Y530811D01*
X515923Y530811D01*
X515966Y530818D01*
X516010Y530816D01*
X516087Y530838D01*
X516166Y530850D01*
X516205Y530871D01*
X516247Y530883D01*
X516371Y530959D01*
X516383Y530966D01*
X516386Y530968D01*
X516390Y530971D01*
X516797Y531287D01*
X516818Y531310D01*
X516869Y531350D01*
X517876Y532357D01*
X518425Y532585D01*
X518440Y532594D01*
X518457Y532599D01*
X518600Y532687D01*
X519069Y533051D01*
X520443Y533427D01*
X520471Y533440D01*
X520533Y533458D01*
X521850Y534003D01*
X522443Y534003D01*
X522461Y534006D01*
X522479Y534004D01*
X522645Y534030D01*
X523217Y534187D01*
X524631Y534009D01*
X524661Y534010D01*
X524726Y534003D01*
X526150Y534003D01*
X526699Y533776D01*
X526716Y533772D01*
X526732Y533763D01*
X526895Y533724D01*
X534812Y532727D01*
X534931Y532731D01*
X535050Y532734D01*
X535054Y532736D01*
X535058Y532736D01*
X535169Y532778D01*
X535281Y532819D01*
X535284Y532821D01*
X535288Y532823D01*
X535380Y532898D01*
X535473Y532973D01*
X535475Y532976D01*
X535478Y532979D01*
X535541Y533079D01*
X535606Y533179D01*
X535607Y533184D01*
X535609Y533187D01*
X535637Y533303D01*
X535666Y533418D01*
X535666Y533422D01*
X535667Y533426D01*
X535656Y533545D01*
X535647Y533663D01*
X535645Y533667D01*
X535645Y533671D01*
X535597Y533781D01*
X535550Y533889D01*
X535547Y533893D01*
X535546Y533897D01*
X535536Y533907D01*
X535446Y534020D01*
X509276Y560190D01*
X507713Y561753D01*
X507713Y903947D01*
X509276Y905510D01*
X517039Y913273D01*
X517050Y913289D01*
X517066Y913301D01*
X517122Y913389D01*
X517182Y913472D01*
X517188Y913491D01*
X517199Y913508D01*
X517224Y913609D01*
X517255Y913707D01*
X517254Y913727D01*
X517259Y913747D01*
X517251Y913850D01*
X517248Y913953D01*
X517241Y913972D01*
X517240Y913992D01*
X517199Y914087D01*
X517164Y914184D01*
X517151Y914200D01*
X517143Y914218D01*
X517039Y914349D01*
X516448Y914940D01*
X513475Y922116D01*
X513475Y929884D01*
X516448Y937060D01*
X521940Y942552D01*
X529116Y945525D01*
X536884Y945525D01*
X544060Y942552D01*
X549552Y937060D01*
X552525Y929884D01*
X552525Y922116D01*
X549552Y914940D01*
X544060Y909448D01*
X536884Y906475D01*
X529116Y906475D01*
X521940Y909448D01*
X521349Y910039D01*
X521333Y910050D01*
X521321Y910066D01*
X521233Y910122D01*
X521149Y910182D01*
X521130Y910188D01*
X521114Y910199D01*
X521013Y910224D01*
X520914Y910255D01*
X520894Y910254D01*
X520875Y910259D01*
X520772Y910251D01*
X520668Y910248D01*
X520650Y910241D01*
X520630Y910240D01*
X520535Y910199D01*
X520437Y910164D01*
X520422Y910151D01*
X520404Y910143D01*
X520273Y910039D01*
X512510Y902276D01*
X512457Y902202D01*
X512397Y902132D01*
X512385Y902102D01*
X512366Y902076D01*
X512339Y901989D01*
X512305Y901904D01*
X512301Y901863D01*
X512294Y901841D01*
X512295Y901809D01*
X512287Y901738D01*
X512287Y882841D01*
X512302Y882745D01*
X512312Y882648D01*
X512322Y882624D01*
X512326Y882599D01*
X512372Y882513D01*
X512412Y882424D01*
X512429Y882404D01*
X512442Y882381D01*
X512512Y882314D01*
X512578Y882242D01*
X512601Y882230D01*
X512620Y882212D01*
X512708Y882171D01*
X512794Y882124D01*
X512819Y882119D01*
X512843Y882108D01*
X512940Y882098D01*
X513036Y882080D01*
X513062Y882084D01*
X513087Y882081D01*
X513183Y882102D01*
X513279Y882116D01*
X513302Y882128D01*
X513328Y882133D01*
X513411Y882183D01*
X513498Y882227D01*
X513517Y882246D01*
X513539Y882260D01*
X513602Y882333D01*
X513670Y882403D01*
X513686Y882432D01*
X513699Y882446D01*
X513711Y882477D01*
X513751Y882550D01*
X516448Y889060D01*
X521940Y894552D01*
X529116Y897525D01*
X536884Y897525D01*
X544060Y894552D01*
X549552Y889060D01*
X552525Y881884D01*
X552525Y880336D01*
X552539Y880246D01*
X552547Y880155D01*
X552559Y880125D01*
X552564Y880093D01*
X552607Y880012D01*
X552643Y879928D01*
X552669Y879896D01*
X552680Y879876D01*
X552703Y879853D01*
X552748Y879797D01*
X559216Y873329D01*
X559295Y873272D01*
X559370Y873210D01*
X559395Y873201D01*
X559416Y873185D01*
X559509Y873157D01*
X559600Y873122D01*
X559626Y873121D01*
X559651Y873113D01*
X559748Y873116D01*
X559846Y873112D01*
X559871Y873119D01*
X559897Y873119D01*
X559989Y873153D01*
X560082Y873180D01*
X560103Y873195D01*
X560128Y873204D01*
X560204Y873265D01*
X560284Y873320D01*
X560300Y873341D01*
X560320Y873358D01*
X560373Y873440D01*
X560431Y873518D01*
X560439Y873543D01*
X560453Y873565D01*
X560477Y873659D01*
X560507Y873752D01*
X560507Y873778D01*
X560513Y873803D01*
X560505Y873900D01*
X560504Y873998D01*
X560495Y874029D01*
X560494Y874048D01*
X560481Y874079D01*
X560475Y874098D01*
X560475Y881884D01*
X563448Y889060D01*
X568940Y894552D01*
X576116Y897525D01*
X583884Y897525D01*
X591060Y894552D01*
X596552Y889060D01*
X599525Y881884D01*
X599525Y874116D01*
X596552Y866940D01*
X591037Y861425D01*
X591019Y861414D01*
X590933Y861368D01*
X590916Y861350D01*
X590893Y861336D01*
X590831Y861261D01*
X590764Y861190D01*
X590753Y861166D01*
X590736Y861146D01*
X590702Y861055D01*
X590660Y860967D01*
X590658Y860941D01*
X590648Y860917D01*
X590644Y860819D01*
X590633Y860723D01*
X590639Y860697D01*
X590638Y860671D01*
X590665Y860578D01*
X590686Y860482D01*
X590699Y860460D01*
X590706Y860435D01*
X590762Y860355D01*
X590812Y860271D01*
X590832Y860254D01*
X590846Y860233D01*
X590925Y860175D01*
X590999Y860111D01*
X591023Y860101D01*
X591044Y860086D01*
X591136Y860056D01*
X591227Y860019D01*
X591259Y860016D01*
X591278Y860010D01*
X591311Y860010D01*
X591394Y860001D01*
X613233Y860001D01*
X622287Y850947D01*
X622287Y779053D01*
X612510Y769276D01*
X612457Y769202D01*
X612397Y769132D01*
X612385Y769102D01*
X612366Y769076D01*
X612339Y768989D01*
X612305Y768904D01*
X612301Y768863D01*
X612294Y768841D01*
X612295Y768809D01*
X612287Y768737D01*
X612287Y734786D01*
X612290Y734766D01*
X612288Y734747D01*
X612310Y734645D01*
X612326Y734543D01*
X612336Y734526D01*
X612340Y734506D01*
X612393Y734417D01*
X612442Y734326D01*
X612456Y734312D01*
X612466Y734295D01*
X612545Y734228D01*
X612620Y734156D01*
X612638Y734148D01*
X612653Y734135D01*
X612749Y734096D01*
X612843Y734053D01*
X612863Y734051D01*
X612881Y734043D01*
X613048Y734025D01*
X614779Y734025D01*
X623609Y730367D01*
X630367Y723609D01*
X634025Y714779D01*
X634025Y705221D01*
X630367Y696391D01*
X623609Y689633D01*
X614779Y685975D01*
X613048Y685975D01*
X613028Y685972D01*
X613009Y685974D01*
X612907Y685952D01*
X612805Y685936D01*
X612788Y685926D01*
X612768Y685922D01*
X612679Y685869D01*
X612588Y685820D01*
X612574Y685806D01*
X612557Y685796D01*
X612490Y685717D01*
X612418Y685642D01*
X612410Y685624D01*
X612397Y685609D01*
X612358Y685513D01*
X612315Y685419D01*
X612313Y685399D01*
X612305Y685381D01*
X612287Y685214D01*
X612287Y604786D01*
X612290Y604766D01*
X612288Y604747D01*
X612310Y604645D01*
X612326Y604543D01*
X612336Y604526D01*
X612340Y604506D01*
X612393Y604417D01*
X612442Y604326D01*
X612456Y604312D01*
X612466Y604295D01*
X612545Y604228D01*
X612620Y604156D01*
X612638Y604148D01*
X612653Y604135D01*
X612749Y604096D01*
X612843Y604053D01*
X612863Y604051D01*
X612881Y604043D01*
X613048Y604025D01*
X614779Y604025D01*
X623609Y600367D01*
X630367Y593609D01*
X634025Y584779D01*
X634025Y575221D01*
X630367Y566391D01*
X623609Y559633D01*
X614779Y555975D01*
X613048Y555975D01*
X613028Y555972D01*
X613009Y555974D01*
X612907Y555952D01*
X612805Y555936D01*
X612788Y555926D01*
X612768Y555922D01*
X612679Y555869D01*
X612588Y555820D01*
X612574Y555806D01*
X612557Y555796D01*
X612490Y555717D01*
X612418Y555642D01*
X612410Y555624D01*
X612397Y555609D01*
X612358Y555513D01*
X612315Y555419D01*
X612313Y555399D01*
X612305Y555381D01*
X612287Y555214D01*
X612287Y474786D01*
X612290Y474766D01*
X612288Y474747D01*
X612310Y474645D01*
X612326Y474543D01*
X612336Y474526D01*
X612340Y474506D01*
X612393Y474417D01*
X612442Y474326D01*
X612456Y474312D01*
X612466Y474295D01*
X612545Y474228D01*
X612620Y474156D01*
X612638Y474148D01*
X612653Y474135D01*
X612749Y474096D01*
X612843Y474053D01*
X612863Y474051D01*
X612881Y474043D01*
X613048Y474025D01*
X614779Y474025D01*
X623609Y470367D01*
X630367Y463609D01*
X634025Y454779D01*
X634025Y445221D01*
X630367Y436391D01*
X623609Y429633D01*
X614779Y425975D01*
X613048Y425975D01*
X613028Y425972D01*
X613009Y425974D01*
X612907Y425952D01*
X612805Y425936D01*
X612788Y425926D01*
X612768Y425922D01*
X612679Y425869D01*
X612588Y425820D01*
X612574Y425806D01*
X612557Y425796D01*
X612490Y425717D01*
X612418Y425642D01*
X612410Y425624D01*
X612397Y425609D01*
X612358Y425513D01*
X612315Y425419D01*
X612313Y425399D01*
X612305Y425381D01*
X612287Y425214D01*
X612287Y344786D01*
X612290Y344766D01*
X612288Y344747D01*
X612310Y344645D01*
X612326Y344543D01*
X612336Y344526D01*
X612340Y344506D01*
X612393Y344417D01*
X612442Y344326D01*
X612456Y344312D01*
X612466Y344295D01*
X612545Y344228D01*
X612620Y344156D01*
X612638Y344148D01*
X612653Y344135D01*
X612749Y344096D01*
X612843Y344053D01*
X612863Y344051D01*
X612881Y344043D01*
X613048Y344025D01*
X614779Y344025D01*
X623609Y340367D01*
X630367Y333609D01*
X634025Y324779D01*
X634025Y315221D01*
X630367Y306391D01*
X623609Y299633D01*
X614779Y295975D01*
X613048Y295975D01*
X613028Y295972D01*
X613009Y295974D01*
X612907Y295952D01*
X612805Y295936D01*
X612788Y295926D01*
X612768Y295922D01*
X612679Y295869D01*
X612588Y295820D01*
X612574Y295806D01*
X612557Y295796D01*
X612490Y295717D01*
X612418Y295642D01*
X612410Y295624D01*
X612397Y295609D01*
X612358Y295513D01*
X612315Y295419D01*
X612313Y295399D01*
X612305Y295381D01*
X612287Y295214D01*
X612287Y214786D01*
X612290Y214766D01*
X612288Y214747D01*
X612310Y214645D01*
X612326Y214543D01*
X612336Y214526D01*
X612340Y214506D01*
X612393Y214417D01*
X612442Y214326D01*
X612456Y214312D01*
X612466Y214295D01*
X612545Y214228D01*
X612620Y214156D01*
X612638Y214148D01*
X612653Y214135D01*
X612749Y214096D01*
X612843Y214053D01*
X612863Y214051D01*
X612881Y214043D01*
X613048Y214025D01*
X614779Y214025D01*
X623609Y210367D01*
X630367Y203609D01*
X634025Y194779D01*
X634025Y185221D01*
X630367Y176391D01*
X623609Y169633D01*
X614779Y165975D01*
X613048Y165975D01*
X613028Y165972D01*
X613009Y165974D01*
X612907Y165952D01*
X612805Y165936D01*
X612788Y165926D01*
X612768Y165922D01*
X612679Y165869D01*
X612588Y165820D01*
X612574Y165806D01*
X612557Y165796D01*
X612490Y165717D01*
X612418Y165642D01*
X612410Y165624D01*
X612397Y165609D01*
X612358Y165513D01*
X612315Y165419D01*
X612313Y165399D01*
X612305Y165381D01*
X612287Y165214D01*
X612287Y84786D01*
X612290Y84766D01*
X612288Y84747D01*
X612310Y84645D01*
X612326Y84543D01*
X612336Y84526D01*
X612340Y84506D01*
X612393Y84417D01*
X612442Y84326D01*
X612456Y84312D01*
X612466Y84295D01*
X612545Y84228D01*
X612620Y84156D01*
X612638Y84148D01*
X612653Y84135D01*
X612749Y84096D01*
X612843Y84053D01*
X612863Y84051D01*
X612881Y84043D01*
X613048Y84025D01*
X614779Y84025D01*
X623609Y80367D01*
X630367Y73609D01*
X634025Y64779D01*
X634025Y55221D01*
X630367Y46391D01*
X623609Y39633D01*
X614779Y35975D01*
X605221Y35975D01*
X596391Y39633D01*
X589633Y46391D01*
X585975Y55221D01*
X585975Y64779D01*
X589633Y73609D01*
X596391Y80367D01*
X605221Y84025D01*
X606952Y84025D01*
X606972Y84028D01*
X606991Y84026D01*
X607093Y84048D01*
X607195Y84064D01*
X607212Y84074D01*
X607232Y84078D01*
X607321Y84131D01*
X607412Y84180D01*
X607426Y84194D01*
X607443Y84204D01*
X607510Y84283D01*
X607582Y84358D01*
X607590Y84376D01*
X607603Y84391D01*
X607642Y84487D01*
X607685Y84581D01*
X607687Y84601D01*
X607695Y84619D01*
X607713Y84786D01*
X607713Y165214D01*
X607710Y165234D01*
X607712Y165253D01*
X607690Y165355D01*
X607674Y165457D01*
X607664Y165474D01*
X607660Y165494D01*
X607607Y165583D01*
X607558Y165674D01*
X607544Y165688D01*
X607534Y165705D01*
X607455Y165772D01*
X607380Y165844D01*
X607362Y165852D01*
X607347Y165865D01*
X607251Y165904D01*
X607157Y165947D01*
X607137Y165949D01*
X607119Y165957D01*
X606952Y165975D01*
X605221Y165975D01*
X596391Y169633D01*
X589633Y176391D01*
X585975Y185221D01*
X585975Y194779D01*
X589633Y203609D01*
X596391Y210367D01*
X605221Y214025D01*
X606952Y214025D01*
X606972Y214028D01*
X606991Y214026D01*
X607093Y214048D01*
X607195Y214064D01*
X607212Y214074D01*
X607232Y214078D01*
X607321Y214131D01*
X607412Y214180D01*
X607426Y214194D01*
X607443Y214204D01*
X607510Y214283D01*
X607582Y214358D01*
X607590Y214376D01*
X607603Y214391D01*
X607642Y214487D01*
X607685Y214581D01*
X607687Y214601D01*
X607695Y214619D01*
X607713Y214786D01*
X607713Y295214D01*
X607710Y295234D01*
X607712Y295253D01*
X607690Y295355D01*
X607674Y295457D01*
X607664Y295474D01*
X607660Y295494D01*
X607607Y295583D01*
X607558Y295674D01*
X607544Y295688D01*
X607534Y295705D01*
X607455Y295772D01*
X607380Y295844D01*
X607362Y295852D01*
X607347Y295865D01*
X607251Y295904D01*
X607157Y295947D01*
X607137Y295949D01*
X607119Y295957D01*
X606952Y295975D01*
X605221Y295975D01*
X596391Y299633D01*
X589633Y306391D01*
X585975Y315221D01*
X585975Y324779D01*
X589633Y333609D01*
X596391Y340367D01*
X605221Y344025D01*
X606952Y344025D01*
X606972Y344028D01*
X606991Y344026D01*
X607093Y344048D01*
X607195Y344064D01*
X607212Y344074D01*
X607232Y344078D01*
X607321Y344131D01*
X607412Y344180D01*
X607426Y344194D01*
X607443Y344204D01*
X607510Y344283D01*
X607582Y344358D01*
X607590Y344376D01*
X607603Y344391D01*
X607642Y344487D01*
X607685Y344581D01*
X607687Y344601D01*
X607695Y344619D01*
X607713Y344786D01*
X607713Y425214D01*
X607710Y425234D01*
X607712Y425253D01*
X607690Y425355D01*
X607674Y425457D01*
X607664Y425474D01*
X607660Y425494D01*
X607607Y425583D01*
X607558Y425674D01*
X607544Y425688D01*
X607534Y425705D01*
X607455Y425772D01*
X607380Y425844D01*
X607362Y425852D01*
X607347Y425865D01*
X607251Y425904D01*
X607157Y425947D01*
X607137Y425949D01*
X607119Y425957D01*
X606952Y425975D01*
X605221Y425975D01*
X596391Y429633D01*
X589633Y436391D01*
X585975Y445221D01*
X585975Y454779D01*
X589633Y463609D01*
X596391Y470367D01*
X605221Y474025D01*
X606952Y474025D01*
X606972Y474028D01*
X606991Y474026D01*
X607093Y474048D01*
X607195Y474064D01*
X607212Y474074D01*
X607232Y474078D01*
X607321Y474131D01*
X607412Y474180D01*
X607426Y474194D01*
X607443Y474204D01*
X607510Y474283D01*
X607582Y474358D01*
X607590Y474376D01*
X607603Y474391D01*
X607642Y474487D01*
X607685Y474581D01*
X607687Y474601D01*
X607695Y474619D01*
X607713Y474786D01*
X607713Y555214D01*
X607710Y555234D01*
X607712Y555253D01*
X607690Y555355D01*
X607674Y555457D01*
X607664Y555474D01*
X607660Y555494D01*
X607607Y555583D01*
X607558Y555674D01*
X607544Y555688D01*
X607534Y555705D01*
X607455Y555772D01*
X607380Y555844D01*
X607362Y555852D01*
X607347Y555865D01*
X607251Y555904D01*
X607157Y555947D01*
X607137Y555949D01*
X607119Y555957D01*
X606952Y555975D01*
X605221Y555975D01*
X596391Y559633D01*
X589633Y566391D01*
X585975Y575221D01*
X585975Y584779D01*
X589633Y593609D01*
X596391Y600367D01*
X605221Y604025D01*
X606952Y604025D01*
X606972Y604028D01*
X606991Y604026D01*
X607093Y604048D01*
X607195Y604064D01*
X607212Y604074D01*
X607232Y604078D01*
X607321Y604131D01*
X607412Y604180D01*
X607426Y604194D01*
X607443Y604204D01*
X607510Y604283D01*
X607582Y604358D01*
X607590Y604376D01*
X607603Y604391D01*
X607642Y604487D01*
X607685Y604581D01*
X607687Y604601D01*
X607695Y604619D01*
X607713Y604786D01*
X607713Y685214D01*
X607710Y685234D01*
X607712Y685253D01*
X607690Y685355D01*
X607674Y685457D01*
X607664Y685474D01*
X607660Y685494D01*
X607607Y685583D01*
X607558Y685674D01*
X607544Y685688D01*
X607534Y685705D01*
X607455Y685772D01*
X607380Y685844D01*
X607362Y685852D01*
X607347Y685865D01*
X607251Y685904D01*
X607157Y685947D01*
X607137Y685949D01*
X607119Y685957D01*
X606952Y685975D01*
X605221Y685975D01*
X596391Y689633D01*
X589633Y696391D01*
X585975Y705221D01*
X585975Y714779D01*
X589633Y723609D01*
X596391Y730367D01*
X605221Y734025D01*
X606952Y734025D01*
X606972Y734028D01*
X606991Y734026D01*
X607093Y734048D01*
X607195Y734064D01*
X607212Y734074D01*
X607232Y734078D01*
X607321Y734131D01*
X607412Y734180D01*
X607426Y734194D01*
X607443Y734204D01*
X607510Y734283D01*
X607582Y734358D01*
X607590Y734376D01*
X607603Y734391D01*
X607642Y734487D01*
X607685Y734581D01*
X607687Y734601D01*
X607695Y734619D01*
X607713Y734786D01*
X607713Y770947D01*
X617490Y780724D01*
X617543Y780798D01*
X617603Y780868D01*
X617615Y780898D01*
X617634Y780924D01*
X617661Y781011D01*
X617695Y781096D01*
X617699Y781137D01*
X617706Y781159D01*
X617705Y781191D01*
X617713Y781263D01*
X617713Y848737D01*
X617699Y848828D01*
X617691Y848918D01*
X617679Y848948D01*
X617674Y848980D01*
X617631Y849061D01*
X617595Y849145D01*
X617569Y849177D01*
X617558Y849198D01*
X617535Y849220D01*
X617490Y849276D01*
X611562Y855204D01*
X611488Y855257D01*
X611418Y855317D01*
X611388Y855329D01*
X611362Y855348D01*
X611275Y855375D01*
X611190Y855409D01*
X611149Y855413D01*
X611127Y855420D01*
X611095Y855419D01*
X611023Y855427D01*
X570650Y855427D01*
X553165Y872912D01*
X553128Y872939D01*
X553097Y872973D01*
X553029Y873010D01*
X552965Y873056D01*
X552922Y873069D01*
X552881Y873091D01*
X552805Y873105D01*
X552730Y873128D01*
X552685Y873127D01*
X552639Y873135D01*
X552562Y873124D01*
X552485Y873122D01*
X552441Y873106D01*
X552396Y873099D01*
X552327Y873064D01*
X552254Y873037D01*
X552218Y873008D01*
X552177Y872988D01*
X552122Y872932D01*
X552061Y872883D01*
X552037Y872845D01*
X552005Y872812D01*
X551939Y872692D01*
X551928Y872677D01*
X551927Y872672D01*
X551924Y872665D01*
X549552Y866940D01*
X544060Y861448D01*
X536884Y858475D01*
X529116Y858475D01*
X521940Y861448D01*
X516448Y866940D01*
X513751Y873450D01*
X513700Y873533D01*
X513654Y873619D01*
X513635Y873637D01*
X513622Y873659D01*
X513547Y873721D01*
X513476Y873788D01*
X513452Y873799D01*
X513432Y873816D01*
X513341Y873851D01*
X513253Y873892D01*
X513227Y873895D01*
X513203Y873904D01*
X513105Y873908D01*
X513009Y873919D01*
X512983Y873913D01*
X512957Y873914D01*
X512863Y873887D01*
X512768Y873867D01*
X512746Y873853D01*
X512721Y873846D01*
X512641Y873790D01*
X512557Y873740D01*
X512540Y873721D01*
X512519Y873706D01*
X512460Y873627D01*
X512397Y873554D01*
X512387Y873529D01*
X512372Y873508D01*
X512342Y873416D01*
X512305Y873325D01*
X512302Y873293D01*
X512296Y873274D01*
X512296Y873241D01*
X512287Y873159D01*
X512287Y834841D01*
X512302Y834745D01*
X512312Y834648D01*
X512322Y834624D01*
X512326Y834599D01*
X512372Y834513D01*
X512412Y834424D01*
X512429Y834404D01*
X512442Y834381D01*
X512512Y834314D01*
X512578Y834242D01*
X512601Y834230D01*
X512620Y834212D01*
X512708Y834171D01*
X512794Y834124D01*
X512819Y834119D01*
X512843Y834108D01*
X512940Y834098D01*
X513036Y834080D01*
X513062Y834084D01*
X513087Y834081D01*
X513183Y834102D01*
X513279Y834116D01*
X513302Y834128D01*
X513328Y834133D01*
X513411Y834183D01*
X513498Y834227D01*
X513517Y834246D01*
X513539Y834260D01*
X513602Y834333D01*
X513670Y834403D01*
X513686Y834432D01*
X513699Y834446D01*
X513711Y834477D01*
X513751Y834550D01*
X516448Y841060D01*
X521940Y846552D01*
X529116Y849525D01*
X536884Y849525D01*
X544060Y846552D01*
X549552Y841060D01*
X552525Y833884D01*
X552525Y826116D01*
X549552Y818940D01*
X548961Y818349D01*
X548950Y818333D01*
X548934Y818321D01*
X548878Y818233D01*
X548818Y818149D01*
X548812Y818130D01*
X548801Y818114D01*
X548776Y818013D01*
X548745Y817914D01*
X548746Y817894D01*
X548741Y817875D01*
X548749Y817772D01*
X548752Y817668D01*
X548759Y817650D01*
X548760Y817630D01*
X548801Y817535D01*
X548836Y817437D01*
X548849Y817422D01*
X548857Y817404D01*
X548961Y817273D01*
X570724Y795510D01*
X572287Y793947D01*
X572287Y216353D01*
X570724Y214790D01*
X562323Y206389D01*
X562296Y206352D01*
X562263Y206321D01*
X562225Y206253D01*
X562180Y206190D01*
X562166Y206146D01*
X562144Y206105D01*
X562130Y206029D01*
X562107Y205955D01*
X562109Y205909D01*
X562100Y205863D01*
X562112Y205786D01*
X562114Y205709D01*
X562129Y205666D01*
X562136Y205620D01*
X562171Y205551D01*
X562198Y205478D01*
X562227Y205442D01*
X562248Y205401D01*
X562303Y205346D01*
X562352Y205286D01*
X562391Y205261D01*
X562423Y205229D01*
X562543Y205163D01*
X562559Y205153D01*
X562564Y205151D01*
X562570Y205148D01*
X562800Y205053D01*
X565373Y202480D01*
X566765Y199119D01*
X566765Y195481D01*
X565373Y192120D01*
X562800Y189547D01*
X559439Y188155D01*
X540561Y188155D01*
X537200Y189547D01*
X534627Y192120D01*
X533235Y195481D01*
X533235Y196211D01*
X533224Y196278D01*
X533223Y196346D01*
X533205Y196399D01*
X533196Y196454D01*
X533164Y196514D01*
X533141Y196577D01*
X533107Y196622D01*
X533080Y196672D01*
X533031Y196718D01*
X532990Y196771D01*
X532943Y196802D01*
X532902Y196841D01*
X532841Y196869D01*
X532784Y196906D01*
X532730Y196921D01*
X532679Y196945D01*
X532612Y196952D01*
X532547Y196969D01*
X532467Y196968D01*
X532435Y196972D01*
X532414Y196967D01*
X532379Y196967D01*
X526895Y196276D01*
X526878Y196271D01*
X526860Y196271D01*
X526699Y196224D01*
X526150Y195997D01*
X524726Y195997D01*
X524695Y195992D01*
X524631Y195991D01*
X523217Y195813D01*
X522645Y195970D01*
X522627Y195972D01*
X522610Y195978D01*
X522443Y195997D01*
X521850Y195997D01*
X520533Y196542D01*
X520503Y196549D01*
X520443Y196573D01*
X519069Y196949D01*
X518600Y197313D01*
X518585Y197322D01*
X518572Y197335D01*
X518425Y197415D01*
X517876Y197643D01*
X516869Y198650D01*
X516844Y198668D01*
X516797Y198713D01*
X516390Y199029D01*
X516351Y199050D01*
X516318Y199079D01*
X516244Y199109D01*
X516174Y199147D01*
X516131Y199154D01*
X516090Y199171D01*
X515946Y199187D01*
X515932Y199189D01*
X515928Y199189D01*
X515923Y199189D01*
X207986Y199189D01*
X207896Y199175D01*
X207805Y199167D01*
X207775Y199155D01*
X207743Y199150D01*
X207662Y199107D01*
X207578Y199071D01*
X207546Y199045D01*
X207526Y199034D01*
X207503Y199011D01*
X207447Y198966D01*
X206124Y197643D01*
X202150Y195997D01*
X197850Y195997D01*
X193876Y197643D01*
X192553Y198966D01*
X192479Y199019D01*
X192409Y199079D01*
X192379Y199091D01*
X192353Y199110D01*
X192266Y199137D01*
X192181Y199171D01*
X192140Y199175D01*
X192118Y199182D01*
X192086Y199181D01*
X192014Y199189D01*
X134077Y199189D01*
X134034Y199182D01*
X133990Y199184D01*
X133913Y199162D01*
X133834Y199150D01*
X133795Y199129D01*
X133753Y199117D01*
X133629Y199041D01*
X133617Y199034D01*
X133614Y199032D01*
X133610Y199029D01*
X133203Y198713D01*
X133181Y198690D01*
X133131Y198650D01*
X132124Y197643D01*
X131575Y197415D01*
X131560Y197406D01*
X131543Y197401D01*
X131400Y197313D01*
X130931Y196949D01*
X129557Y196573D01*
X129529Y196560D01*
X129467Y196542D01*
X128150Y195997D01*
X127557Y195997D01*
X127539Y195994D01*
X127521Y195996D01*
X127355Y195970D01*
X126783Y195813D01*
X125369Y195991D01*
X125339Y195990D01*
X125274Y195997D01*
X123850Y195997D01*
X123301Y196224D01*
X123284Y196228D01*
X123268Y196237D01*
X123105Y196276D01*
X100745Y199092D01*
X100734Y199091D01*
X100723Y199094D01*
X100555Y199092D01*
X99858Y199004D01*
X99823Y199008D01*
X99769Y199024D01*
X99666Y199024D01*
X99635Y199028D01*
X99622Y199025D01*
X99619Y199025D01*
X99467Y199070D01*
X99421Y199076D01*
X99377Y199091D01*
X99242Y199099D01*
X99223Y199102D01*
X99217Y199101D01*
X99210Y199101D01*
X99056Y199093D01*
X98910Y199145D01*
X98865Y199154D01*
X98822Y199171D01*
X98687Y199186D01*
X98668Y199189D01*
X98663Y199188D01*
X98655Y199189D01*
X10922Y199189D01*
X10902Y199186D01*
X10883Y199188D01*
X10781Y199166D01*
X10679Y199150D01*
X10662Y199140D01*
X10642Y199136D01*
X10553Y199083D01*
X10462Y199034D01*
X10448Y199020D01*
X10431Y199010D01*
X10364Y198931D01*
X10292Y198856D01*
X10284Y198838D01*
X10271Y198823D01*
X10232Y198727D01*
X10189Y198633D01*
X10187Y198613D01*
X10179Y198595D01*
X10161Y198428D01*
X10161Y121572D01*
X10164Y121552D01*
X10162Y121533D01*
X10184Y121431D01*
X10200Y121329D01*
X10210Y121312D01*
X10214Y121292D01*
X10267Y121203D01*
X10316Y121112D01*
X10330Y121098D01*
X10340Y121081D01*
X10419Y121014D01*
X10494Y120942D01*
X10512Y120934D01*
X10527Y120921D01*
X10623Y120882D01*
X10717Y120839D01*
X10737Y120837D01*
X10755Y120829D01*
X10922Y120811D01*
X202150Y120811D01*
X206124Y119165D01*
X209165Y116124D01*
X210811Y112150D01*
X210811Y107850D01*
X209165Y103876D01*
X206124Y100835D01*
X202150Y99189D01*
X10922Y99189D01*
X10902Y99186D01*
X10883Y99188D01*
X10781Y99166D01*
X10679Y99150D01*
X10662Y99140D01*
X10642Y99136D01*
X10553Y99083D01*
X10462Y99034D01*
X10448Y99020D01*
X10431Y99010D01*
X10364Y98931D01*
X10292Y98856D01*
X10284Y98838D01*
X10271Y98823D01*
X10232Y98727D01*
X10189Y98633D01*
X10187Y98613D01*
X10179Y98595D01*
X10161Y98428D01*
X10161Y10922D01*
X10164Y10902D01*
X10162Y10883D01*
X10184Y10781D01*
X10200Y10679D01*
X10210Y10662D01*
X10214Y10642D01*
X10267Y10553D01*
X10316Y10462D01*
X10330Y10448D01*
X10340Y10431D01*
X10419Y10364D01*
X10494Y10292D01*
X10512Y10284D01*
X10527Y10271D01*
X10623Y10232D01*
X10717Y10189D01*
X10737Y10187D01*
X10755Y10179D01*
X10922Y10161D01*
X649078Y10161D01*
X649098Y10164D01*
G37*
%LPC*%
G36*
X243773Y1125521D02*
X243773Y1125521D01*
X239011Y1130283D01*
X239011Y1137017D01*
X243773Y1141779D01*
X244092Y1141779D01*
X244112Y1141782D01*
X244131Y1141780D01*
X244233Y1141802D01*
X244335Y1141818D01*
X244352Y1141828D01*
X244372Y1141832D01*
X244461Y1141885D01*
X244552Y1141934D01*
X244566Y1141948D01*
X244583Y1141958D01*
X244650Y1142037D01*
X244722Y1142112D01*
X244730Y1142130D01*
X244743Y1142145D01*
X244782Y1142241D01*
X244825Y1142335D01*
X244827Y1142355D01*
X244835Y1142373D01*
X244853Y1142540D01*
X244853Y1158087D01*
X249053Y1162287D01*
X296952Y1162287D01*
X296972Y1162290D01*
X296991Y1162288D01*
X297093Y1162310D01*
X297195Y1162326D01*
X297212Y1162336D01*
X297232Y1162340D01*
X297321Y1162393D01*
X297412Y1162442D01*
X297426Y1162456D01*
X297443Y1162466D01*
X297510Y1162545D01*
X297582Y1162620D01*
X297590Y1162638D01*
X297603Y1162653D01*
X297642Y1162749D01*
X297685Y1162843D01*
X297687Y1162863D01*
X297695Y1162881D01*
X297713Y1163048D01*
X297713Y1220947D01*
X407490Y1330724D01*
X407543Y1330798D01*
X407603Y1330868D01*
X407615Y1330898D01*
X407634Y1330924D01*
X407661Y1331011D01*
X407695Y1331096D01*
X407699Y1331137D01*
X407706Y1331159D01*
X407705Y1331191D01*
X407713Y1331263D01*
X407713Y1366838D01*
X407694Y1366953D01*
X407677Y1367069D01*
X407675Y1367074D01*
X407674Y1367081D01*
X407619Y1367183D01*
X407566Y1367288D01*
X407561Y1367292D01*
X407558Y1367298D01*
X407474Y1367378D01*
X407390Y1367460D01*
X407384Y1367464D01*
X407380Y1367467D01*
X407363Y1367475D01*
X407243Y1367541D01*
X403813Y1368962D01*
X400740Y1372035D01*
X399077Y1376049D01*
X399077Y1380395D01*
X400740Y1384409D01*
X403813Y1387482D01*
X407827Y1389145D01*
X412173Y1389145D01*
X416187Y1387482D01*
X419260Y1384409D01*
X420923Y1380395D01*
X420923Y1376049D01*
X419260Y1372035D01*
X416187Y1368962D01*
X412757Y1367541D01*
X412657Y1367480D01*
X412557Y1367420D01*
X412553Y1367415D01*
X412548Y1367412D01*
X412473Y1367322D01*
X412397Y1367233D01*
X412395Y1367227D01*
X412391Y1367222D01*
X412349Y1367114D01*
X412305Y1367005D01*
X412304Y1366997D01*
X412303Y1366992D01*
X412302Y1366974D01*
X412287Y1366838D01*
X412287Y1329053D01*
X302510Y1219276D01*
X302457Y1219202D01*
X302397Y1219132D01*
X302385Y1219102D01*
X302366Y1219076D01*
X302339Y1218989D01*
X302305Y1218904D01*
X302301Y1218863D01*
X302294Y1218841D01*
X302295Y1218809D01*
X302287Y1218737D01*
X302287Y1159053D01*
X300947Y1157713D01*
X251263Y1157713D01*
X251172Y1157699D01*
X251082Y1157691D01*
X251052Y1157679D01*
X251020Y1157674D01*
X250939Y1157631D01*
X250855Y1157595D01*
X250823Y1157569D01*
X250802Y1157558D01*
X250780Y1157535D01*
X250724Y1157490D01*
X249650Y1156416D01*
X249597Y1156342D01*
X249537Y1156272D01*
X249525Y1156242D01*
X249506Y1156216D01*
X249479Y1156129D01*
X249445Y1156044D01*
X249441Y1156003D01*
X249434Y1155981D01*
X249435Y1155949D01*
X249427Y1155877D01*
X249427Y1142540D01*
X249430Y1142520D01*
X249428Y1142501D01*
X249450Y1142399D01*
X249466Y1142297D01*
X249476Y1142280D01*
X249480Y1142260D01*
X249533Y1142171D01*
X249582Y1142080D01*
X249596Y1142066D01*
X249606Y1142049D01*
X249685Y1141982D01*
X249760Y1141910D01*
X249778Y1141902D01*
X249793Y1141889D01*
X249889Y1141850D01*
X249983Y1141807D01*
X250003Y1141805D01*
X250021Y1141797D01*
X250188Y1141779D01*
X250507Y1141779D01*
X255269Y1137017D01*
X255269Y1130283D01*
X250507Y1125521D01*
X243773Y1125521D01*
G37*
%LPD*%
%LPC*%
G36*
X114471Y645775D02*
X114471Y645775D01*
X109242Y647941D01*
X105241Y651942D01*
X103075Y657171D01*
X103075Y662829D01*
X105241Y668058D01*
X109242Y672059D01*
X114471Y674225D01*
X145529Y674225D01*
X150758Y672059D01*
X154759Y668058D01*
X156925Y662829D01*
X156925Y657171D01*
X154759Y651942D01*
X150758Y647941D01*
X145529Y645775D01*
X114471Y645775D01*
G37*
%LPD*%
%LPC*%
G36*
X114471Y685775D02*
X114471Y685775D01*
X109242Y687941D01*
X105241Y691942D01*
X103075Y697171D01*
X103075Y702829D01*
X105241Y708058D01*
X109242Y712059D01*
X114471Y714225D01*
X145529Y714225D01*
X150758Y712059D01*
X154759Y708058D01*
X156925Y702829D01*
X156925Y697171D01*
X154759Y691942D01*
X150758Y687941D01*
X145529Y685775D01*
X114471Y685775D01*
G37*
%LPD*%
%LPC*%
G36*
X482116Y810475D02*
X482116Y810475D01*
X474940Y813448D01*
X469448Y818940D01*
X466475Y826116D01*
X466475Y833884D01*
X469448Y841060D01*
X474940Y846552D01*
X482116Y849525D01*
X489884Y849525D01*
X497060Y846552D01*
X502552Y841060D01*
X505525Y833884D01*
X505525Y826116D01*
X502552Y818940D01*
X497060Y813448D01*
X489884Y810475D01*
X482116Y810475D01*
G37*
%LPD*%
%LPC*%
G36*
X482116Y858475D02*
X482116Y858475D01*
X474940Y861448D01*
X469448Y866940D01*
X466475Y874116D01*
X466475Y881884D01*
X469448Y889060D01*
X474940Y894552D01*
X482116Y897525D01*
X489884Y897525D01*
X497060Y894552D01*
X502552Y889060D01*
X505525Y881884D01*
X505525Y874116D01*
X502552Y866940D01*
X497060Y861448D01*
X489884Y858475D01*
X482116Y858475D01*
G37*
%LPD*%
%LPC*%
G36*
X482116Y906475D02*
X482116Y906475D01*
X474940Y909448D01*
X469448Y914940D01*
X466475Y922116D01*
X466475Y929884D01*
X469448Y937060D01*
X474940Y942552D01*
X482116Y945525D01*
X489884Y945525D01*
X497060Y942552D01*
X502552Y937060D01*
X505525Y929884D01*
X505525Y922116D01*
X502552Y914940D01*
X497060Y909448D01*
X489884Y906475D01*
X482116Y906475D01*
G37*
%LPD*%
%LPC*%
G36*
X576116Y810475D02*
X576116Y810475D01*
X568940Y813448D01*
X563448Y818940D01*
X560475Y826116D01*
X560475Y833884D01*
X563448Y841060D01*
X568940Y846552D01*
X576116Y849525D01*
X583884Y849525D01*
X591060Y846552D01*
X596552Y841060D01*
X599525Y833884D01*
X599525Y826116D01*
X596552Y818940D01*
X591060Y813448D01*
X583884Y810475D01*
X576116Y810475D01*
G37*
%LPD*%
%LPC*%
G36*
X576116Y906475D02*
X576116Y906475D01*
X568940Y909448D01*
X563448Y914940D01*
X560475Y922116D01*
X560475Y929884D01*
X563448Y937060D01*
X568940Y942552D01*
X576116Y945525D01*
X583884Y945525D01*
X591060Y942552D01*
X596552Y937060D01*
X599525Y929884D01*
X599525Y922116D01*
X596552Y914940D01*
X591060Y909448D01*
X583884Y906475D01*
X576116Y906475D01*
G37*
%LPD*%
%LPC*%
G36*
X79053Y787713D02*
X79053Y787713D01*
X77713Y789053D01*
X77713Y797739D01*
X77694Y797854D01*
X77677Y797970D01*
X77675Y797976D01*
X77674Y797982D01*
X77619Y798085D01*
X77566Y798190D01*
X77561Y798194D01*
X77558Y798199D01*
X77474Y798279D01*
X77390Y798362D01*
X77384Y798365D01*
X77380Y798369D01*
X77363Y798377D01*
X77243Y798443D01*
X74763Y799470D01*
X71690Y802543D01*
X70027Y806557D01*
X70027Y810903D01*
X71690Y814917D01*
X74763Y817990D01*
X78777Y819653D01*
X83123Y819653D01*
X87137Y817990D01*
X90210Y814917D01*
X91873Y810903D01*
X91873Y806557D01*
X90210Y802543D01*
X87137Y799470D01*
X83123Y797807D01*
X83048Y797807D01*
X83028Y797804D01*
X83009Y797806D01*
X82907Y797784D01*
X82805Y797768D01*
X82788Y797758D01*
X82768Y797754D01*
X82679Y797701D01*
X82588Y797652D01*
X82574Y797638D01*
X82557Y797628D01*
X82490Y797549D01*
X82418Y797474D01*
X82410Y797456D01*
X82397Y797441D01*
X82358Y797345D01*
X82315Y797251D01*
X82313Y797231D01*
X82305Y797213D01*
X82287Y797046D01*
X82287Y793048D01*
X82290Y793028D01*
X82288Y793009D01*
X82310Y792907D01*
X82326Y792805D01*
X82336Y792788D01*
X82340Y792768D01*
X82393Y792679D01*
X82442Y792588D01*
X82456Y792574D01*
X82466Y792557D01*
X82545Y792490D01*
X82620Y792418D01*
X82638Y792410D01*
X82653Y792397D01*
X82749Y792358D01*
X82843Y792315D01*
X82863Y792313D01*
X82881Y792305D01*
X83048Y792287D01*
X176037Y792287D01*
X176128Y792301D01*
X176218Y792309D01*
X176248Y792321D01*
X176280Y792326D01*
X176361Y792369D01*
X176445Y792405D01*
X176477Y792431D01*
X176498Y792442D01*
X176520Y792465D01*
X176576Y792510D01*
X189397Y805331D01*
X189409Y805347D01*
X189424Y805359D01*
X189480Y805447D01*
X189540Y805531D01*
X189546Y805550D01*
X189557Y805566D01*
X189582Y805667D01*
X189613Y805766D01*
X189612Y805786D01*
X189617Y805805D01*
X189609Y805908D01*
X189606Y806011D01*
X189600Y806030D01*
X189598Y806050D01*
X189558Y806145D01*
X189522Y806243D01*
X189509Y806258D01*
X189502Y806276D01*
X189397Y806407D01*
X189171Y806633D01*
X189171Y813367D01*
X193933Y818129D01*
X200667Y818129D01*
X205429Y813367D01*
X205429Y806633D01*
X200667Y801871D01*
X193933Y801871D01*
X193707Y802097D01*
X193691Y802109D01*
X193679Y802124D01*
X193592Y802180D01*
X193508Y802240D01*
X193489Y802246D01*
X193472Y802257D01*
X193371Y802282D01*
X193273Y802313D01*
X193253Y802312D01*
X193233Y802317D01*
X193130Y802309D01*
X193027Y802306D01*
X193008Y802300D01*
X192988Y802298D01*
X192893Y802258D01*
X192796Y802222D01*
X192780Y802209D01*
X192762Y802202D01*
X192631Y802097D01*
X178247Y787713D01*
X79053Y787713D01*
G37*
%LPD*%
%LPC*%
G36*
X76200Y1286815D02*
X76200Y1286815D01*
X69178Y1289724D01*
X63804Y1295098D01*
X60895Y1302120D01*
X60895Y1309720D01*
X63804Y1316742D01*
X69178Y1322116D01*
X76200Y1325025D01*
X83800Y1325025D01*
X90822Y1322116D01*
X96196Y1316742D01*
X99105Y1309720D01*
X99105Y1302120D01*
X96196Y1295098D01*
X90822Y1289724D01*
X83800Y1286815D01*
X76200Y1286815D01*
G37*
%LPD*%
%LPC*%
G36*
X76200Y1368815D02*
X76200Y1368815D01*
X69178Y1371724D01*
X63804Y1377098D01*
X60895Y1384120D01*
X60895Y1391720D01*
X63804Y1398742D01*
X69178Y1404116D01*
X76200Y1407025D01*
X83800Y1407025D01*
X90822Y1404116D01*
X96196Y1398742D01*
X99105Y1391720D01*
X99105Y1384120D01*
X96196Y1377098D01*
X90822Y1371724D01*
X83800Y1368815D01*
X76200Y1368815D01*
G37*
%LPD*%
%LPC*%
G36*
X76200Y1021895D02*
X76200Y1021895D01*
X69178Y1024804D01*
X63804Y1030178D01*
X60895Y1037200D01*
X60895Y1044800D01*
X63804Y1051822D01*
X69178Y1057196D01*
X76200Y1060105D01*
X83800Y1060105D01*
X90822Y1057196D01*
X96196Y1051822D01*
X99105Y1044800D01*
X99105Y1037200D01*
X96196Y1030178D01*
X90822Y1024804D01*
X83800Y1021895D01*
X76200Y1021895D01*
G37*
%LPD*%
%LPC*%
G36*
X76200Y1103895D02*
X76200Y1103895D01*
X69178Y1106804D01*
X63804Y1112178D01*
X60895Y1119200D01*
X60895Y1126800D01*
X63804Y1133822D01*
X69178Y1139196D01*
X76200Y1142105D01*
X83800Y1142105D01*
X90822Y1139196D01*
X96196Y1133822D01*
X99105Y1126800D01*
X99105Y1119200D01*
X96196Y1112178D01*
X90822Y1106804D01*
X83800Y1103895D01*
X76200Y1103895D01*
G37*
%LPD*%
%LPC*%
G36*
X29254Y690992D02*
X29254Y690992D01*
X24025Y693158D01*
X20024Y697159D01*
X17858Y702388D01*
X17858Y708046D01*
X20024Y713275D01*
X24025Y717276D01*
X29254Y719442D01*
X34912Y719442D01*
X40141Y717276D01*
X44142Y713275D01*
X46308Y708046D01*
X46308Y702388D01*
X44142Y697159D01*
X40141Y693158D01*
X34912Y690992D01*
X29254Y690992D01*
G37*
%LPD*%
%LPC*%
G36*
X95370Y1209227D02*
X95370Y1209227D01*
X94477Y1210120D01*
X94477Y1230180D01*
X95370Y1231073D01*
X115430Y1231073D01*
X116323Y1230180D01*
X116323Y1210120D01*
X115430Y1209227D01*
X95370Y1209227D01*
G37*
%LPD*%
%LPC*%
G36*
X426059Y1099971D02*
X426059Y1099971D01*
X423071Y1101209D01*
X420785Y1103495D01*
X419547Y1106483D01*
X419547Y1109717D01*
X420785Y1112705D01*
X423071Y1114991D01*
X426059Y1116229D01*
X442501Y1116229D01*
X445489Y1114991D01*
X447775Y1112705D01*
X449013Y1109717D01*
X449013Y1106483D01*
X447775Y1103495D01*
X445489Y1101209D01*
X442501Y1099971D01*
X426059Y1099971D01*
G37*
%LPD*%
%LPC*%
G36*
X502259Y1099971D02*
X502259Y1099971D01*
X499271Y1101209D01*
X496985Y1103495D01*
X495747Y1106483D01*
X495747Y1109717D01*
X496985Y1112705D01*
X499271Y1114991D01*
X502259Y1116229D01*
X518701Y1116229D01*
X521689Y1114991D01*
X523975Y1112705D01*
X525213Y1109717D01*
X525213Y1106483D01*
X523975Y1103495D01*
X521689Y1101209D01*
X518701Y1099971D01*
X502259Y1099971D01*
G37*
%LPD*%
%LPC*%
G36*
X502259Y1023771D02*
X502259Y1023771D01*
X499271Y1025009D01*
X496985Y1027295D01*
X495747Y1030283D01*
X495747Y1033517D01*
X496985Y1036505D01*
X499271Y1038791D01*
X502259Y1040029D01*
X518701Y1040029D01*
X521689Y1038791D01*
X523975Y1036505D01*
X525213Y1033517D01*
X525213Y1030283D01*
X523975Y1027295D01*
X521689Y1025009D01*
X518701Y1023771D01*
X502259Y1023771D01*
G37*
%LPD*%
%LPC*%
G36*
X233679Y1068071D02*
X233679Y1068071D01*
X230691Y1069309D01*
X228405Y1071595D01*
X227167Y1074583D01*
X227167Y1077817D01*
X228405Y1080805D01*
X230691Y1083091D01*
X233679Y1084329D01*
X250121Y1084329D01*
X253109Y1083091D01*
X255395Y1080805D01*
X256633Y1077817D01*
X256633Y1074583D01*
X255395Y1071595D01*
X253109Y1069309D01*
X250121Y1068071D01*
X233679Y1068071D01*
G37*
%LPD*%
%LPC*%
G36*
X309879Y1068071D02*
X309879Y1068071D01*
X306891Y1069309D01*
X304605Y1071595D01*
X303367Y1074583D01*
X303367Y1077817D01*
X304605Y1080805D01*
X306891Y1083091D01*
X309879Y1084329D01*
X326321Y1084329D01*
X329309Y1083091D01*
X331595Y1080805D01*
X332833Y1077817D01*
X332833Y1074583D01*
X331595Y1071595D01*
X329309Y1069309D01*
X326321Y1068071D01*
X309879Y1068071D01*
G37*
%LPD*%
%LPC*%
G36*
X233679Y1042671D02*
X233679Y1042671D01*
X230691Y1043909D01*
X228405Y1046195D01*
X227167Y1049183D01*
X227167Y1052417D01*
X228405Y1055405D01*
X230691Y1057691D01*
X233679Y1058929D01*
X250121Y1058929D01*
X253109Y1057691D01*
X255395Y1055405D01*
X256633Y1052417D01*
X256633Y1049183D01*
X255395Y1046195D01*
X253109Y1043909D01*
X250121Y1042671D01*
X233679Y1042671D01*
G37*
%LPD*%
%LPC*%
G36*
X426059Y1074571D02*
X426059Y1074571D01*
X423071Y1075809D01*
X420785Y1078095D01*
X419547Y1081083D01*
X419547Y1084317D01*
X420785Y1087305D01*
X423071Y1089591D01*
X426059Y1090829D01*
X442501Y1090829D01*
X445489Y1089591D01*
X447775Y1087305D01*
X449013Y1084317D01*
X449013Y1081083D01*
X447775Y1078095D01*
X445489Y1075809D01*
X442501Y1074571D01*
X426059Y1074571D01*
G37*
%LPD*%
%LPC*%
G36*
X626257Y1238725D02*
X626257Y1238725D01*
X622113Y1240442D01*
X618942Y1243613D01*
X617225Y1247757D01*
X617225Y1252243D01*
X618942Y1256387D01*
X622113Y1259558D01*
X626257Y1261275D01*
X630743Y1261275D01*
X634887Y1259558D01*
X638058Y1256387D01*
X639775Y1252243D01*
X639775Y1247757D01*
X638058Y1243613D01*
X634887Y1240442D01*
X630743Y1238725D01*
X626257Y1238725D01*
G37*
%LPD*%
%LPC*%
G36*
X267757Y1180225D02*
X267757Y1180225D01*
X263613Y1181942D01*
X260442Y1185113D01*
X258725Y1189257D01*
X258725Y1193743D01*
X260442Y1197887D01*
X263613Y1201058D01*
X267757Y1202775D01*
X272243Y1202775D01*
X276387Y1201058D01*
X279558Y1197887D01*
X281275Y1193743D01*
X281275Y1189257D01*
X279558Y1185113D01*
X276387Y1181942D01*
X272243Y1180225D01*
X267757Y1180225D01*
G37*
%LPD*%
%LPC*%
G36*
X426257Y1238725D02*
X426257Y1238725D01*
X422113Y1240442D01*
X418942Y1243613D01*
X417225Y1247757D01*
X417225Y1252243D01*
X418942Y1256387D01*
X422113Y1259558D01*
X426257Y1261275D01*
X430743Y1261275D01*
X434887Y1259558D01*
X438058Y1256387D01*
X439775Y1252243D01*
X439775Y1247757D01*
X438058Y1243613D01*
X434887Y1240442D01*
X430743Y1238725D01*
X426257Y1238725D01*
G37*
%LPD*%
%LPC*%
G36*
X141317Y940827D02*
X141317Y940827D01*
X137303Y942490D01*
X134230Y945563D01*
X132567Y949577D01*
X132567Y953923D01*
X134230Y957937D01*
X137303Y961010D01*
X141317Y962673D01*
X145663Y962673D01*
X149677Y961010D01*
X152750Y957937D01*
X154413Y953923D01*
X154413Y949577D01*
X152750Y945563D01*
X149677Y942490D01*
X145663Y940827D01*
X141317Y940827D01*
G37*
%LPD*%
%LPC*%
G36*
X587827Y1375267D02*
X587827Y1375267D01*
X583813Y1376930D01*
X580740Y1380003D01*
X579077Y1384017D01*
X579077Y1388363D01*
X580740Y1392377D01*
X583813Y1395450D01*
X587827Y1397113D01*
X592173Y1397113D01*
X596187Y1395450D01*
X599260Y1392377D01*
X600923Y1388363D01*
X600923Y1384017D01*
X599260Y1380003D01*
X596187Y1376930D01*
X592173Y1375267D01*
X587827Y1375267D01*
G37*
%LPD*%
%LPC*%
G36*
X47827Y914157D02*
X47827Y914157D01*
X43813Y915820D01*
X40740Y918893D01*
X39077Y922907D01*
X39077Y927253D01*
X40740Y931267D01*
X43813Y934340D01*
X47827Y936003D01*
X52173Y936003D01*
X56187Y934340D01*
X59260Y931267D01*
X60923Y927253D01*
X60923Y922907D01*
X59260Y918893D01*
X56187Y915820D01*
X52173Y914157D01*
X47827Y914157D01*
G37*
%LPD*%
%LPC*%
G36*
X77827Y1209227D02*
X77827Y1209227D01*
X73813Y1210890D01*
X70740Y1213963D01*
X69077Y1217977D01*
X69077Y1222323D01*
X70740Y1226337D01*
X73813Y1229410D01*
X77827Y1231073D01*
X82173Y1231073D01*
X86187Y1229410D01*
X89260Y1226337D01*
X90923Y1222323D01*
X90923Y1217977D01*
X89260Y1213963D01*
X86187Y1210890D01*
X82173Y1209227D01*
X77827Y1209227D01*
G37*
%LPD*%
%LPC*%
G36*
X129577Y797807D02*
X129577Y797807D01*
X125563Y799470D01*
X122490Y802543D01*
X120827Y806557D01*
X120827Y810903D01*
X122490Y814917D01*
X125563Y817990D01*
X129577Y819653D01*
X133923Y819653D01*
X137937Y817990D01*
X141010Y814917D01*
X142673Y810903D01*
X142673Y806557D01*
X141010Y802543D01*
X137937Y799470D01*
X133923Y797807D01*
X129577Y797807D01*
G37*
%LPD*%
%LPC*%
G36*
X47827Y939557D02*
X47827Y939557D01*
X43813Y941220D01*
X40740Y944293D01*
X39077Y948307D01*
X39077Y952653D01*
X40740Y956667D01*
X43813Y959740D01*
X47827Y961403D01*
X52173Y961403D01*
X56187Y959740D01*
X59260Y956667D01*
X60923Y952653D01*
X60923Y948307D01*
X59260Y944293D01*
X56187Y941220D01*
X52173Y939557D01*
X47827Y939557D01*
G37*
%LPD*%
%LPC*%
G36*
X562427Y1375267D02*
X562427Y1375267D01*
X558413Y1376930D01*
X555340Y1380003D01*
X553677Y1384017D01*
X553677Y1388363D01*
X555340Y1392377D01*
X558413Y1395450D01*
X562427Y1397113D01*
X566773Y1397113D01*
X570787Y1395450D01*
X573860Y1392377D01*
X575523Y1388363D01*
X575523Y1384017D01*
X573860Y1380003D01*
X570787Y1376930D01*
X566773Y1375267D01*
X562427Y1375267D01*
G37*
%LPD*%
%LPC*%
G36*
X613227Y1375267D02*
X613227Y1375267D01*
X609213Y1376930D01*
X606140Y1380003D01*
X604477Y1384017D01*
X604477Y1388363D01*
X606140Y1392377D01*
X609213Y1395450D01*
X613227Y1397113D01*
X617573Y1397113D01*
X621587Y1395450D01*
X624660Y1392377D01*
X626323Y1388363D01*
X626323Y1384017D01*
X624660Y1380003D01*
X621587Y1376930D01*
X617573Y1375267D01*
X613227Y1375267D01*
G37*
%LPD*%
%LPC*%
G36*
X104177Y797807D02*
X104177Y797807D01*
X100163Y799470D01*
X97090Y802543D01*
X95427Y806557D01*
X95427Y810903D01*
X97090Y814917D01*
X100163Y817990D01*
X104177Y819653D01*
X108523Y819653D01*
X112537Y817990D01*
X115610Y814917D01*
X117273Y810903D01*
X117273Y806557D01*
X115610Y802543D01*
X112537Y799470D01*
X108523Y797807D01*
X104177Y797807D01*
G37*
%LPD*%
%LPC*%
G36*
X577827Y989077D02*
X577827Y989077D01*
X573813Y990740D01*
X570740Y993813D01*
X569077Y997827D01*
X569077Y1002173D01*
X570740Y1006187D01*
X573813Y1009260D01*
X577827Y1010923D01*
X582173Y1010923D01*
X586187Y1009260D01*
X589260Y1006187D01*
X590923Y1002173D01*
X590923Y997827D01*
X589260Y993813D01*
X586187Y990740D01*
X582173Y989077D01*
X577827Y989077D01*
G37*
%LPD*%
%LPC*%
G36*
X342406Y1173113D02*
X342406Y1173113D01*
X336603Y1178916D01*
X336603Y1187124D01*
X342406Y1192927D01*
X350614Y1192927D01*
X356417Y1187124D01*
X356417Y1178916D01*
X350614Y1173113D01*
X342406Y1173113D01*
G37*
%LPD*%
%LPC*%
G36*
X383516Y1173113D02*
X383516Y1173113D01*
X377713Y1178916D01*
X377713Y1187124D01*
X383516Y1192927D01*
X391724Y1192927D01*
X397527Y1187124D01*
X397527Y1178916D01*
X391724Y1173113D01*
X383516Y1173113D01*
G37*
%LPD*%
%LPC*%
G36*
X342406Y1071513D02*
X342406Y1071513D01*
X336603Y1077316D01*
X336603Y1085524D01*
X342406Y1091327D01*
X350614Y1091327D01*
X356417Y1085524D01*
X356417Y1077316D01*
X350614Y1071513D01*
X342406Y1071513D01*
G37*
%LPD*%
%LPC*%
G36*
X383516Y1071513D02*
X383516Y1071513D01*
X377713Y1077316D01*
X377713Y1085524D01*
X383516Y1091327D01*
X391724Y1091327D01*
X397527Y1085524D01*
X397527Y1077316D01*
X391724Y1071513D01*
X383516Y1071513D01*
G37*
%LPD*%
%LPC*%
G36*
X400976Y936753D02*
X400976Y936753D01*
X395173Y942556D01*
X395173Y950764D01*
X400976Y956567D01*
X409184Y956567D01*
X414987Y950764D01*
X414987Y942556D01*
X409184Y936753D01*
X400976Y936753D01*
G37*
%LPD*%
%LPC*%
G36*
X425096Y980093D02*
X425096Y980093D01*
X419293Y985896D01*
X419293Y994104D01*
X425096Y999907D01*
X433304Y999907D01*
X439107Y994104D01*
X439107Y985896D01*
X433304Y980093D01*
X425096Y980093D01*
G37*
%LPD*%
%LPC*%
G36*
X123523Y1356443D02*
X123523Y1356443D01*
X123523Y1375014D01*
X125934Y1374696D01*
X128481Y1374014D01*
X130918Y1373004D01*
X133202Y1371686D01*
X135295Y1370080D01*
X137160Y1368215D01*
X138766Y1366122D01*
X140084Y1363838D01*
X141094Y1361401D01*
X141776Y1358854D01*
X142094Y1356443D01*
X123523Y1356443D01*
G37*
%LPD*%
%LPC*%
G36*
X123523Y1091523D02*
X123523Y1091523D01*
X123523Y1110094D01*
X125934Y1109776D01*
X128481Y1109094D01*
X130918Y1108084D01*
X133202Y1106766D01*
X135295Y1105160D01*
X137160Y1103295D01*
X138766Y1101202D01*
X140084Y1098918D01*
X141094Y1096481D01*
X141776Y1093934D01*
X142094Y1091523D01*
X123523Y1091523D01*
G37*
%LPD*%
%LPC*%
G36*
X123523Y1353397D02*
X123523Y1353397D01*
X142094Y1353397D01*
X141776Y1350986D01*
X141094Y1348439D01*
X140084Y1346002D01*
X138766Y1343718D01*
X137160Y1341625D01*
X135295Y1339760D01*
X133202Y1338154D01*
X130918Y1336836D01*
X128481Y1335826D01*
X125934Y1335144D01*
X123523Y1334826D01*
X123523Y1353397D01*
G37*
%LPD*%
%LPC*%
G36*
X101906Y1091523D02*
X101906Y1091523D01*
X102224Y1093934D01*
X102906Y1096481D01*
X103916Y1098918D01*
X105234Y1101202D01*
X106840Y1103295D01*
X108705Y1105160D01*
X110798Y1106766D01*
X113082Y1108084D01*
X115519Y1109094D01*
X118066Y1109776D01*
X120477Y1110094D01*
X120477Y1091523D01*
X101906Y1091523D01*
G37*
%LPD*%
%LPC*%
G36*
X123523Y1088477D02*
X123523Y1088477D01*
X142094Y1088477D01*
X141776Y1086066D01*
X141094Y1083519D01*
X140084Y1081082D01*
X138766Y1078798D01*
X137160Y1076705D01*
X135295Y1074840D01*
X133202Y1073234D01*
X130918Y1071916D01*
X128481Y1070906D01*
X125934Y1070224D01*
X123523Y1069906D01*
X123523Y1088477D01*
G37*
%LPD*%
%LPC*%
G36*
X101906Y1356443D02*
X101906Y1356443D01*
X102224Y1358854D01*
X102906Y1361401D01*
X103916Y1363838D01*
X105234Y1366122D01*
X106840Y1368215D01*
X108705Y1370080D01*
X110798Y1371686D01*
X113082Y1373004D01*
X115519Y1374014D01*
X118066Y1374696D01*
X120477Y1375014D01*
X120477Y1356443D01*
X101906Y1356443D01*
G37*
%LPD*%
%LPC*%
G36*
X118066Y1070224D02*
X118066Y1070224D01*
X115519Y1070906D01*
X113082Y1071916D01*
X110798Y1073234D01*
X108705Y1074840D01*
X106840Y1076705D01*
X105234Y1078798D01*
X103916Y1081082D01*
X102906Y1083519D01*
X102224Y1086066D01*
X101906Y1088477D01*
X120477Y1088477D01*
X120477Y1069906D01*
X118066Y1070224D01*
G37*
%LPD*%
%LPC*%
G36*
X118066Y1335144D02*
X118066Y1335144D01*
X115519Y1335826D01*
X113082Y1336836D01*
X110798Y1338154D01*
X108705Y1339760D01*
X106840Y1341625D01*
X105234Y1343718D01*
X103916Y1346002D01*
X102906Y1348439D01*
X102224Y1350986D01*
X101906Y1353397D01*
X120477Y1353397D01*
X120477Y1334826D01*
X118066Y1335144D01*
G37*
%LPD*%
%LPC*%
G36*
X357082Y944799D02*
X357082Y944799D01*
X356189Y945692D01*
X356189Y959148D01*
X357082Y960041D01*
X370538Y960041D01*
X371431Y959148D01*
X371431Y945692D01*
X370538Y944799D01*
X357082Y944799D01*
G37*
%LPD*%
%LPC*%
G36*
X195772Y1162379D02*
X195772Y1162379D01*
X194879Y1163272D01*
X194879Y1176728D01*
X195772Y1177621D01*
X209228Y1177621D01*
X210121Y1176728D01*
X210121Y1163272D01*
X209228Y1162379D01*
X195772Y1162379D01*
G37*
%LPD*%
%LPC*%
G36*
X175833Y1161617D02*
X175833Y1161617D01*
X172752Y1162893D01*
X170393Y1165252D01*
X169117Y1168333D01*
X169117Y1171667D01*
X170393Y1174748D01*
X172752Y1177107D01*
X175833Y1178383D01*
X179167Y1178383D01*
X182248Y1177107D01*
X184607Y1174748D01*
X185883Y1171667D01*
X185883Y1168333D01*
X184607Y1165252D01*
X182248Y1162893D01*
X179167Y1161617D01*
X175833Y1161617D01*
G37*
%LPD*%
%LPC*%
G36*
X375833Y891617D02*
X375833Y891617D01*
X372752Y892893D01*
X370393Y895252D01*
X369117Y898333D01*
X369117Y901667D01*
X370393Y904748D01*
X372752Y907107D01*
X375833Y908383D01*
X379167Y908383D01*
X382248Y907107D01*
X384607Y904748D01*
X385883Y901667D01*
X385883Y898333D01*
X384607Y895252D01*
X382248Y892893D01*
X379167Y891617D01*
X375833Y891617D01*
G37*
%LPD*%
%LPC*%
G36*
X562823Y1074091D02*
X562823Y1074091D01*
X558061Y1078853D01*
X558061Y1085587D01*
X562823Y1090349D01*
X569557Y1090349D01*
X574319Y1085587D01*
X574319Y1078853D01*
X569557Y1074091D01*
X562823Y1074091D01*
G37*
%LPD*%
%LPC*%
G36*
X206633Y782821D02*
X206633Y782821D01*
X201871Y787583D01*
X201871Y794317D01*
X206633Y799079D01*
X213367Y799079D01*
X218129Y794317D01*
X218129Y787583D01*
X213367Y782821D01*
X206633Y782821D01*
G37*
%LPD*%
%LPC*%
G36*
X294573Y1125521D02*
X294573Y1125521D01*
X289811Y1130283D01*
X289811Y1137017D01*
X294573Y1141779D01*
X301307Y1141779D01*
X306069Y1137017D01*
X306069Y1130283D01*
X301307Y1125521D01*
X294573Y1125521D01*
G37*
%LPD*%
%LPC*%
G36*
X39523Y1356443D02*
X39523Y1356443D01*
X39523Y1368641D01*
X41229Y1368371D01*
X43294Y1367700D01*
X45228Y1366715D01*
X46984Y1365439D01*
X48519Y1363904D01*
X49795Y1362148D01*
X50780Y1360214D01*
X51451Y1358149D01*
X51721Y1356443D01*
X39523Y1356443D01*
G37*
%LPD*%
%LPC*%
G36*
X39523Y1091523D02*
X39523Y1091523D01*
X39523Y1103721D01*
X41229Y1103451D01*
X43294Y1102780D01*
X45228Y1101795D01*
X46984Y1100519D01*
X48519Y1098984D01*
X49795Y1097228D01*
X50780Y1095294D01*
X51451Y1093229D01*
X51721Y1091523D01*
X39523Y1091523D01*
G37*
%LPD*%
%LPC*%
G36*
X24279Y1356443D02*
X24279Y1356443D01*
X24549Y1358149D01*
X25220Y1360214D01*
X26205Y1362148D01*
X27481Y1363904D01*
X29016Y1365439D01*
X30772Y1366715D01*
X32706Y1367700D01*
X34771Y1368371D01*
X36477Y1368641D01*
X36477Y1356443D01*
X24279Y1356443D01*
G37*
%LPD*%
%LPC*%
G36*
X39523Y1353397D02*
X39523Y1353397D01*
X51721Y1353397D01*
X51451Y1351691D01*
X50780Y1349626D01*
X49795Y1347692D01*
X48519Y1345936D01*
X46984Y1344401D01*
X45228Y1343125D01*
X43294Y1342140D01*
X41229Y1341469D01*
X39523Y1341199D01*
X39523Y1353397D01*
G37*
%LPD*%
%LPC*%
G36*
X39523Y1088477D02*
X39523Y1088477D01*
X51721Y1088477D01*
X51451Y1086771D01*
X50780Y1084706D01*
X49795Y1082772D01*
X48519Y1081016D01*
X46984Y1079481D01*
X45228Y1078205D01*
X43294Y1077220D01*
X41229Y1076549D01*
X39523Y1076279D01*
X39523Y1088477D01*
G37*
%LPD*%
%LPC*%
G36*
X24279Y1091523D02*
X24279Y1091523D01*
X24549Y1093229D01*
X25220Y1095294D01*
X26205Y1097228D01*
X27481Y1098984D01*
X29016Y1100519D01*
X30772Y1101795D01*
X32706Y1102780D01*
X34771Y1103451D01*
X36477Y1103721D01*
X36477Y1091523D01*
X24279Y1091523D01*
G37*
%LPD*%
%LPC*%
G36*
X34771Y1341469D02*
X34771Y1341469D01*
X32706Y1342140D01*
X30772Y1343125D01*
X29016Y1344401D01*
X27481Y1345936D01*
X26205Y1347692D01*
X25220Y1349626D01*
X24549Y1351691D01*
X24279Y1353397D01*
X36477Y1353397D01*
X36477Y1341199D01*
X34771Y1341469D01*
G37*
%LPD*%
%LPC*%
G36*
X34771Y1076549D02*
X34771Y1076549D01*
X32706Y1077220D01*
X30772Y1078205D01*
X29016Y1079481D01*
X27481Y1081016D01*
X26205Y1082772D01*
X25220Y1084706D01*
X24549Y1086771D01*
X24279Y1088477D01*
X36477Y1088477D01*
X36477Y1076279D01*
X34771Y1076549D01*
G37*
%LPD*%
%LPC*%
G36*
X243423Y976123D02*
X243423Y976123D01*
X243423Y983745D01*
X249405Y983745D01*
X251171Y983393D01*
X252836Y982704D01*
X254334Y981703D01*
X255607Y980430D01*
X256608Y978932D01*
X257297Y977267D01*
X257525Y976123D01*
X243423Y976123D01*
G37*
%LPD*%
%LPC*%
G36*
X319623Y1052323D02*
X319623Y1052323D01*
X319623Y1059945D01*
X325605Y1059945D01*
X327371Y1059593D01*
X329036Y1058904D01*
X330534Y1057903D01*
X331807Y1056630D01*
X332808Y1055132D01*
X333497Y1053467D01*
X333725Y1052323D01*
X319623Y1052323D01*
G37*
%LPD*%
%LPC*%
G36*
X435803Y1033423D02*
X435803Y1033423D01*
X435803Y1041045D01*
X441785Y1041045D01*
X443551Y1040693D01*
X445216Y1040004D01*
X446714Y1039003D01*
X447987Y1037730D01*
X448988Y1036232D01*
X449677Y1034567D01*
X449905Y1033423D01*
X435803Y1033423D01*
G37*
%LPD*%
%LPC*%
G36*
X243423Y1001523D02*
X243423Y1001523D01*
X243423Y1009145D01*
X249405Y1009145D01*
X251171Y1008793D01*
X252836Y1008104D01*
X254334Y1007103D01*
X255607Y1005830D01*
X256608Y1004332D01*
X257297Y1002667D01*
X257525Y1001523D01*
X243423Y1001523D01*
G37*
%LPD*%
%LPC*%
G36*
X243423Y950723D02*
X243423Y950723D01*
X243423Y958345D01*
X249405Y958345D01*
X251171Y957993D01*
X252836Y957304D01*
X254334Y956303D01*
X255607Y955030D01*
X256608Y953532D01*
X257297Y951867D01*
X257525Y950723D01*
X243423Y950723D01*
G37*
%LPD*%
%LPC*%
G36*
X243423Y1026923D02*
X243423Y1026923D01*
X243423Y1034545D01*
X249405Y1034545D01*
X251171Y1034193D01*
X252836Y1033504D01*
X254334Y1032503D01*
X255607Y1031230D01*
X256608Y1029732D01*
X257297Y1028067D01*
X257525Y1026923D01*
X243423Y1026923D01*
G37*
%LPD*%
%LPC*%
G36*
X319623Y1026923D02*
X319623Y1026923D01*
X319623Y1034545D01*
X325605Y1034545D01*
X327371Y1034193D01*
X329036Y1033504D01*
X330534Y1032503D01*
X331807Y1031230D01*
X332808Y1029732D01*
X333497Y1028067D01*
X333725Y1026923D01*
X319623Y1026923D01*
G37*
%LPD*%
%LPC*%
G36*
X302475Y1026923D02*
X302475Y1026923D01*
X302703Y1028067D01*
X303392Y1029732D01*
X304393Y1031230D01*
X305666Y1032503D01*
X307164Y1033504D01*
X308829Y1034193D01*
X310595Y1034545D01*
X316577Y1034545D01*
X316577Y1026923D01*
X302475Y1026923D01*
G37*
%LPD*%
%LPC*%
G36*
X226275Y1026923D02*
X226275Y1026923D01*
X226503Y1028067D01*
X227192Y1029732D01*
X228193Y1031230D01*
X229466Y1032503D01*
X230964Y1033504D01*
X232629Y1034193D01*
X234395Y1034545D01*
X240377Y1034545D01*
X240377Y1026923D01*
X226275Y1026923D01*
G37*
%LPD*%
%LPC*%
G36*
X226275Y976123D02*
X226275Y976123D01*
X226503Y977267D01*
X227192Y978932D01*
X228193Y980430D01*
X229466Y981703D01*
X230964Y982704D01*
X232629Y983393D01*
X234395Y983745D01*
X240377Y983745D01*
X240377Y976123D01*
X226275Y976123D01*
G37*
%LPD*%
%LPC*%
G36*
X226275Y925323D02*
X226275Y925323D01*
X226503Y926467D01*
X227192Y928132D01*
X228193Y929630D01*
X229466Y930903D01*
X230964Y931904D01*
X232629Y932593D01*
X234395Y932945D01*
X240377Y932945D01*
X240377Y925323D01*
X226275Y925323D01*
G37*
%LPD*%
%LPC*%
G36*
X226275Y1001523D02*
X226275Y1001523D01*
X226503Y1002667D01*
X227192Y1004332D01*
X228193Y1005830D01*
X229466Y1007103D01*
X230964Y1008104D01*
X232629Y1008793D01*
X234395Y1009145D01*
X240377Y1009145D01*
X240377Y1001523D01*
X226275Y1001523D01*
G37*
%LPD*%
%LPC*%
G36*
X302475Y976123D02*
X302475Y976123D01*
X302703Y977267D01*
X303392Y978932D01*
X304393Y980430D01*
X305666Y981703D01*
X307164Y982704D01*
X308829Y983393D01*
X310595Y983745D01*
X316577Y983745D01*
X316577Y976123D01*
X302475Y976123D01*
G37*
%LPD*%
%LPC*%
G36*
X302475Y1001523D02*
X302475Y1001523D01*
X302703Y1002667D01*
X303392Y1004332D01*
X304393Y1005830D01*
X305666Y1007103D01*
X307164Y1008104D01*
X308829Y1008793D01*
X310595Y1009145D01*
X316577Y1009145D01*
X316577Y1001523D01*
X302475Y1001523D01*
G37*
%LPD*%
%LPC*%
G36*
X302475Y1052323D02*
X302475Y1052323D01*
X302703Y1053467D01*
X303392Y1055132D01*
X304393Y1056630D01*
X305666Y1057903D01*
X307164Y1058904D01*
X308829Y1059593D01*
X310595Y1059945D01*
X316577Y1059945D01*
X316577Y1052323D01*
X302475Y1052323D01*
G37*
%LPD*%
%LPC*%
G36*
X226275Y950723D02*
X226275Y950723D01*
X226503Y951867D01*
X227192Y953532D01*
X228193Y955030D01*
X229466Y956303D01*
X230964Y957304D01*
X232629Y957993D01*
X234395Y958345D01*
X240377Y958345D01*
X240377Y950723D01*
X226275Y950723D01*
G37*
%LPD*%
%LPC*%
G36*
X418655Y1033423D02*
X418655Y1033423D01*
X418883Y1034567D01*
X419572Y1036232D01*
X420573Y1037730D01*
X421846Y1039003D01*
X423344Y1040004D01*
X425009Y1040693D01*
X426775Y1041045D01*
X432757Y1041045D01*
X432757Y1033423D01*
X418655Y1033423D01*
G37*
%LPD*%
%LPC*%
G36*
X243423Y1016255D02*
X243423Y1016255D01*
X243423Y1023877D01*
X257525Y1023877D01*
X257297Y1022733D01*
X256608Y1021068D01*
X255607Y1019570D01*
X254334Y1018297D01*
X252836Y1017296D01*
X251171Y1016607D01*
X249405Y1016255D01*
X243423Y1016255D01*
G37*
%LPD*%
%LPC*%
G36*
X319623Y1016255D02*
X319623Y1016255D01*
X319623Y1023877D01*
X333725Y1023877D01*
X333497Y1022733D01*
X332808Y1021068D01*
X331807Y1019570D01*
X330534Y1018297D01*
X329036Y1017296D01*
X327371Y1016607D01*
X325605Y1016255D01*
X319623Y1016255D01*
G37*
%LPD*%
%LPC*%
G36*
X243423Y940055D02*
X243423Y940055D01*
X243423Y947677D01*
X257525Y947677D01*
X257297Y946533D01*
X256608Y944868D01*
X255607Y943370D01*
X254334Y942097D01*
X252836Y941096D01*
X251171Y940407D01*
X249405Y940055D01*
X243423Y940055D01*
G37*
%LPD*%
%LPC*%
G36*
X243423Y965455D02*
X243423Y965455D01*
X243423Y973077D01*
X257525Y973077D01*
X257297Y971933D01*
X256608Y970268D01*
X255607Y968770D01*
X254334Y967497D01*
X252836Y966496D01*
X251171Y965807D01*
X249405Y965455D01*
X243423Y965455D01*
G37*
%LPD*%
%LPC*%
G36*
X319623Y1041655D02*
X319623Y1041655D01*
X319623Y1049277D01*
X333725Y1049277D01*
X333497Y1048133D01*
X332808Y1046468D01*
X331807Y1044970D01*
X330534Y1043697D01*
X329036Y1042696D01*
X327371Y1042007D01*
X325605Y1041655D01*
X319623Y1041655D01*
G37*
%LPD*%
%LPC*%
G36*
X435803Y1022755D02*
X435803Y1022755D01*
X435803Y1030377D01*
X449905Y1030377D01*
X449677Y1029233D01*
X448988Y1027568D01*
X447987Y1026070D01*
X446714Y1024797D01*
X445216Y1023796D01*
X443551Y1023107D01*
X441785Y1022755D01*
X435803Y1022755D01*
G37*
%LPD*%
%LPC*%
G36*
X243423Y990855D02*
X243423Y990855D01*
X243423Y998477D01*
X257525Y998477D01*
X257297Y997333D01*
X256608Y995668D01*
X255607Y994170D01*
X254334Y992897D01*
X252836Y991896D01*
X251171Y991207D01*
X249405Y990855D01*
X243423Y990855D01*
G37*
%LPD*%
%LPC*%
G36*
X234395Y940055D02*
X234395Y940055D01*
X232629Y940407D01*
X230964Y941096D01*
X229466Y942097D01*
X228193Y943370D01*
X227192Y944868D01*
X226503Y946533D01*
X226275Y947677D01*
X240377Y947677D01*
X240377Y940055D01*
X234395Y940055D01*
G37*
%LPD*%
%LPC*%
G36*
X310595Y1041655D02*
X310595Y1041655D01*
X308829Y1042007D01*
X307164Y1042696D01*
X305666Y1043697D01*
X304393Y1044970D01*
X303392Y1046468D01*
X302703Y1048133D01*
X302475Y1049277D01*
X316577Y1049277D01*
X316577Y1041655D01*
X310595Y1041655D01*
G37*
%LPD*%
%LPC*%
G36*
X310595Y990855D02*
X310595Y990855D01*
X308829Y991207D01*
X307164Y991896D01*
X305666Y992897D01*
X304393Y994170D01*
X303392Y995668D01*
X302703Y997333D01*
X302475Y998477D01*
X316577Y998477D01*
X316577Y990855D01*
X310595Y990855D01*
G37*
%LPD*%
%LPC*%
G36*
X234395Y965455D02*
X234395Y965455D01*
X232629Y965807D01*
X230964Y966496D01*
X229466Y967497D01*
X228193Y968770D01*
X227192Y970268D01*
X226503Y971933D01*
X226275Y973077D01*
X240377Y973077D01*
X240377Y965455D01*
X234395Y965455D01*
G37*
%LPD*%
%LPC*%
G36*
X234395Y990855D02*
X234395Y990855D01*
X232629Y991207D01*
X230964Y991896D01*
X229466Y992897D01*
X228193Y994170D01*
X227192Y995668D01*
X226503Y997333D01*
X226275Y998477D01*
X240377Y998477D01*
X240377Y990855D01*
X234395Y990855D01*
G37*
%LPD*%
%LPC*%
G36*
X426775Y1022755D02*
X426775Y1022755D01*
X425009Y1023107D01*
X423344Y1023796D01*
X421846Y1024797D01*
X420573Y1026070D01*
X419572Y1027568D01*
X418883Y1029233D01*
X418655Y1030377D01*
X432757Y1030377D01*
X432757Y1022755D01*
X426775Y1022755D01*
G37*
%LPD*%
%LPC*%
G36*
X310595Y1016255D02*
X310595Y1016255D01*
X308829Y1016607D01*
X307164Y1017296D01*
X305666Y1018297D01*
X304393Y1019570D01*
X303392Y1021068D01*
X302703Y1022733D01*
X302475Y1023877D01*
X316577Y1023877D01*
X316577Y1016255D01*
X310595Y1016255D01*
G37*
%LPD*%
%LPC*%
G36*
X234395Y1016255D02*
X234395Y1016255D01*
X232629Y1016607D01*
X230964Y1017296D01*
X229466Y1018297D01*
X228193Y1019570D01*
X227192Y1021068D01*
X226503Y1022733D01*
X226275Y1023877D01*
X240377Y1023877D01*
X240377Y1016255D01*
X234395Y1016255D01*
G37*
%LPD*%
%LPC*%
G36*
X310595Y965455D02*
X310595Y965455D01*
X308829Y965807D01*
X307164Y966496D01*
X305666Y967497D01*
X304393Y968770D01*
X303392Y970268D01*
X302703Y971933D01*
X302475Y973077D01*
X316577Y973077D01*
X316577Y965455D01*
X310595Y965455D01*
G37*
%LPD*%
%LPC*%
G36*
X271523Y1393023D02*
X271523Y1393023D01*
X271523Y1403703D01*
X272878Y1403488D01*
X274718Y1402890D01*
X276442Y1402012D01*
X278007Y1400875D01*
X279375Y1399507D01*
X280512Y1397942D01*
X281390Y1396218D01*
X281988Y1394378D01*
X282203Y1393023D01*
X271523Y1393023D01*
G37*
%LPD*%
%LPC*%
G36*
X257797Y1393023D02*
X257797Y1393023D01*
X258012Y1394378D01*
X258610Y1396218D01*
X259488Y1397942D01*
X260625Y1399507D01*
X261993Y1400875D01*
X263558Y1402012D01*
X265282Y1402890D01*
X267122Y1403488D01*
X268477Y1403703D01*
X268477Y1393023D01*
X257797Y1393023D01*
G37*
%LPD*%
%LPC*%
G36*
X271523Y1389977D02*
X271523Y1389977D01*
X282203Y1389977D01*
X281988Y1388622D01*
X281390Y1386782D01*
X280512Y1385058D01*
X279375Y1383493D01*
X278007Y1382125D01*
X276442Y1380988D01*
X274718Y1380110D01*
X272878Y1379512D01*
X271523Y1379297D01*
X271523Y1389977D01*
G37*
%LPD*%
%LPC*%
G36*
X267122Y1379512D02*
X267122Y1379512D01*
X265282Y1380110D01*
X263558Y1380988D01*
X261993Y1382125D01*
X260625Y1383493D01*
X259488Y1385058D01*
X258610Y1386782D01*
X258012Y1388622D01*
X257797Y1389977D01*
X268477Y1389977D01*
X268477Y1379297D01*
X267122Y1379512D01*
G37*
%LPD*%
%LPC*%
G36*
X56123Y1221673D02*
X56123Y1221673D01*
X56123Y1231996D01*
X57396Y1231795D01*
X59183Y1231214D01*
X60857Y1230361D01*
X62378Y1229256D01*
X63706Y1227928D01*
X64811Y1226407D01*
X65664Y1224733D01*
X66245Y1222946D01*
X66446Y1221673D01*
X56123Y1221673D01*
G37*
%LPD*%
%LPC*%
G36*
X451523Y1405655D02*
X451523Y1405655D01*
X461846Y1405655D01*
X461645Y1404382D01*
X461064Y1402595D01*
X460211Y1400921D01*
X459106Y1399400D01*
X457778Y1398072D01*
X456257Y1396967D01*
X454583Y1396114D01*
X452796Y1395533D01*
X451523Y1395332D01*
X451523Y1405655D01*
G37*
%LPD*%
%LPC*%
G36*
X42754Y1221673D02*
X42754Y1221673D01*
X42955Y1222946D01*
X43536Y1224733D01*
X44389Y1226407D01*
X45494Y1227928D01*
X46822Y1229256D01*
X48343Y1230361D01*
X50017Y1231214D01*
X51804Y1231795D01*
X53077Y1231996D01*
X53077Y1221673D01*
X42754Y1221673D01*
G37*
%LPD*%
%LPC*%
G36*
X56123Y1218627D02*
X56123Y1218627D01*
X66446Y1218627D01*
X66245Y1217354D01*
X65664Y1215567D01*
X64811Y1213893D01*
X63706Y1212372D01*
X62378Y1211044D01*
X60857Y1209939D01*
X59183Y1209086D01*
X57396Y1208505D01*
X56123Y1208304D01*
X56123Y1218627D01*
G37*
%LPD*%
%LPC*%
G36*
X411523Y1405655D02*
X411523Y1405655D01*
X421846Y1405655D01*
X421645Y1404382D01*
X421064Y1402595D01*
X420211Y1400921D01*
X419106Y1399400D01*
X417778Y1398072D01*
X416257Y1396967D01*
X414583Y1396114D01*
X412796Y1395533D01*
X411523Y1395332D01*
X411523Y1405655D01*
G37*
%LPD*%
%LPC*%
G36*
X407204Y1395533D02*
X407204Y1395533D01*
X405417Y1396114D01*
X403743Y1396967D01*
X402222Y1398072D01*
X400894Y1399400D01*
X399789Y1400921D01*
X398936Y1402595D01*
X398355Y1404382D01*
X398154Y1405655D01*
X408477Y1405655D01*
X408477Y1395332D01*
X407204Y1395533D01*
G37*
%LPD*%
%LPC*%
G36*
X447204Y1395533D02*
X447204Y1395533D01*
X445417Y1396114D01*
X443743Y1396967D01*
X442222Y1398072D01*
X440894Y1399400D01*
X439789Y1400921D01*
X438936Y1402595D01*
X438355Y1404382D01*
X438154Y1405655D01*
X448477Y1405655D01*
X448477Y1395332D01*
X447204Y1395533D01*
G37*
%LPD*%
%LPC*%
G36*
X51804Y1208505D02*
X51804Y1208505D01*
X50017Y1209086D01*
X48343Y1209939D01*
X46822Y1211044D01*
X45494Y1212372D01*
X44389Y1213893D01*
X43536Y1215567D01*
X42955Y1217354D01*
X42754Y1218627D01*
X53077Y1218627D01*
X53077Y1208304D01*
X51804Y1208505D01*
G37*
%LPD*%
%LPC*%
G36*
X532323Y991523D02*
X532323Y991523D01*
X532323Y1000923D01*
X535324Y1000923D01*
X541723Y994524D01*
X541723Y991523D01*
X532323Y991523D01*
G37*
%LPD*%
%LPC*%
G36*
X250723Y861523D02*
X250723Y861523D01*
X250723Y870923D01*
X253724Y870923D01*
X260123Y864524D01*
X260123Y861523D01*
X250723Y861523D01*
G37*
%LPD*%
%LPC*%
G36*
X519877Y991523D02*
X519877Y991523D01*
X519877Y994524D01*
X526276Y1000923D01*
X529277Y1000923D01*
X529277Y991523D01*
X519877Y991523D01*
G37*
%LPD*%
%LPC*%
G36*
X532323Y979077D02*
X532323Y979077D01*
X532323Y988477D01*
X541723Y988477D01*
X541723Y985476D01*
X535324Y979077D01*
X532323Y979077D01*
G37*
%LPD*%
%LPC*%
G36*
X238277Y861523D02*
X238277Y861523D01*
X238277Y864524D01*
X244676Y870923D01*
X247677Y870923D01*
X247677Y861523D01*
X238277Y861523D01*
G37*
%LPD*%
%LPC*%
G36*
X250723Y849077D02*
X250723Y849077D01*
X250723Y858477D01*
X260123Y858477D01*
X260123Y855476D01*
X253724Y849077D01*
X250723Y849077D01*
G37*
%LPD*%
%LPC*%
G36*
X526276Y979077D02*
X526276Y979077D01*
X519877Y985476D01*
X519877Y988477D01*
X529277Y988477D01*
X529277Y979077D01*
X526276Y979077D01*
G37*
%LPD*%
%LPC*%
G36*
X244676Y849077D02*
X244676Y849077D01*
X238277Y855476D01*
X238277Y858477D01*
X247677Y858477D01*
X247677Y849077D01*
X244676Y849077D01*
G37*
%LPD*%
%LPC*%
G36*
X365333Y978943D02*
X365333Y978943D01*
X365333Y986700D01*
X366551Y986458D01*
X368262Y985749D01*
X369801Y984720D01*
X371110Y983411D01*
X372139Y981872D01*
X372848Y980161D01*
X373090Y978943D01*
X365333Y978943D01*
G37*
%LPD*%
%LPC*%
G36*
X354530Y978943D02*
X354530Y978943D01*
X354772Y980161D01*
X355481Y981872D01*
X356510Y983411D01*
X357819Y984720D01*
X359358Y985749D01*
X361069Y986458D01*
X362287Y986700D01*
X362287Y978943D01*
X354530Y978943D01*
G37*
%LPD*%
%LPC*%
G36*
X365333Y975897D02*
X365333Y975897D01*
X373090Y975897D01*
X372848Y974679D01*
X372139Y972968D01*
X371110Y971429D01*
X369801Y970120D01*
X368262Y969091D01*
X366551Y968382D01*
X365333Y968140D01*
X365333Y975897D01*
G37*
%LPD*%
%LPC*%
G36*
X361069Y968382D02*
X361069Y968382D01*
X359358Y969091D01*
X357819Y970120D01*
X356510Y971429D01*
X355481Y972968D01*
X354772Y974679D01*
X354530Y975897D01*
X362287Y975897D01*
X362287Y968140D01*
X361069Y968382D01*
G37*
%LPD*%
%LPC*%
G36*
X54599Y1220149D02*
X54599Y1220149D01*
X54599Y1220151D01*
X54601Y1220151D01*
X54601Y1220149D01*
X54599Y1220149D01*
G37*
%LPD*%
%LPC*%
G36*
X121999Y1354919D02*
X121999Y1354919D01*
X121999Y1354921D01*
X122001Y1354921D01*
X122001Y1354919D01*
X121999Y1354919D01*
G37*
%LPD*%
%LPC*%
G36*
X241899Y999999D02*
X241899Y999999D01*
X241899Y1000001D01*
X241901Y1000001D01*
X241901Y999999D01*
X241899Y999999D01*
G37*
%LPD*%
%LPC*%
G36*
X530799Y989999D02*
X530799Y989999D01*
X530799Y990001D01*
X530801Y990001D01*
X530801Y989999D01*
X530799Y989999D01*
G37*
%LPD*%
%LPC*%
G36*
X249199Y859999D02*
X249199Y859999D01*
X249199Y860001D01*
X249201Y860001D01*
X249201Y859999D01*
X249199Y859999D01*
G37*
%LPD*%
%LPC*%
G36*
X241899Y949199D02*
X241899Y949199D01*
X241899Y949201D01*
X241901Y949201D01*
X241901Y949199D01*
X241899Y949199D01*
G37*
%LPD*%
%LPC*%
G36*
X121999Y1089999D02*
X121999Y1089999D01*
X121999Y1090001D01*
X122001Y1090001D01*
X122001Y1089999D01*
X121999Y1089999D01*
G37*
%LPD*%
%LPC*%
G36*
X37999Y1354919D02*
X37999Y1354919D01*
X37999Y1354921D01*
X38001Y1354921D01*
X38001Y1354919D01*
X37999Y1354919D01*
G37*
%LPD*%
%LPC*%
G36*
X37999Y1089999D02*
X37999Y1089999D01*
X37999Y1090001D01*
X38001Y1090001D01*
X38001Y1089999D01*
X37999Y1089999D01*
G37*
%LPD*%
%LPC*%
G36*
X318099Y1050799D02*
X318099Y1050799D01*
X318099Y1050801D01*
X318101Y1050801D01*
X318101Y1050799D01*
X318099Y1050799D01*
G37*
%LPD*%
%LPC*%
G36*
X241899Y1025399D02*
X241899Y1025399D01*
X241899Y1025401D01*
X241901Y1025401D01*
X241901Y1025399D01*
X241899Y1025399D01*
G37*
%LPD*%
%LPC*%
G36*
X269999Y1391499D02*
X269999Y1391499D01*
X269999Y1391501D01*
X270001Y1391501D01*
X270001Y1391499D01*
X269999Y1391499D01*
G37*
%LPD*%
%LPC*%
G36*
X318099Y1025399D02*
X318099Y1025399D01*
X318099Y1025401D01*
X318101Y1025401D01*
X318101Y1025399D01*
X318099Y1025399D01*
G37*
%LPD*%
%LPC*%
G36*
X434279Y1031899D02*
X434279Y1031899D01*
X434279Y1031901D01*
X434281Y1031901D01*
X434281Y1031899D01*
X434279Y1031899D01*
G37*
%LPD*%
%LPC*%
G36*
X363809Y977419D02*
X363809Y977419D01*
X363809Y977421D01*
X363811Y977421D01*
X363811Y977419D01*
X363809Y977419D01*
G37*
%LPD*%
%LPC*%
G36*
X241899Y974599D02*
X241899Y974599D01*
X241899Y974601D01*
X241901Y974601D01*
X241901Y974599D01*
X241899Y974599D01*
G37*
%LPD*%
D10*
X222700Y810000D03*
X210000Y790950D03*
X197300Y810000D03*
D11*
X270000Y1391500D03*
X270000Y1191500D03*
X428500Y1250000D03*
X628500Y1250000D03*
D12*
X248504Y1076200D02*
X235296Y1076200D01*
X235296Y1050800D02*
X248504Y1050800D01*
X248504Y974600D02*
X235296Y974600D01*
X235296Y949200D02*
X248504Y949200D01*
X248504Y1025400D02*
X235296Y1025400D01*
X235296Y1000000D02*
X248504Y1000000D01*
X248504Y923800D02*
X235296Y923800D01*
X311496Y923800D02*
X324704Y923800D01*
X324704Y949200D02*
X311496Y949200D01*
X311496Y974600D02*
X324704Y974600D01*
X324704Y1000000D02*
X311496Y1000000D01*
X311496Y1025400D02*
X324704Y1025400D01*
X324704Y1050800D02*
X311496Y1050800D01*
X311496Y1076200D02*
X324704Y1076200D01*
D10*
X247140Y1133650D03*
X297940Y1133650D03*
D13*
X566190Y1082220D03*
X566190Y1133020D03*
D14*
X557620Y522700D02*
X542380Y522700D01*
X542380Y497300D02*
X557620Y497300D01*
D15*
X50000Y950480D03*
X50000Y925080D03*
X50000Y899680D03*
D12*
X427676Y1108100D02*
X440884Y1108100D01*
X440884Y1082700D02*
X427676Y1082700D01*
X503876Y1031900D02*
X517084Y1031900D01*
X517084Y1057300D02*
X503876Y1057300D01*
X440884Y1057300D02*
X427676Y1057300D01*
X427676Y1031900D02*
X440884Y1031900D01*
X503876Y1082700D02*
X517084Y1082700D01*
X517084Y1108100D02*
X503876Y1108100D01*
D15*
X80950Y808730D03*
X106350Y808730D03*
X131750Y808730D03*
D16*
X122000Y1090000D03*
X80000Y1041000D03*
X80000Y1123000D03*
D17*
X38000Y1090000D03*
D16*
X122000Y1354920D03*
X80000Y1305920D03*
X80000Y1387920D03*
D17*
X38000Y1354920D03*
D15*
X564600Y1386190D03*
X590000Y1386190D03*
X615400Y1386190D03*
D18*
X249200Y860000D03*
X350800Y860000D03*
D19*
X346510Y1081420D03*
X346510Y1183020D03*
D20*
X405080Y1048260D03*
X405080Y946660D03*
D19*
X640000Y1079200D03*
X640000Y1180800D03*
D18*
X429200Y990000D03*
X530800Y990000D03*
X249200Y830000D03*
X350800Y830000D03*
X249200Y800000D03*
X350800Y800000D03*
D19*
X387620Y1081420D03*
X387620Y1183020D03*
D21*
X640960Y1045880D03*
X539360Y1045880D03*
D14*
X542380Y197300D02*
X557620Y197300D01*
X557620Y222700D02*
X542380Y222700D01*
D15*
X143490Y900950D03*
X143490Y926350D03*
X143490Y951750D03*
D22*
X202500Y1170000D03*
D23*
X177500Y1170000D03*
D22*
X402500Y900000D03*
D23*
X377500Y900000D03*
D24*
X142700Y620000D02*
X117300Y620000D01*
X117300Y660000D02*
X142700Y660000D01*
X142700Y700000D02*
X117300Y700000D01*
D25*
X32083Y615174D03*
X32083Y705217D03*
D26*
X580000Y830000D03*
X580000Y878000D03*
X580000Y926000D03*
X533000Y926000D03*
X533000Y878000D03*
X533000Y830000D03*
X486000Y830000D03*
X486000Y878000D03*
X486000Y926000D03*
D24*
X142700Y320000D02*
X117300Y320000D01*
X117300Y360000D02*
X142700Y360000D01*
X142700Y400000D02*
X117300Y400000D01*
D25*
X32083Y315174D03*
X32083Y405217D03*
D15*
X580000Y1000000D03*
D22*
X363810Y952420D03*
D23*
X363810Y977420D03*
D27*
X105400Y1220150D03*
D15*
X80000Y1220150D03*
X54600Y1220150D03*
X410000Y1378222D03*
X410000Y1407178D03*
X450000Y1378222D03*
X450000Y1407178D03*
D28*
X610000Y60000D03*
X610000Y190000D03*
X610000Y320000D03*
X610000Y450000D03*
X610000Y580000D03*
X610000Y710000D03*
D29*
X566190Y1133020D02*
X450000Y1249210D01*
X450000Y1378222D01*
X566190Y1133020D02*
X525974Y1092804D01*
X417804Y1060000D02*
X390000Y1060000D01*
X525974Y1079018D02*
X525974Y1092804D01*
X423994Y1066190D02*
X417804Y1060000D01*
X513146Y1066190D02*
X525974Y1079018D01*
X513146Y1066190D02*
X423994Y1066190D01*
X390000Y1060000D02*
X333594Y1003594D01*
X318100Y955424D02*
X318100Y949200D01*
X318100Y955424D02*
X333594Y970918D01*
X333594Y1003594D01*
X318100Y949200D02*
X360000Y907300D01*
X373048Y778737D02*
X371263Y776952D01*
X286952Y776952D01*
X130000Y620000D01*
X373048Y852839D02*
X360000Y865887D01*
X373048Y852839D02*
X373048Y778737D01*
X360000Y865887D02*
X360000Y907300D01*
X410000Y1330000D02*
X410000Y1378222D01*
X300000Y1220000D02*
X300000Y1160000D01*
X250000Y1160000D01*
X247140Y1157140D01*
X247140Y1133650D01*
X300000Y1220000D02*
X410000Y1330000D01*
X143490Y900950D02*
X225550Y818890D01*
X264287Y800000D02*
X350800Y800000D01*
X264287Y800000D02*
X245397Y818890D01*
X225550Y818890D01*
X350800Y830000D02*
X370000Y810800D01*
X370000Y780000D01*
X240000Y780000D01*
X222700Y797300D01*
X222700Y810000D01*
X197300Y810000D02*
X177300Y790000D01*
X80000Y790000D01*
X80000Y807780D01*
X80950Y808730D01*
X510000Y903000D02*
X533000Y926000D01*
X510000Y562700D02*
X550000Y522700D01*
X510000Y562700D02*
X510000Y903000D01*
X318100Y923800D02*
X261076Y923800D01*
X251942Y914666D01*
X64986Y914666D02*
X50000Y899680D01*
X64986Y914666D02*
X251942Y914666D01*
X629540Y1057300D02*
X640960Y1045880D01*
X629540Y1057300D02*
X510480Y1057300D01*
X539360Y1045880D02*
X539360Y1036860D01*
X402500Y900000D01*
X570000Y217300D02*
X550000Y197300D01*
X570000Y793000D02*
X533000Y830000D01*
X570000Y793000D02*
X570000Y217300D01*
X610000Y190000D02*
X610000Y60000D01*
X610000Y190000D02*
X610000Y320000D01*
X610000Y450000D01*
X610000Y580000D01*
X610000Y710000D01*
X610000Y770000D01*
X620000Y780000D01*
X620000Y850000D01*
X612286Y857714D01*
X551311Y878000D02*
X533000Y878000D01*
X571597Y857714D02*
X612286Y857714D01*
X571597Y857714D02*
X551311Y878000D01*
M02*
