G04 EAGLE Gerber RS-274X export*
G75*
%MOMM*%
%FSLAX34Y34*%
%LPD*%
%INTop Copper*%
%IPPOS*%
%AMOC8*
5,1,8,0,0,1.08239X$1,22.5*%
G01*
%ADD10P,1.429621X8X22.500000*%
%ADD11C,1.950000*%
%ADD12C,1.320800*%
%ADD13P,1.429621X8X112.500000*%
%ADD14C,1.524000*%
%ADD15C,1.879600*%
%ADD16C,3.516000*%
%ADD17C,2.250000*%
%ADD18P,1.814519X8X22.500000*%
%ADD19P,1.814519X8X112.500000*%
%ADD20P,1.814519X8X292.500000*%
%ADD21P,1.814519X8X202.500000*%
%ADD22R,1.219200X1.219200*%
%ADD23C,1.371600*%
%ADD24C,2.540000*%
%ADD25C,2.540000*%
%ADD26C,3.600000*%
%ADD27R,1.879600X1.879600*%
%ADD28C,4.500000*%
%ADD29C,0.152400*%


D10*
X222700Y810000D03*
X210000Y790950D03*
X197300Y810000D03*
D11*
X270000Y1391500D03*
X270000Y1191500D03*
X428500Y1250000D03*
X628500Y1250000D03*
D12*
X248504Y1076200D02*
X235296Y1076200D01*
X235296Y1050800D02*
X248504Y1050800D01*
X248504Y974600D02*
X235296Y974600D01*
X235296Y949200D02*
X248504Y949200D01*
X248504Y1025400D02*
X235296Y1025400D01*
X235296Y1000000D02*
X248504Y1000000D01*
X248504Y923800D02*
X235296Y923800D01*
X311496Y923800D02*
X324704Y923800D01*
X324704Y949200D02*
X311496Y949200D01*
X311496Y974600D02*
X324704Y974600D01*
X324704Y1000000D02*
X311496Y1000000D01*
X311496Y1025400D02*
X324704Y1025400D01*
X324704Y1050800D02*
X311496Y1050800D01*
X311496Y1076200D02*
X324704Y1076200D01*
D10*
X247140Y1133650D03*
X297940Y1133650D03*
D13*
X566190Y1082220D03*
X566190Y1133020D03*
D14*
X557620Y522700D02*
X542380Y522700D01*
X542380Y497300D02*
X557620Y497300D01*
D15*
X50000Y950480D03*
X50000Y925080D03*
X50000Y899680D03*
D12*
X427676Y1108100D02*
X440884Y1108100D01*
X440884Y1082700D02*
X427676Y1082700D01*
X503876Y1031900D02*
X517084Y1031900D01*
X517084Y1057300D02*
X503876Y1057300D01*
X440884Y1057300D02*
X427676Y1057300D01*
X427676Y1031900D02*
X440884Y1031900D01*
X503876Y1082700D02*
X517084Y1082700D01*
X517084Y1108100D02*
X503876Y1108100D01*
D15*
X80950Y808730D03*
X106350Y808730D03*
X131750Y808730D03*
D16*
X122000Y1090000D03*
X80000Y1041000D03*
X80000Y1123000D03*
D17*
X38000Y1090000D03*
D16*
X122000Y1354920D03*
X80000Y1305920D03*
X80000Y1387920D03*
D17*
X38000Y1354920D03*
D15*
X564600Y1386190D03*
X590000Y1386190D03*
X615400Y1386190D03*
D18*
X249200Y860000D03*
X350800Y860000D03*
D19*
X346510Y1081420D03*
X346510Y1183020D03*
D20*
X405080Y1048260D03*
X405080Y946660D03*
D19*
X640000Y1079200D03*
X640000Y1180800D03*
D18*
X429200Y990000D03*
X530800Y990000D03*
X249200Y830000D03*
X350800Y830000D03*
X249200Y800000D03*
X350800Y800000D03*
D19*
X387620Y1081420D03*
X387620Y1183020D03*
D21*
X640960Y1045880D03*
X539360Y1045880D03*
D14*
X542380Y197300D02*
X557620Y197300D01*
X557620Y222700D02*
X542380Y222700D01*
D15*
X143490Y900950D03*
X143490Y926350D03*
X143490Y951750D03*
D22*
X202500Y1170000D03*
D23*
X177500Y1170000D03*
D22*
X402500Y900000D03*
D23*
X377500Y900000D03*
D24*
X142700Y620000D02*
X117300Y620000D01*
X117300Y660000D02*
X142700Y660000D01*
X142700Y700000D02*
X117300Y700000D01*
D25*
X32083Y615174D03*
X32083Y705217D03*
D26*
X580000Y830000D03*
X580000Y878000D03*
X580000Y926000D03*
X533000Y926000D03*
X533000Y878000D03*
X533000Y830000D03*
X486000Y830000D03*
X486000Y878000D03*
X486000Y926000D03*
D24*
X142700Y320000D02*
X117300Y320000D01*
X117300Y360000D02*
X142700Y360000D01*
X142700Y400000D02*
X117300Y400000D01*
D25*
X32083Y315174D03*
X32083Y405217D03*
D15*
X580000Y1000000D03*
D22*
X363810Y952420D03*
D23*
X363810Y977420D03*
D27*
X105400Y1220150D03*
D15*
X80000Y1220150D03*
X54600Y1220150D03*
X410000Y1378222D03*
X410000Y1407178D03*
X450000Y1378222D03*
X450000Y1407178D03*
D28*
X610000Y60000D03*
X610000Y190000D03*
X610000Y320000D03*
X610000Y450000D03*
X610000Y580000D03*
X610000Y710000D03*
D29*
X363810Y977420D02*
X320920Y977420D01*
X318100Y974600D01*
X628500Y1373090D02*
X615400Y1386190D01*
X628500Y1373090D02*
X628500Y1250000D01*
X590000Y1180000D02*
X590000Y1386190D01*
X518100Y1108100D02*
X510480Y1108100D01*
X518100Y1108100D02*
X590000Y1180000D01*
X405080Y1048260D02*
X351740Y1048260D01*
X323800Y1076200D02*
X318100Y1076200D01*
X323800Y1076200D02*
X351740Y1048260D01*
X488100Y1108100D02*
X510480Y1108100D01*
X488100Y1108100D02*
X450000Y1070000D01*
X410000Y1070000D01*
X405080Y1065080D01*
X405080Y1048260D01*
X247140Y1081440D02*
X247140Y1133650D01*
X247140Y1081440D02*
X241900Y1076200D01*
X106350Y808730D02*
X106350Y710243D01*
X102314Y706207D01*
X102314Y387686D01*
X130000Y360000D01*
X260000Y1058100D02*
X241900Y1076200D01*
X260000Y1058100D02*
X260000Y900000D01*
X253619Y840668D02*
X259868Y834419D01*
X259868Y825581D01*
X253619Y819332D01*
X136590Y797046D02*
X126910Y797046D01*
X115226Y808730D02*
X106350Y808730D01*
X115226Y808730D02*
X126910Y797046D01*
X238532Y878532D02*
X260000Y900000D01*
X253619Y819332D02*
X158876Y819332D01*
X136590Y797046D01*
X238532Y855581D02*
X238532Y878532D01*
X238532Y855581D02*
X253445Y840668D01*
X253619Y840668D01*
X231100Y1040000D02*
X241900Y1050800D01*
X231100Y1040000D02*
X190000Y1040000D01*
X190000Y947460D02*
X143490Y900950D01*
X190000Y947460D02*
X190000Y1040000D01*
X458000Y850000D02*
X486000Y878000D01*
X458000Y850000D02*
X400000Y850000D01*
X390000Y840000D01*
X390000Y810000D01*
X380000Y800000D01*
X350800Y800000D01*
X512714Y821597D02*
X524597Y809714D01*
X512714Y851286D02*
X486000Y878000D01*
X512714Y851286D02*
X512714Y821597D01*
X559714Y809714D02*
X580000Y830000D01*
X559714Y809714D02*
X524597Y809714D01*
X249200Y800000D02*
X240150Y790950D01*
X210000Y790950D01*
X350800Y830000D02*
X350800Y860000D01*
X50000Y925080D02*
X30000Y945080D01*
X30000Y1040000D02*
X80000Y1090000D01*
X80000Y1123000D01*
X30000Y1040000D02*
X30000Y945080D01*
X388500Y1210000D02*
X428500Y1250000D01*
X288500Y1210000D02*
X270000Y1191500D01*
X288500Y1210000D02*
X388500Y1210000D01*
X249200Y830000D02*
X190000Y830000D01*
X80000Y940000D02*
X80000Y1041000D01*
X80000Y940000D02*
X190000Y830000D01*
X417300Y222700D02*
X550000Y222700D01*
X320000Y320000D02*
X130000Y320000D01*
X320000Y320000D02*
X417300Y222700D01*
X412700Y497300D02*
X550000Y497300D01*
X250000Y660000D02*
X130000Y660000D01*
X250000Y660000D02*
X412700Y497300D01*
X416000Y926000D02*
X486000Y926000D01*
X416000Y926000D02*
X400000Y910000D01*
X331900Y910000D01*
X318100Y923800D01*
X524597Y946286D02*
X540000Y946286D01*
X504311Y926000D02*
X486000Y926000D01*
X504311Y926000D02*
X524597Y946286D01*
X540000Y946286D02*
X541403Y946286D01*
X580000Y897311D02*
X580000Y878000D01*
X580000Y897311D02*
X559714Y917597D01*
X559714Y927975D02*
X541403Y946286D01*
X559714Y927975D02*
X559714Y917597D01*
X387620Y1183020D02*
X370640Y1200000D01*
X330000Y1200000D01*
X300000Y1170000D01*
X202500Y1170000D01*
X420000Y1122380D02*
X434280Y1108100D01*
X420000Y1150640D02*
X387620Y1183020D01*
X420000Y1150640D02*
X420000Y1122380D01*
X434280Y1082700D02*
X433000Y1081420D01*
X387620Y1081420D01*
X346510Y1081420D01*
X434280Y1057300D02*
X485080Y1057300D01*
X510480Y1031900D01*
X460000Y1031580D02*
X434280Y1057300D01*
X460000Y1031580D02*
X460000Y1010000D01*
X430000Y1010000D01*
X429200Y1009200D01*
X429200Y990000D01*
X430000Y989200D01*
X430000Y950000D01*
X426660Y946660D01*
X405080Y946660D01*
X369570Y946660D01*
X363810Y952420D01*
X297940Y1134450D02*
X346510Y1183020D01*
X297940Y1134450D02*
X297940Y1133650D01*
X640000Y1046840D02*
X640960Y1045880D01*
X640000Y1046840D02*
X640000Y1079200D01*
X640000Y1156030D02*
X640000Y1180800D01*
X640000Y1156030D02*
X566190Y1082220D01*
X530000Y1055240D02*
X539360Y1045880D01*
X530000Y1055240D02*
X530000Y1070000D01*
X517300Y1082700D01*
X510480Y1082700D01*
X177500Y1007500D02*
X177500Y1170000D01*
X143490Y973490D02*
X143490Y951750D01*
X143490Y973490D02*
X177500Y1007500D01*
X346381Y810668D02*
X340132Y804419D01*
X377500Y841613D02*
X377500Y900000D01*
X377500Y841613D02*
X346555Y810668D01*
X346381Y810668D01*
X340132Y770132D02*
X340000Y770000D01*
X340132Y770132D02*
X340132Y804419D01*
X561723Y507206D02*
X567526Y501403D01*
X567526Y493197D01*
X561723Y487394D01*
X148907Y345014D02*
X111093Y345014D01*
X94666Y361441D01*
X291287Y487394D02*
X561723Y487394D01*
X291287Y487394D02*
X148907Y345014D01*
X340000Y711071D02*
X340000Y770000D01*
X340000Y711071D02*
X543865Y507206D01*
X561723Y507206D01*
X94666Y905814D02*
X50000Y950480D01*
X94666Y905814D02*
X94666Y361441D01*
X150000Y1175550D02*
X105400Y1220150D01*
X150000Y1010000D02*
X120000Y980000D01*
X120000Y930000D01*
X123650Y926350D01*
X143490Y926350D01*
X150000Y1010000D02*
X150000Y1175550D01*
X80000Y1220150D02*
X80000Y1305920D01*
X580000Y1000000D02*
X580000Y926000D01*
X486000Y830000D02*
X516000Y800000D01*
X610000Y800000D01*
X610000Y896000D01*
X580000Y926000D01*
M02*
