G04 EAGLE Gerber RS-274X export*
G75*
%MOMM*%
%FSLAX34Y34*%
%LPD*%
%INSoldermask Top*%
%IPPOS*%
%AMOC8*
5,1,8,0,0,1.08239X$1,22.5*%
G01*
%ADD10C,2.703200*%
%ADD11P,1.649562X8X22.500000*%
%ADD12C,2.153200*%
%ADD13C,1.524000*%
%ADD14P,1.649562X8X112.500000*%
%ADD15C,1.727200*%
%ADD16C,2.082800*%
%ADD17C,3.719200*%
%ADD18C,2.453200*%
%ADD19P,2.034460X8X22.500000*%
%ADD20P,2.034460X8X112.500000*%
%ADD21P,2.034460X8X292.500000*%
%ADD22P,2.034460X8X202.500000*%
%ADD23C,1.930400*%
%ADD24R,1.930400X1.930400*%
%ADD25C,2.743200*%
%ADD26C,2.743200*%
%ADD27C,3.803200*%
%ADD28R,2.082800X2.082800*%
%ADD29C,4.703200*%


D10*
X633730Y1000760D03*
D11*
X222700Y810000D03*
X210000Y790950D03*
X197300Y810000D03*
D12*
X270000Y1391500D03*
X270000Y1191500D03*
X428500Y1250000D03*
X628500Y1250000D03*
D13*
X248504Y1076200D02*
X235296Y1076200D01*
X235296Y1050800D02*
X248504Y1050800D01*
X248504Y974600D02*
X235296Y974600D01*
X235296Y949200D02*
X248504Y949200D01*
X248504Y1025400D02*
X235296Y1025400D01*
X235296Y1000000D02*
X248504Y1000000D01*
X248504Y923800D02*
X235296Y923800D01*
X311496Y923800D02*
X324704Y923800D01*
X324704Y949200D02*
X311496Y949200D01*
X311496Y974600D02*
X324704Y974600D01*
X324704Y1000000D02*
X311496Y1000000D01*
X311496Y1025400D02*
X324704Y1025400D01*
X324704Y1050800D02*
X311496Y1050800D01*
X311496Y1076200D02*
X324704Y1076200D01*
D11*
X247140Y1133650D03*
X297940Y1133650D03*
D14*
X566190Y1082220D03*
X566190Y1133020D03*
D15*
X557620Y522700D02*
X542380Y522700D01*
X542380Y497300D02*
X557620Y497300D01*
D16*
X50000Y950480D03*
X50000Y925080D03*
X50000Y899680D03*
D13*
X427676Y1108100D02*
X440884Y1108100D01*
X440884Y1082700D02*
X427676Y1082700D01*
X503876Y1031900D02*
X517084Y1031900D01*
X517084Y1057300D02*
X503876Y1057300D01*
X440884Y1057300D02*
X427676Y1057300D01*
X427676Y1031900D02*
X440884Y1031900D01*
X503876Y1082700D02*
X517084Y1082700D01*
X517084Y1108100D02*
X503876Y1108100D01*
D16*
X80950Y808730D03*
X106350Y808730D03*
X131750Y808730D03*
D17*
X122000Y1090000D03*
X80000Y1041000D03*
X80000Y1123000D03*
D18*
X38000Y1090000D03*
D17*
X122000Y1354920D03*
X80000Y1305920D03*
X80000Y1387920D03*
D18*
X38000Y1354920D03*
D16*
X564600Y1386190D03*
X590000Y1386190D03*
X615400Y1386190D03*
D19*
X249200Y860000D03*
X350800Y860000D03*
D20*
X346510Y1081420D03*
X346510Y1183020D03*
D21*
X405080Y1048260D03*
X405080Y946660D03*
D20*
X640000Y1079200D03*
X640000Y1180800D03*
D19*
X429200Y990000D03*
X530800Y990000D03*
X249200Y830000D03*
X350800Y830000D03*
X249200Y800000D03*
X350800Y800000D03*
D20*
X387620Y1081420D03*
X387620Y1183020D03*
D22*
X640960Y1045880D03*
X539360Y1045880D03*
D15*
X542380Y197300D02*
X557620Y197300D01*
X557620Y222700D02*
X542380Y222700D01*
D16*
X143490Y900950D03*
X143490Y926350D03*
X143490Y951750D03*
D23*
X177500Y1170000D03*
D24*
X202500Y1170000D03*
D23*
X377500Y900000D03*
D24*
X402500Y900000D03*
D25*
X142700Y620000D02*
X117300Y620000D01*
X117300Y660000D02*
X142700Y660000D01*
X142700Y700000D02*
X117300Y700000D01*
D26*
X32083Y615174D03*
X32083Y705217D03*
D27*
X580000Y830000D03*
X580000Y878000D03*
X580000Y926000D03*
X533000Y926000D03*
X533000Y878000D03*
X533000Y830000D03*
X486000Y830000D03*
X486000Y878000D03*
X486000Y926000D03*
D25*
X142700Y320000D02*
X117300Y320000D01*
X117300Y360000D02*
X142700Y360000D01*
X142700Y400000D02*
X117300Y400000D01*
D26*
X32083Y315174D03*
X32083Y405217D03*
D16*
X580000Y1000000D03*
D23*
X363810Y977420D03*
D24*
X363810Y952420D03*
D28*
X105400Y1220150D03*
D16*
X80000Y1220150D03*
X54600Y1220150D03*
X410000Y1378222D03*
X410000Y1407178D03*
X450000Y1378222D03*
X450000Y1407178D03*
D29*
X610000Y60000D03*
X610000Y190000D03*
X610000Y320000D03*
X610000Y450000D03*
X610000Y580000D03*
X610000Y710000D03*
M02*
